<svg xmlns="http://www.w3.org/2000/svg" width="17.535" height="15.472" viewBox="0 0 17.535 15.472">
  <path id="Cars" d="M141.68-726.639v1.464a.627.627,0,0,1-.186.462.627.627,0,0,1-.462.186h-.383a.627.627,0,0,1-.462-.186.627.627,0,0,1-.186-.462v-7.963l2.117-6.213a.922.922,0,0,1,.363-.474,1.014,1.014,0,0,1,.58-.174h11.455a.932.932,0,0,1,.557.174.944.944,0,0,1,.347.474l2.117,6.213v7.963a.627.627,0,0,1-.186.462.627.627,0,0,1-.462.186h-.394a.607.607,0,0,1-.46-.186.644.644,0,0,1-.177-.462v-1.464Zm.128-7.8h13.92l-1.465-4.269H143.274Zm-.512,1.3v0Zm2.613,3.888a1.222,1.222,0,0,0,.908-.374,1.243,1.243,0,0,0,.367-.9,1.252,1.252,0,0,0-.374-.919,1.227,1.227,0,0,0-.9-.375,1.252,1.252,0,0,0-.919.376,1.248,1.248,0,0,0-.377.919,1.217,1.217,0,0,0,.378.91A1.27,1.27,0,0,0,143.91-729.251Zm9.733,0a1.25,1.25,0,0,0,.916-.374,1.229,1.229,0,0,0,.376-.9,1.247,1.247,0,0,0-.377-.919,1.25,1.25,0,0,0-.915-.375,1.227,1.227,0,0,0-.909.376,1.259,1.259,0,0,0-.371.919,1.219,1.219,0,0,0,.377.91A1.249,1.249,0,0,0,153.643-729.251ZM141.3-727.935H156.24v-5.2H141.3Z" transform="translate(-140.001 739.999)" fill="#afafaf"/>
</svg>
