<svg xmlns="http://www.w3.org/2000/svg" width="21.084" height="17.068" viewBox="0 0 21.084 17.068">
  <path id="Hotels" d="M75.887-814.875h1.532v-1.532H75.887Zm0,4.149h1.532v-1.532H75.887Zm0,4.138h1.532v-1.532H75.887Zm-1.3,3.657v-1.261h5.241v-14.545h-9.77v2.487l-1.261-.892V-820H81.086v17.068Zm-14.581,0V-812.1l6.414-4.578,6.4,4.576v9.167h-5.1v-4.779h-2.6v4.779Zm1.261-1.261h2.592v-4.779h5.12v4.779h2.582v-7.262l-5.142-3.651-5.153,3.659ZM74.583-813.042Zm-5.607,8.849v-4.779h-5.12v0h5.12Z" transform="translate(-60.002 819.999)" fill="#afafaf"/>
</svg>
