<svg id="Header_CFT-logo" data-name="Header CFT-logo" xmlns="http://www.w3.org/2000/svg" xmlns:xlink="http://www.w3.org/1999/xlink" width="201.533" height="26.967" viewBox="0 0 201.533 26.967">
  <defs>
    <linearGradient id="linear-gradient" y1="0.5" x2="1" y2="0.5" gradientUnits="objectBoundingBox">
      <stop offset="0" stop-color="#f5c231"/>
      <stop offset="0" stop-color="#ecc440"/>
      <stop offset="0.318" stop-color="#faf08d"/>
      <stop offset="0.39" stop-color="#f7e981"/>
      <stop offset="0.514" stop-color="#f0d762"/>
      <stop offset="0.674" stop-color="#e4b92e"/>
      <stop offset="0.732" stop-color="#dead15"/>
      <stop offset="1" stop-color="#f8f198"/>
    </linearGradient>
  </defs>
  <g id="Group_14460" data-name="Group 14460" transform="translate(0 0)">
    <rect id="Rectangle_5151" data-name="Rectangle 5151" width="201.533" height="26.967" fill="none" opacity="0.7"/>
    <g id="Group_14459" data-name="Group 14459" transform="translate(0.761 0.883)">
      <path id="Path_17675" data-name="Path 17675" d="M46.639,48.121a5.628,5.628,0,0,1-3.949,1.42,5.967,5.967,0,0,1-4.684-1.906A7.681,7.681,0,0,1,36.3,42.366a7.586,7.586,0,0,1,1.943-5.581,5.791,5.791,0,0,1,4.3-1.707,5.773,5.773,0,0,1,5.095,2.292,5,5,0,0,1,.959,2.579H45.7a3.8,3.8,0,0,0-.723-1.495,2.942,2.942,0,0,0-2.329-.9,2.879,2.879,0,0,0-2.479,1.271,6.062,6.062,0,0,0-.909,3.588,5.356,5.356,0,0,0,.959,3.475,3.032,3.032,0,0,0,2.442,1.158,2.815,2.815,0,0,0,2.317-1,4.3,4.3,0,0,0,.735-1.607H48.57A6.435,6.435,0,0,1,46.639,48.121Zm12.345,1.021V42.976H53.59v6.166H50.738V35.328H53.59V40.6h5.394V35.328h2.865V49.142Zm15.235-6.029H67.5v3.55h7.649v2.479H64.689V35.328H74.817v2.442H67.5V40.7h6.714v2.417ZM85.492,46.3H80.41l-.959,2.84H76.436l4.933-13.815h3.264l4.9,13.815H86.4Zm-.8-2.379-1.719-5.431-1.781,5.431Zm12.444.262H94.212v4.97H91.347V35.328h6.017a4.905,4.905,0,0,1,3.314,1.071,4.153,4.153,0,0,1,1.233,3.314,4.27,4.27,0,0,1-1.233,3.463A5.564,5.564,0,0,1,97.14,44.184Zm1.345-2.878a2.01,2.01,0,0,0,.561-1.57,1.822,1.822,0,0,0-.573-1.532,2.433,2.433,0,0,0-1.594-.461H94.187v4.061h2.691A2.475,2.475,0,0,0,98.485,41.307Zm20.367-3.525h-6.926v3.177h6.067v2.4h-6.067v5.792h-2.865v-13.8h9.791Zm1.931-2.454h2.89V46.651h6.839V49.13h-9.729v-13.8Zm11.5,0h2.865V49.142h-2.865ZM146.32,48.806a5.216,5.216,0,0,1-2.815.7,5.836,5.836,0,0,1-4.5-1.906,7.237,7.237,0,0,1-1.831-5.232,7.671,7.671,0,0,1,1.844-5.381,6.3,6.3,0,0,1,4.883-2.018,6.434,6.434,0,0,1,4.235,1.333,4.911,4.911,0,0,1,1.831,3.326h-2.84a2.7,2.7,0,0,0-1.607-1.981,3.857,3.857,0,0,0-1.582-.311,3.451,3.451,0,0,0-2.741,1.258,5.746,5.746,0,0,0-1.071,3.787,4.744,4.744,0,0,0,1.158,3.613,3.8,3.8,0,0,0,2.641,1.059,3.4,3.4,0,0,0,2.379-.835,3.652,3.652,0,0,0,1.146-2.192h-3.189v-2.3h5.755V49.13h-1.906l-.286-1.719A6.652,6.652,0,0,1,146.32,48.806Zm14.687.336V42.976h-5.394v6.166H152.76V35.328h2.853V40.6h5.394V35.328h2.865V49.142Zm15.658-13.815v2.442h-4.136V49.142h-2.9V37.769h-4.148V35.328Zm22.124,8.4h-2.977v5.419H193V35.328h6.777a5.953,5.953,0,0,1,2.23.361,3.51,3.51,0,0,1,1.32.959,4.262,4.262,0,0,1,.71,1.158,3.8,3.8,0,0,1,.262,1.457,4.054,4.054,0,0,1-.5,1.931,2.764,2.764,0,0,1-1.644,1.345,2.655,2.655,0,0,1,1.358,1.1,4.6,4.6,0,0,1,.4,2.155v.922A7.066,7.066,0,0,0,203.983,48a1.123,1.123,0,0,0,.523.785v.349h-3.177c-.087-.311-.149-.548-.187-.735a7.478,7.478,0,0,1-.125-1.2l-.012-1.283a2.461,2.461,0,0,0-.486-1.756A2.59,2.59,0,0,0,198.788,43.724Zm1.744-2.5a1.543,1.543,0,0,0,.86-1.557,1.7,1.7,0,0,0-.835-1.682,3.161,3.161,0,0,0-1.408-.249H195.8v3.712h3.276A3.634,3.634,0,0,0,200.532,41.22Zm6.017-5.892h2.865V49.142h-2.865Zm11.423,8.857h-2.927v4.97h-2.865V35.328H218.2A4.905,4.905,0,0,1,221.51,36.4a4.153,4.153,0,0,1,1.233,3.314,4.27,4.27,0,0,1-1.233,3.463A5.54,5.54,0,0,1,217.972,44.184Zm1.358-2.878a2.01,2.01,0,0,0,.561-1.57,1.856,1.856,0,0,0-.561-1.532,2.433,2.433,0,0,0-1.594-.461h-2.691v4.061h2.691A2.487,2.487,0,0,0,219.33,41.307Zm10.6,5.842a5.062,5.062,0,0,0,1.657-.224,1.6,1.6,0,0,0,1.208-1.607,1.177,1.177,0,0,0-.6-1.059,6.2,6.2,0,0,0-1.881-.648l-1.457-.324a9.1,9.1,0,0,1-2.977-1.059,3.356,3.356,0,0,1-1.4-2.99,4.022,4.022,0,0,1,1.345-3.089,5.675,5.675,0,0,1,3.961-1.233,6.005,6.005,0,0,1,3.725,1.158,4.158,4.158,0,0,1,1.619,3.363H232.36a1.973,1.973,0,0,0-1.084-1.769,3.579,3.579,0,0,0-1.682-.349,3.144,3.144,0,0,0-1.781.448,1.422,1.422,0,0,0-.66,1.258,1.2,1.2,0,0,0,.66,1.109,8.565,8.565,0,0,0,1.794.573l2.379.573a6.3,6.3,0,0,1,2.367,1,3.381,3.381,0,0,1,1.233,2.815,3.993,3.993,0,0,1-1.445,3.139,6.047,6.047,0,0,1-4.086,1.246,6.656,6.656,0,0,1-4.248-1.233,4.093,4.093,0,0,1-1.545-3.388h2.753a2.41,2.41,0,0,0,2.915,2.292Zm-29.76-22.285-16.244,9.754h6.64a1.545,1.545,0,0,0,1.134-.5l8.483-9.243C200.2,24.864,200.183,24.851,200.171,24.864ZM187.353,44.1c-.025-2.454,1.931-2.94,3.824-3.837a.371.371,0,0,0,.212-.324l-.012-4.584-6.39,3.625a1.871,1.871,0,0,0-1.121,1.707l-.037,6.577a.694.694,0,0,0,.374.623l3.152,1.682C187.353,47.735,187.365,45.916,187.353,44.1Z" transform="translate(-36.3 -24.859)" fill="url(#linear-gradient)"/>
    </g>
  </g>
</svg>
