<svg width="18" height="25" viewBox="0 0 18 25" fill="none" xmlns="http://www.w3.org/2000/svg">
<path d="M13.5803 16.6621C13.2735 17.1997 12.9409 17.7115 12.6084 18.1979C14.7566 18.6842 16.0354 19.5289 16.0354 20.1687C16.0354 21.1157 13.1966 22.549 8.90002 22.549C4.60346 22.549 1.76466 21.1157 1.76466 20.1687C1.76466 19.5289 3.0434 18.7097 5.19164 18.1979C4.85911 17.7115 4.52674 17.1997 4.21975 16.6621C1.76448 17.302 2.50758e-10 18.4537 4.90775e-10 20.1685C8.70497e-10 22.8815 4.47559 24.3149 8.90002 24.3149C13.3245 24.3149 17.8 22.8816 17.8 20.1685C17.8 18.4539 16.0353 17.302 13.5803 16.6621Z" fill="black"/>
<path d="M9.69295 19.452C11.5088 16.7645 15.8565 10.0331 15.8565 6.98737C15.8565 3.12261 12.7363 -1.51652e-09 8.90013 -9.78744e-10C5.06391 -4.40973e-10 1.91821 3.12256 1.91821 6.98737C1.91821 10.0332 6.29159 16.7646 8.10731 19.452C8.49086 19.9896 9.30932 19.9896 9.6929 19.4522L9.69295 19.452ZM5.65213 6.98737C5.65213 5.19578 7.10998 3.73679 8.90017 3.73679C10.6904 3.73679 12.1482 5.19578 12.1482 6.98737C12.1482 8.77896 10.6904 10.2124 8.90017 10.2124C7.10998 10.2124 5.65213 8.75341 5.65213 6.98737Z" fill="black"/>
</svg>
