<svg width="612" height="476" viewBox="0 0 612 476" fill="none" xmlns="http://www.w3.org/2000/svg">
<g clip-path="url(#clip0_39_49)">
<path d="M189.902 35.1811C189.979 34.9176 190.061 34.6541 190.158 34.4017C190.251 34.1456 190.35 33.9082 190.466 33.6335C190.688 33.0991 190.903 32.5609 191.078 32.008C191.233 31.5255 191.404 31.0319 191.601 30.5457C191.797 30.0632 192.009 29.5844 192.258 29.1428C192.469 28.7531 192.261 28.3931 191.938 28.2224C191.616 28.0517 191.178 28.0814 190.959 28.4821C190.421 29.462 189.998 30.5011 189.609 31.5514L189.037 33.1288C188.944 33.3848 188.837 33.678 188.751 33.9527C188.662 34.231 188.585 34.5094 188.506 34.7877C188.38 35.2405 188.68 35.5485 189.033 35.6339C189.386 35.7155 189.787 35.5894 189.902 35.1811Z" fill="#CACEDB"/>
<path d="M195.103 24.7151C195.419 24.2363 195.757 23.7724 196.087 23.3048C196.417 22.8372 196.751 22.3695 197.051 21.8796C197.319 21.4528 197.605 21.0186 197.916 20.5881C198.224 20.1613 198.543 19.7456 198.881 19.3596C199.475 18.6879 198.347 17.7526 197.753 18.4318C197.389 18.8475 197.044 19.2779 196.711 19.7159C196.376 20.1502 196.05 20.6141 195.731 21.078L195.26 21.7831L194.799 22.492L193.886 23.9098C193.631 24.2883 193.823 24.6817 194.131 24.8747C194.436 25.0751 194.859 25.0825 195.103 24.7151Z" fill="#CACEDB"/>
<path d="M202.506 15.4849C202.892 15.0581 203.296 14.6424 203.694 14.2231C204.094 13.8111 204.48 13.3806 204.847 12.9427C205.011 12.7496 205.17 12.5492 205.345 12.36C205.519 12.1707 205.697 11.9814 205.875 11.7958C206.231 11.4173 206.628 11.087 207.018 10.7678C207.367 10.5006 207.322 10.0886 207.096 9.79916C206.873 9.51338 206.454 9.35378 206.087 9.63585C205.649 9.98838 205.211 10.3484 204.814 10.7456C204.614 10.9422 204.41 11.1426 204.213 11.343L203.641 11.9665C203.255 12.3785 202.903 12.8165 202.525 13.2358C202.161 13.6626 201.79 14.0857 201.415 14.5014C200.818 15.1806 201.916 16.1455 202.506 15.4849Z" fill="#CACEDB"/>
<path d="M211.448 8.06236L212.206 7.69122L212.584 7.50565L212.984 7.32009C213.515 7.07143 214.038 6.80792 214.539 6.5073C215.419 5.97658 216.358 5.44214 217.303 5.05987C218.131 4.72585 217.552 3.38235 216.709 3.72008C215.683 4.13575 214.703 4.65534 213.726 5.18606L212.265 5.97658C211.775 6.22895 211.267 6.51845 210.762 6.77082C209.949 7.23102 210.706 8.48916 211.448 8.06236Z" fill="#CACEDB"/>
<path d="M222.272 3.32004C223.315 2.97851 224.424 2.8226 225.533 2.55531C226.51 2.31773 227.578 2.13213 228.606 2.05789C229.059 2.02448 229.244 1.6384 229.2 1.2746C229.155 0.910802 228.892 0.569275 228.45 0.598973C227.37 0.67693 226.265 0.829118 225.147 1.04814C224.591 1.16322 224.031 1.28574 223.478 1.43423C222.922 1.57901 222.368 1.74235 221.82 1.92425C221.367 2.07274 221.289 2.49964 221.415 2.84117C221.541 3.19012 221.882 3.44997 222.272 3.32004Z" fill="#CACEDB"/>
<path d="M233.841 1.47873C234.335 1.46016 234.851 1.53812 235.389 1.63835L235.822 1.71632C235.971 1.7423 236.124 1.76457 236.272 1.78313C236.572 1.82025 236.869 1.84622 237.162 1.85736C238.201 1.89819 239.269 1.93532 240.227 2.18776C240.646 2.29541 240.947 2.00586 241.039 1.64948C241.133 1.29682 240.999 0.869911 240.542 0.754831C239.986 0.610053 239.419 0.52096 238.862 0.454139C238.301 0.391031 237.753 0.350206 237.206 0.301947C236.936 0.279673 236.665 0.253679 236.397 0.223981C236.124 0.194283 235.879 0.160881 235.581 0.116334C235.006 0.0383765 234.401 -0.0173256 233.786 0.00494801C233.281 0.0272215 233.099 0.439288 233.155 0.799377C233.214 1.1706 233.47 1.49357 233.841 1.47873Z" fill="#CACEDB"/>
<path d="M245.054 4.09119C245.57 4.32872 246.075 4.58851 246.575 4.85572C247.081 5.11923 247.578 5.38646 248.09 5.62769C248.539 5.84295 248.999 6.07677 249.433 6.3477C249.87 6.61491 250.275 6.93037 250.657 7.24212C250.976 7.53903 251.377 7.41285 251.618 7.13821C251.859 6.86357 251.933 6.42934 251.589 6.11016C251.369 5.9246 251.143 5.75016 250.917 5.57573C250.69 5.4013 250.457 5.23059 250.216 5.07842C249.737 4.76295 249.239 4.4846 248.739 4.21367C248.231 3.95017 247.723 3.69779 247.206 3.46397C246.695 3.21902 246.175 2.99264 245.663 2.75512C245.244 2.56584 244.888 2.8145 244.743 3.14852C244.598 3.48996 244.657 3.90933 245.054 4.09119Z" fill="#CACEDB"/>
<path d="M254.1 11.1279C254.446 11.5807 254.798 12.0298 255.124 12.4975C255.292 12.7312 255.466 12.9577 255.637 13.184C255.803 13.4142 255.981 13.6405 256.164 13.8595C256.494 14.2418 256.794 14.6648 257.099 15.0842C257.395 15.511 257.663 15.9564 257.901 16.4018C258.294 17.1923 259.596 16.5057 259.184 15.6855C258.92 15.1919 258.642 14.7057 258.331 14.2344C258.015 13.7667 257.7 13.2991 257.351 12.8537L256.839 12.1783L256.305 11.5177C255.96 11.0686 255.581 10.6492 255.24 10.2001C254.95 9.84379 254.516 9.90693 254.238 10.1445C253.959 10.3893 253.826 10.7865 254.1 11.1279Z" fill="#CACEDB"/>
<path d="M260.019 21.2374C260.246 21.7682 260.468 22.3026 260.687 22.8371C260.909 23.3678 261.14 23.9022 261.411 24.4181C261.878 25.3236 262.349 26.2997 262.657 27.2684C262.795 27.6915 263.206 27.7843 263.551 27.6655C263.897 27.543 264.182 27.2053 264.041 26.7748C263.703 25.7171 263.25 24.7001 262.783 23.6869L262.067 22.169C261.833 21.6606 261.584 21.1558 261.369 20.6437C260.991 19.816 259.655 20.4321 260.019 21.2374Z" fill="#CACEDB"/>
<path d="M264.052 32.3827C264.216 32.9357 264.349 33.4998 264.502 34.0565C264.643 34.6169 264.805 35.1699 264.991 35.7154C265.161 36.1942 265.31 36.6915 265.451 37.1926C265.577 37.6973 265.696 38.2058 265.752 38.7068C265.863 39.5827 267.317 39.3823 267.203 38.4693C267.136 37.9126 267.021 37.3633 266.898 36.8177C266.764 36.2722 266.62 35.7303 266.457 35.1922C266.3 34.6503 266.122 34.1196 265.96 33.5815C265.785 33.047 265.625 32.5126 265.466 31.9744C265.343 31.5365 264.925 31.4251 264.572 31.5291C264.219 31.6367 263.93 31.9558 264.052 32.3827Z" fill="#CACEDB"/>
<path d="M266.242 44.0252C266.412 45.1869 266.549 46.3634 266.868 47.4953C267.009 47.9926 267.15 48.5011 267.273 49.017C267.399 49.5366 267.506 50.0339 267.555 50.5349C267.603 50.9692 267.982 51.1473 268.349 51.1028C268.712 51.0583 269.065 50.7873 269.01 50.3271C268.983 50.045 268.936 49.763 268.887 49.4847C268.839 49.2063 268.783 48.9427 268.728 48.6719C268.612 48.1337 268.486 47.5956 268.36 47.0611C268.108 45.9849 267.855 44.9086 267.693 43.8137C267.566 42.923 266.108 43.1271 266.242 44.0252Z" fill="#CACEDB"/>
<path d="M267.8 55.8345C267.9 57.0111 267.982 58.2246 268.334 59.3864C268.497 59.9207 268.65 60.355 268.739 60.8523C268.832 61.3459 268.876 61.8543 268.88 62.3591C268.883 63.2498 270.353 63.209 270.349 62.2997C270.345 61.7394 270.304 61.1641 270.208 60.5814C270.163 60.2919 270.1 59.9988 270.026 59.7055L269.819 58.9187C269.689 58.3991 269.569 57.8721 269.477 57.334C269.384 56.7995 269.31 56.254 269.262 55.7084C269.191 54.8214 267.726 54.9252 267.8 55.8345Z" fill="#CACEDB"/>
<path d="M269.232 67.7666C269.317 68.3307 269.377 68.8911 269.421 69.4441L269.481 70.2755C269.503 70.55 269.518 70.8247 269.548 71.129C269.603 71.6486 269.662 72.1831 269.722 72.7175C269.777 73.2483 269.826 73.7789 269.844 74.2985C269.885 75.2078 271.351 75.0742 271.31 74.1909C271.291 73.649 271.251 73.1109 271.21 72.569C271.165 72.0309 271.124 71.489 271.094 70.9509C271.065 70.3942 271.013 69.8004 270.939 69.2325C270.865 68.661 270.772 68.1006 270.687 67.5401C270.538 66.6347 269.091 66.9018 269.232 67.7666Z" fill="#CACEDB"/>
<path d="M270.082 79.6428C270.126 80.2181 270.16 80.7971 270.189 81.3686C270.23 81.9476 270.274 82.5526 270.386 83.1316C270.479 83.6437 270.579 84.167 270.668 84.694C270.75 85.221 270.835 85.7443 270.876 86.2601C270.965 87.1657 272.42 86.9579 272.334 86.0783C272.289 85.5365 272.215 84.9983 272.145 84.4565C272.067 83.9184 271.989 83.3764 271.915 82.8346C271.84 82.289 271.774 81.7583 271.714 81.1979C271.658 80.6375 271.596 80.0808 271.551 79.5241C271.469 78.6185 270.008 78.7559 270.082 79.6428Z" fill="#CACEDB"/>
<path d="M271.459 91.6079C271.662 92.7658 271.836 93.9355 272.182 95.0564C272.486 96.04 272.787 97.0823 272.95 98.0921C273.091 98.9791 274.534 98.7009 274.393 97.8103C274.045 95.6354 273.295 93.5236 272.909 91.3486C272.749 90.4725 271.299 90.7173 271.459 91.6079Z" fill="#CACEDB"/>
<path d="M273.751 103.399C274.008 104.554 274.241 105.726 274.683 106.828C275.073 107.797 275.484 108.814 275.807 109.805C275.948 110.24 276.367 110.325 276.713 110.191C277.053 110.057 277.325 109.719 277.191 109.304C276.534 107.266 275.662 105.233 275.188 103.08C274.998 102.212 273.555 102.509 273.751 103.399Z" fill="#CACEDB"/>
<path d="M277.929 114.838C278.52 115.866 279.091 116.897 279.781 117.825C280.082 118.233 280.385 118.66 280.664 119.098C280.95 119.536 281.18 119.982 281.429 120.457C281.848 121.284 283.113 120.531 282.723 119.762C282.486 119.306 282.219 118.775 281.929 118.304C281.64 117.821 281.332 117.354 281.02 116.89C280.394 115.966 279.751 115.06 279.206 114.106C278.772 113.339 277.476 114.039 277.929 114.838Z" fill="#CACEDB"/>
<path d="M284.241 125.152C284.62 125.615 284.994 126.087 285.387 126.536C285.588 126.755 285.796 126.974 286.004 127.185C286.212 127.401 286.43 127.605 286.66 127.79C287.061 128.128 287.469 128.473 287.878 128.818C288.285 129.163 288.675 129.527 289.05 129.879C289.707 130.518 290.675 129.409 290.041 128.796C289.647 128.422 289.257 128.047 288.853 127.686C288.441 127.33 288.056 126.951 287.644 126.592C287.24 126.224 286.857 125.838 286.468 125.456C286.096 125.059 285.725 124.658 285.384 124.235C284.86 123.541 283.673 124.409 284.241 125.152Z" fill="#CACEDB"/>
<path d="M293.012 133.546C293.94 134.274 294.849 135.035 295.858 135.632C296.3 135.896 296.753 136.17 297.194 136.46C297.417 136.605 297.632 136.753 297.848 136.902C298.063 137.054 298.289 137.206 298.497 137.362C298.682 137.499 298.876 137.529 299.042 137.481C299.213 137.429 299.358 137.307 299.458 137.15C299.558 136.994 299.61 136.813 299.595 136.635C299.584 136.452 299.506 136.281 299.335 136.152C299.124 135.992 298.913 135.848 298.689 135.684C298.467 135.521 298.245 135.361 298.018 135.206C297.562 134.894 297.106 134.59 296.642 134.285C295.718 133.68 294.793 133.068 293.925 132.389C293.231 131.836 292.304 132.978 293.012 133.546Z" fill="#CACEDB"/>
<path d="M303.198 140.186C303.747 140.416 304.296 140.658 304.856 140.862C305.139 140.966 305.417 141.062 305.703 141.155C305.985 141.245 306.274 141.315 306.563 141.382C307.072 141.5 307.595 141.608 308.111 141.738C308.626 141.868 309.142 141.998 309.629 142.161C310.493 142.436 310.882 141.018 310.036 140.747C309.521 140.573 308.994 140.432 308.471 140.283C307.944 140.142 307.417 140.001 306.89 139.856C306.359 139.718 305.836 139.559 305.317 139.396C304.797 139.229 304.285 139.039 303.781 138.828C302.975 138.475 302.348 139.808 303.198 140.186Z" fill="#CACEDB"/>
<path d="M314.749 143.772C315.313 143.916 315.881 144.065 316.448 144.21C317.009 144.351 317.605 144.476 318.192 144.548C319.231 144.67 320.326 144.777 321.35 144.956C321.803 145.034 322.073 144.703 322.115 144.339C322.159 143.972 321.984 143.579 321.554 143.501C320.496 143.315 319.428 143.174 318.352 143C317.813 142.91 317.279 142.814 316.73 142.706C316.184 142.599 315.643 142.479 315.105 142.346C314.237 142.124 313.873 143.549 314.749 143.772Z" fill="#CACEDB"/>
<path d="M326.711 145.586C327.806 145.642 328.923 145.898 330.099 145.972C331.153 146.039 332.263 146.109 333.312 146.173C333.78 146.202 334.01 145.839 334.006 145.472C334.006 145.104 333.788 144.729 333.365 144.703C332.841 144.666 332.325 144.629 331.799 144.58C331.26 144.525 330.722 144.473 330.181 144.417C329.082 144.298 327.947 144.176 326.793 144.116C326.314 144.094 326.092 144.462 326.084 144.83C326.08 145.015 326.133 145.196 326.248 145.338C326.351 145.483 326.503 145.576 326.711 145.586Z" fill="#CACEDB"/>
<path d="M338.767 146.044C339.345 145.965 339.928 145.891 340.507 145.813C341.086 145.732 341.661 145.639 342.229 145.498C343.227 145.256 344.288 145.022 345.308 144.918C346.207 144.826 346.002 143.371 345.112 143.459C344.021 143.571 342.933 143.771 341.847 143.987C340.759 144.198 339.661 144.429 338.57 144.58C337.691 144.703 337.861 146.165 338.767 146.044Z" fill="#CACEDB"/>
<path d="M350.655 144.358C350.952 144.307 351.23 144.258 351.509 144.217L352.355 144.098C352.922 144.02 353.494 143.939 354.058 143.816C355.056 143.601 356.128 143.411 357.159 143.318C357.616 143.278 357.794 142.884 357.739 142.521C357.683 142.157 357.42 141.819 356.981 141.856C355.906 141.953 354.818 142.108 353.716 142.294C353.167 142.387 352.611 142.487 352.058 142.595L350.399 142.91C349.523 143.063 349.758 144.514 350.655 144.358Z" fill="#CACEDB"/>
<path d="M362.543 142.328C363.675 141.964 364.8 141.615 365.853 141.133C366.781 140.702 367.779 140.279 368.762 139.997C369.627 139.752 369.178 138.353 368.314 138.598C367.252 138.902 366.217 139.303 365.189 139.726C364.158 140.145 363.141 140.591 362.095 140.929C361.672 141.066 361.568 141.478 361.676 141.83C361.78 142.183 362.11 142.469 362.543 142.328Z" fill="#CACEDB"/>
<path d="M373.924 138.623C375.04 138.271 376.18 137.963 377.249 137.484C378.187 137.061 379.189 136.631 380.169 136.33C380.603 136.2 380.696 135.781 380.573 135.436C380.451 135.086 380.121 134.812 379.689 134.938C377.601 135.58 375.594 136.556 373.478 137.224C372.625 137.492 373.067 138.894 373.924 138.623Z" fill="#CACEDB"/>
<path d="M385.301 134.708C385.849 134.493 386.399 134.274 386.948 134.048C387.493 133.821 388.023 133.557 388.54 133.268C388.992 133.012 389.449 132.734 389.916 132.485C390.387 132.236 390.851 131.98 391.322 131.769C392.154 131.39 391.467 130.087 390.666 130.455C390.172 130.678 389.689 130.93 389.204 131.175C388.718 131.42 388.239 131.69 387.749 131.936C387.259 132.184 386.777 132.448 386.276 132.678C385.779 132.911 385.278 133.145 384.766 133.346C383.927 133.661 384.451 135.035 385.301 134.708Z" fill="#CACEDB"/>
<path d="M396.172 129.46C397.196 128.892 398.25 128.362 399.204 127.69C400.042 127.1 400.944 126.499 401.856 126.05C402.658 125.656 401.979 124.353 401.163 124.751C399.174 125.726 397.397 127.1 395.46 128.172C394.677 128.607 395.382 129.898 396.172 129.46Z" fill="#CACEDB"/>
<path d="M406.676 123.671C407.693 123.076 408.736 122.502 409.659 121.763C410.468 121.114 411.322 120.434 412.191 119.87C412.951 119.369 412.087 118.178 411.348 118.664C409.53 119.845 407.841 121.288 405.934 122.402C405.163 122.847 405.886 124.127 406.676 123.671Z" fill="#CACEDB"/>
<path d="M416.683 117.031C417.656 116.4 418.676 115.817 419.592 115.079C420.398 114.43 421.255 113.758 422.124 113.19C422.505 112.941 422.48 112.514 422.265 112.218C422.049 111.921 421.652 111.746 421.281 111.987C419.47 113.163 417.752 114.581 415.882 115.799C415.121 116.296 415.938 117.517 416.683 117.031Z" fill="#CACEDB"/>
<path d="M426.494 109.939C427.355 109.119 428.224 108.294 428.936 107.359C429.563 106.539 430.227 105.682 430.955 104.966C431.593 104.338 430.535 103.317 429.885 103.952C429.099 104.732 428.394 105.582 427.685 106.428C426.981 107.273 426.267 108.116 425.477 108.873C425.158 109.182 425.244 109.597 425.493 109.868C425.741 110.139 426.164 110.258 426.494 109.939Z" fill="#CACEDB"/>
<path d="M434.865 101.346C435.689 100.515 436.557 99.7062 437.274 98.775C437.904 97.9548 438.579 97.1013 439.296 96.3588C439.922 95.7022 438.817 94.733 438.205 95.3716C436.694 96.9342 435.384 98.7379 433.822 100.308C433.192 100.946 434.231 101.985 434.865 101.346Z" fill="#CACEDB"/>
<path d="M442.954 92.3837C443.677 91.4489 444.42 90.5168 444.994 89.4892C445.499 88.5873 446.041 87.6446 446.65 86.8207C447.188 86.1007 445.978 85.2619 445.44 85.9819C444.13 87.7448 443.132 89.7415 441.789 91.4823C441.518 91.8346 441.666 92.2356 441.956 92.4659C442.245 92.6954 442.679 92.7477 442.954 92.3837Z" fill="#CACEDB"/>
<path d="M449.926 82.6046C450.278 82.1184 450.613 81.6211 450.936 81.1127C451.098 80.8603 451.239 80.5968 451.384 80.337C451.525 80.0735 451.666 79.81 451.777 79.5317C451.985 79.0492 452.197 78.5556 452.408 78.0619C452.627 77.572 452.842 77.0858 453.08 76.6219C453.291 76.2174 453.046 75.8574 452.713 75.709C452.375 75.5568 451.952 75.6125 451.748 76.0021C451.625 76.2434 451.507 76.4846 451.392 76.7296L451.043 77.4607C450.82 77.9543 450.579 78.4368 450.349 78.9304C450.104 79.4129 449.863 79.9027 449.592 80.3778C449.321 80.8491 449.043 81.3205 448.723 81.7584C448.219 82.471 449.388 83.3654 449.926 82.6046Z" fill="#CACEDB"/>
<path d="M455.317 71.6858C455.499 71.1216 455.707 70.565 455.878 69.9971C456.052 69.4293 456.204 68.8577 456.304 68.275C456.482 67.2544 456.676 66.1781 456.961 65.1909C457.21 64.3187 455.781 63.9699 455.536 64.8272C455.232 65.8738 455.01 66.9501 454.768 68.0227C454.654 68.5608 454.527 69.0952 454.39 69.6297C454.256 70.1641 454.097 70.6875 453.926 71.2107C453.629 72.0458 455.01 72.5505 455.317 71.6858Z" fill="#CACEDB"/>
<path d="M458.3 59.9505C458.39 59.3642 458.524 58.7778 458.568 58.184C458.628 57.5901 458.672 56.9964 458.672 56.4026C458.686 55.883 458.635 55.3448 458.638 54.8104C458.631 54.2759 458.646 53.7452 458.686 53.2257C458.713 52.3089 457.244 52.3164 457.217 53.1922C457.173 53.7304 457.15 54.2722 457.143 54.8141C457.136 55.3559 457.15 55.9015 457.113 56.4471L457.043 58.0875L457.02 58.4994L456.972 58.9077C456.935 59.1786 456.898 59.4495 456.854 59.7205C456.708 60.5926 458.152 60.8599 458.3 59.9505Z" fill="#CACEDB"/>
<path d="M458.742 47.8033C458.675 47.2132 458.605 46.6194 458.538 46.0256C458.501 45.7287 458.46 45.4355 458.411 45.1423C458.353 44.849 458.275 44.5634 458.193 44.2776C458.044 43.7766 457.9 43.2606 457.774 42.7411C457.644 42.2215 457.484 41.713 457.385 41.2045C457.198 40.3065 455.777 40.6924 455.955 41.5497C456.011 41.8132 456.07 42.0767 456.137 42.3402C456.204 42.6037 456.274 42.8635 456.327 43.1308C456.442 43.6615 456.572 44.1885 456.701 44.7193C456.764 44.9864 456.846 45.2462 456.891 45.5172L457.036 46.3225C457.128 46.8606 457.217 47.4025 457.281 47.9444C457.336 48.8166 458.801 48.7237 458.742 47.8033Z" fill="#CACEDB"/>
<path d="M456.033 35.942L455.729 35.0994L455.578 34.6801L455.399 34.2718C455.158 33.7263 454.898 33.1881 454.605 32.6722C454.36 32.212 454.052 31.7704 453.781 31.3064C453.51 30.8462 453.254 30.3786 453.032 29.911C452.817 29.5065 452.386 29.4916 452.067 29.6735C451.748 29.8553 451.537 30.2301 451.74 30.6199C451.971 31.1097 452.219 31.5885 452.486 32.0598L452.891 32.7687C453.032 33.0025 453.143 33.2512 453.273 33.4887L454.023 34.9473C454.152 35.1885 454.256 35.4409 454.36 35.6933C454.464 35.9457 454.564 36.2017 454.657 36.4578C454.961 37.2817 456.352 36.8067 456.033 35.942Z" fill="#CACEDB"/>
<path d="M450.364 25.1827C450.022 24.6965 449.663 24.2215 449.303 23.7464C448.939 23.2751 448.572 22.8 448.148 22.3917C447.414 21.6606 446.642 20.8886 445.982 20.0907C445.396 19.3893 444.316 20.3913 444.883 21.0668C445.574 21.9018 446.32 22.6961 447.066 23.5051C447.443 23.906 447.785 24.329 448.141 24.7447C448.49 25.1679 448.846 25.5835 449.162 26.0326C449.652 26.7674 450.876 25.951 450.364 25.1827Z" fill="#CACEDB"/>
<path d="M442.323 16.0713C441.426 15.2807 440.505 14.4865 439.458 13.9001C438.998 13.6477 438.524 13.388 438.053 13.1281C437.584 12.8757 437.124 12.6086 436.687 12.3302C436.304 12.0852 435.927 12.2857 435.74 12.6011C435.555 12.9203 435.562 13.3545 435.934 13.5921C436.39 13.8853 436.858 14.1636 437.325 14.4345L438.019 14.8428L438.709 15.2622C439.166 15.5479 439.622 15.8448 440.067 16.1603C440.509 16.4757 440.939 16.8097 441.347 17.1698C441.681 17.4593 442.085 17.3442 442.338 17.0696C442.59 16.8097 442.672 16.3756 442.323 16.0713Z" fill="#CACEDB"/>
<path d="M432.052 9.55425C430.992 9.03472 429.93 8.48911 428.81 8.13282C427.822 7.82106 426.787 7.48333 425.849 7.06023C425.025 6.68909 424.476 8.05118 425.289 8.4186C427.281 9.3167 429.425 9.90687 431.403 10.8755C432.201 11.2689 432.873 9.95881 432.052 9.55425Z" fill="#CACEDB"/>
<path d="M420.958 4.83749C419.845 4.42914 418.717 3.99482 417.533 3.80178C417.014 3.72011 416.484 3.63471 415.949 3.55304C415.422 3.46395 414.884 3.3823 414.387 3.27093C413.504 3.07789 413.247 4.52938 414.12 4.71869C414.661 4.83749 415.177 4.93031 415.708 5.03054C416.235 5.12706 416.766 5.23098 417.296 5.33864C418.357 5.56509 419.418 5.8361 420.446 6.21475C421.278 6.53029 421.819 5.16046 420.958 4.83749Z" fill="#CACEDB"/>
<path d="M409.111 2.18345C407.935 2.03867 406.743 1.87163 405.556 1.93845C405.036 1.96444 404.499 1.99041 403.964 2.02011C403.418 2.04238 402.877 2.06096 402.346 2.08324C401.879 2.10551 401.686 2.49157 401.731 2.85537C401.771 3.22288 402.027 3.57183 402.45 3.55327C402.974 3.53471 403.467 3.5273 404.023 3.51987C404.565 3.51245 405.111 3.50502 405.652 3.4976C406.743 3.49017 407.841 3.51615 408.933 3.64979C409.808 3.75745 410.019 2.29853 409.111 2.18345Z" fill="#CACEDB"/>
<path d="M396.951 2.78854C396.383 2.91476 395.816 3.02243 395.259 3.13009C394.695 3.24145 394.153 3.34168 393.593 3.47533C392.591 3.7092 391.523 3.93936 390.498 4.05815C389.594 4.16952 389.846 5.621 390.717 5.51335C391.794 5.38713 392.873 5.19039 393.964 4.98621C395.096 4.7709 396.187 4.4665 397.27 4.22149C398.153 4.02845 397.827 2.59179 396.951 2.78854Z" fill="#CACEDB"/>
<path d="M385.114 5.41978C384.039 5.97277 383.014 6.52575 382.069 7.12327C381.653 7.38678 381.211 7.62803 380.759 7.82844C380.269 8.05112 379.772 8.24782 379.278 8.42225C378.418 8.75998 379.022 10.0998 379.831 9.7843C380.339 9.60619 380.829 9.42057 381.341 9.20533C381.894 8.9901 382.413 8.71545 382.914 8.43339C383.913 7.86184 384.825 7.22349 385.79 6.72987C386.176 6.52946 386.216 6.1101 386.061 5.77236C385.905 5.44205 385.53 5.20452 385.114 5.41978Z" fill="#CACEDB"/>
<path d="M374.303 10.6304C373.783 10.9199 373.278 11.2391 372.769 11.5509C372.269 11.87 371.787 12.2227 371.33 12.5975C370.937 12.9389 370.529 13.284 370.117 13.6181C369.709 13.9596 369.286 14.2788 368.862 14.5719C368.12 15.0952 369.015 16.2606 369.742 15.7521C370.191 15.4404 370.629 15.1212 371.059 14.7798C371.498 14.4532 371.92 14.108 372.355 13.774C372.792 13.4474 373.219 13.1022 373.672 12.7905C374.121 12.4787 374.569 12.1633 375.048 11.896C375.805 11.4581 375.1 10.1666 374.303 10.6304Z" fill="#CACEDB"/>
<path d="M364.477 17.6673C363.56 18.3983 362.614 19.0924 361.783 19.9089C361.415 20.2688 361.037 20.6252 360.644 20.9815C360.251 21.3415 359.842 21.6829 359.43 21.9983C358.714 22.5662 359.679 23.6796 360.369 23.1303C360.8 22.8 361.219 22.4623 361.63 22.106C362.05 21.7498 362.473 21.3823 362.885 21.0112C363.712 20.2652 364.529 19.5118 365.393 18.8214C366.094 18.2574 365.182 17.1068 364.477 17.6673Z" fill="#CACEDB"/>
<path d="M355.271 25.4537C354.851 25.8694 354.421 26.2813 354.021 26.7193C353.816 26.9346 353.617 27.1535 353.423 27.3761C353.234 27.6026 353.053 27.8364 352.878 28.0739C352.722 28.2817 352.566 28.4933 352.411 28.7086C352.254 28.9238 352.099 29.1391 351.935 29.3506C351.776 29.5621 351.609 29.77 351.442 29.9741C351.279 30.1819 351.112 30.3823 350.941 30.5754C350.336 31.2582 351.487 32.175 352.073 31.5144C352.429 31.1061 352.778 30.6867 353.123 30.2637C353.464 29.8368 353.806 29.41 354.146 28.9795C354.484 28.5453 354.833 28.1259 355.193 27.7065C355.546 27.2834 355.925 26.8863 356.31 26.4966C356.933 25.8731 355.92 24.8079 355.271 25.4537Z" fill="#CACEDB"/>
<path d="M347.45 34.6837C347.101 35.1587 346.755 35.6412 346.418 36.1237C346.084 36.6098 345.772 37.1146 345.494 37.6305C345.257 38.0907 345.012 38.562 344.749 39.0222C344.488 39.4861 344.222 39.9426 343.932 40.3694C343.431 41.1192 344.682 41.8911 345.179 41.1451C345.787 40.2395 346.329 39.2857 346.878 38.3356C347.16 37.8643 347.431 37.3818 347.724 36.9179C348.021 36.454 348.31 35.9863 348.64 35.5447C349.164 34.8284 347.988 33.9488 347.45 34.6837Z" fill="#CACEDB"/>
<path d="M340.919 44.8008C340.31 45.7991 339.657 46.7827 339.167 47.8478C338.737 48.783 338.266 49.7628 337.72 50.6313C337.242 51.3959 338.515 52.1307 338.989 51.3736C340.158 49.5179 341.023 47.4581 342.173 45.5653C342.64 44.7971 341.387 44.0288 340.919 44.8008Z" fill="#CACEDB"/>
<path d="M334.844 55.1555C334.273 56.1798 333.661 57.2042 333.238 58.3101C333.056 58.7963 332.864 59.2936 332.667 59.7909C332.466 60.2845 332.263 60.7781 332.039 61.2457C331.653 62.0809 333.023 62.6227 333.39 61.8284C333.624 61.3423 333.839 60.8487 334.054 60.3514C334.269 59.8503 334.485 59.3493 334.7 58.8482C335.135 57.8425 335.59 56.8367 336.129 55.8717C336.57 55.096 335.29 54.365 334.844 55.1555Z" fill="#CACEDB"/>
<path d="M330.047 66.3453L329.835 67.1803L329.609 68.0117C329.458 68.5647 329.312 69.1251 329.204 69.6929C329.012 70.6913 328.76 71.7416 328.4 72.6991C328.084 73.5416 329.476 74.0129 329.791 73.1705C330.177 72.1388 330.474 71.0625 330.734 69.9713C330.863 69.4257 330.986 68.8765 331.108 68.3271C331.231 67.7779 331.346 67.2249 331.48 66.6831C331.695 65.8443 330.281 65.4323 330.047 66.3453Z" fill="#CACEDB"/>
<path d="M326.515 77.739C326.352 78.3106 326.184 78.8822 326.043 79.4685C325.902 80.0549 325.798 80.645 325.747 81.2389C325.657 82.2817 325.587 83.3728 325.409 84.3861C325.253 85.2768 326.711 85.4735 326.863 84.5939C327.053 83.5176 327.157 82.4339 327.298 81.3538C327.365 80.812 327.446 80.2776 327.547 79.7432C327.651 79.2088 327.773 78.6743 327.924 78.1473C328.177 77.2974 326.775 76.8595 326.515 77.739Z" fill="#CACEDB"/>
<path d="M324.377 89.593C324.273 90.1571 324.144 90.729 324.033 91.2999C323.917 91.8716 323.821 92.4506 323.765 93.0332C323.668 94.0574 323.55 95.1413 323.335 96.1511C323.238 96.5964 323.561 96.8782 323.922 96.9378C324.285 96.9974 324.689 96.8412 324.782 96.4067C325.008 95.3454 325.165 94.2579 325.316 93.1596L325.55 91.5121C325.632 90.9585 325.724 90.4129 325.824 89.8602C325.91 89.4111 325.579 89.1254 325.22 89.0623C324.856 89.0029 324.459 89.1625 324.377 89.593Z" fill="#CACEDB"/>
<path d="M322.415 101.506C322.381 102.097 322.34 102.676 322.311 103.266C322.284 103.852 322.277 104.442 322.314 105.029C322.381 106.06 322.444 107.152 322.407 108.183C322.378 109.096 323.847 109.074 323.877 108.195C323.922 107.111 323.893 106.016 323.866 104.913C323.856 104.361 323.844 103.808 323.84 103.255C323.84 102.701 323.847 102.145 323.881 101.596C323.941 100.72 322.478 100.575 322.415 101.506Z" fill="#CACEDB"/>
<path d="M322.411 113.613C322.478 114.203 322.559 114.823 322.66 115.398C322.76 115.97 322.868 116.541 323.019 117.105C323.283 118.092 323.532 119.15 323.654 120.171C323.762 121.069 325.212 120.839 325.109 119.952C324.982 118.864 324.76 117.777 324.522 116.69L324.155 115.056C324.036 114.515 323.936 113.992 323.876 113.45C323.828 113.015 323.446 112.826 323.079 112.86C322.708 112.89 322.359 113.152 322.411 113.613Z" fill="#CACEDB"/>
<path d="M324.326 125.508C324.544 126.606 324.622 127.772 324.934 128.926C325.205 129.939 325.513 131.019 325.851 132.047C325.999 132.5 326.426 132.575 326.764 132.429C327.101 132.285 327.36 131.943 327.235 131.55C327.079 131.067 326.938 130.578 326.804 130.065C326.671 129.557 326.549 129.038 326.429 128.503C326.196 127.438 325.988 126.331 325.765 125.214C325.676 124.769 325.272 124.628 324.911 124.695C324.552 124.765 324.236 125.07 324.326 125.508Z" fill="#CACEDB"/>
<path d="M327.991 137.001C328.222 137.492 328.451 138.059 328.693 138.594C328.931 139.132 329.201 139.659 329.502 140.164C329.769 140.605 330.047 141.062 330.307 141.526C330.57 141.986 330.826 142.454 331.041 142.921C331.238 143.333 331.665 143.363 331.988 143.188C332.314 143.014 332.537 142.646 332.348 142.245C332.122 141.752 331.865 141.27 331.609 140.788C331.357 140.301 331.082 139.826 330.826 139.34C330.567 138.854 330.296 138.375 330.051 137.881C329.798 137.388 329.569 136.897 329.324 136.371C329.123 135.952 328.689 135.918 328.363 136.081C328.032 136.252 327.81 136.616 327.991 137.001Z" fill="#CACEDB"/>
<path d="M333.509 147.739L333.984 148.492L334.488 149.235C334.823 149.728 335.197 150.196 335.598 150.634C335.943 151.023 336.332 151.398 336.689 151.799C337.041 152.2 337.42 152.582 337.739 152.99C338.025 153.351 338.459 153.261 338.723 153.016C338.997 152.764 339.109 152.36 338.837 152.015C338.507 151.591 338.132 151.202 337.787 150.785C337.439 150.374 337.067 149.977 336.722 149.557L336.195 148.934C336.022 148.722 335.858 148.503 335.691 148.288C335.524 148.069 335.361 147.854 335.197 147.631C335.042 147.405 334.893 147.178 334.745 146.949C334.273 146.202 333.012 146.959 333.509 147.739Z" fill="#CACEDB"/>
<path d="M341.475 156.962C341.939 157.337 342.407 157.737 342.852 158.083C343.301 158.438 343.758 158.791 344.236 159.118C345.079 159.689 345.95 160.335 346.711 161.033C347.383 161.645 348.325 160.513 347.668 159.915C346.867 159.181 345.999 158.491 345.101 157.822C344.652 157.488 344.195 157.158 343.735 156.832C343.264 156.505 342.848 156.179 342.422 155.837C342.076 155.563 341.676 155.688 341.435 155.966C341.186 156.237 341.112 156.672 341.475 156.962Z" fill="#CACEDB"/>
<path d="M351.104 164.318C352.15 164.874 353.164 165.438 354.192 165.902C354.414 166.002 354.652 166.113 354.893 166.232C355.13 166.351 355.368 166.47 355.609 166.585C356.084 166.826 356.555 167.071 356.997 167.338C357.783 167.799 358.466 166.496 357.705 166.051C357.242 165.772 356.766 165.513 356.288 165.252C355.805 164.992 355.338 164.744 354.818 164.477C353.798 163.964 352.763 163.534 351.794 163.018C351.015 162.602 350.292 163.883 351.104 164.318Z" fill="#CACEDB"/>
<path d="M361.716 169.966C362.792 170.452 363.872 170.961 365.011 171.276C366.013 171.551 367.063 171.844 368.028 172.215C368.881 172.538 369.338 171.139 368.51 170.827C367.497 170.433 366.454 170.111 365.408 169.773C364.885 169.606 364.366 169.428 363.846 169.242C363.33 169.057 362.818 168.853 362.318 168.626C361.512 168.255 360.885 169.588 361.716 169.966Z" fill="#CACEDB"/>
<path d="M373.118 174.015C374.258 174.316 375.405 174.647 376.574 174.781C377.601 174.899 378.681 175.033 379.682 175.27C380.562 175.478 380.844 174.03 379.972 173.826C377.845 173.321 375.623 173.154 373.494 172.594C372.637 172.363 372.235 173.782 373.118 174.015Z" fill="#CACEDB"/>
<path d="M384.899 176.506C386.057 176.71 387.219 176.951 388.395 176.996C389.426 177.04 390.518 177.088 391.537 177.245C392.436 177.378 392.588 175.916 391.708 175.782C389.557 175.455 387.33 175.436 385.151 175.054C384.276 174.902 384.009 176.35 384.899 176.506Z" fill="#CACEDB"/>
<path d="M396.888 177.945C397.482 177.972 398.076 178.005 398.669 178.009C399.263 178.012 399.864 177.994 400.442 177.924C401.467 177.801 402.55 177.678 403.575 177.682C404.476 177.682 404.421 176.212 403.53 176.212C402.436 176.209 401.337 176.297 400.239 176.383C399.689 176.424 399.148 176.464 398.598 176.483C398.049 176.506 397.504 176.506 396.955 176.48C396.51 176.461 396.269 176.81 396.246 177.178C396.228 177.541 396.431 177.924 396.888 177.945Z" fill="#CACEDB"/>
<path d="M408.936 177.701C410.105 177.642 411.285 177.63 412.439 177.441C413.452 177.274 414.527 177.122 415.552 177.104C416.45 177.085 416.372 175.615 415.474 175.633C413.274 175.677 411.077 176.124 408.866 176.231C407.968 176.275 408.034 177.746 408.936 177.701Z" fill="#CACEDB"/>
<path d="M420.91 177.063C421.496 177.014 422.09 176.993 422.68 176.929C423.266 176.866 423.856 176.803 424.431 176.669C424.936 176.554 425.459 176.451 425.978 176.347C426.498 176.242 427.021 176.168 427.533 176.108C428.435 176.008 428.212 174.553 427.329 174.65C426.787 174.713 426.246 174.78 425.704 174.873C425.166 174.966 424.624 175.058 424.083 175.151C423.541 175.248 422.995 175.329 422.454 175.415C421.908 175.492 421.362 175.548 420.814 175.593C420.368 175.626 420.167 176.001 420.19 176.368C420.205 176.736 420.454 177.096 420.91 177.063Z" fill="#CACEDB"/>
<path d="M432.865 175.5C434.019 175.296 435.192 175.126 436.313 174.784C437.295 174.48 438.338 174.179 439.351 174.012C440.238 173.863 439.948 172.423 439.062 172.568C436.895 172.928 434.783 173.667 432.609 174.053C431.726 174.209 431.974 175.66 432.865 175.5Z" fill="#CACEDB"/>
<path d="M444.631 173.199C445.777 172.97 446.946 172.784 448.064 172.416C449.043 172.093 450.082 171.766 451.091 171.566C451.978 171.388 451.629 169.958 450.757 170.133C448.616 170.56 446.516 171.321 444.345 171.756C443.462 171.93 443.748 173.374 444.631 173.199Z" fill="#CACEDB"/>
<path d="M456.357 170.467C456.924 170.308 457.496 170.152 458.06 169.977C458.623 169.803 459.184 169.602 459.721 169.365C460.193 169.145 460.682 168.938 461.169 168.723C461.659 168.515 462.152 168.322 462.642 168.151C463.506 167.858 462.958 166.492 462.122 166.774C461.611 166.952 461.098 167.137 460.594 167.342C460.086 167.546 459.577 167.746 459.069 167.95C458.557 168.147 458.048 168.359 457.529 168.541C457.013 168.73 456.49 168.904 455.959 169.053C455.098 169.294 455.477 170.716 456.357 170.467Z" fill="#CACEDB"/>
<path d="M467.696 166.329C468.771 165.865 469.87 165.442 470.883 164.867C471.773 164.362 472.731 163.853 473.688 163.493C474.527 163.181 473.974 161.816 473.124 162.135C471.054 162.914 469.143 164.098 467.113 164.978C466.293 165.33 466.868 166.685 467.696 166.329Z" fill="#CACEDB"/>
<path d="M478.742 161.678C479.822 161.196 480.916 160.732 481.911 160.105C482.782 159.556 483.711 158.984 484.638 158.553C485.454 158.175 484.794 156.861 483.977 157.24C481.981 158.164 480.155 159.44 478.141 160.335C477.736 160.517 477.677 160.94 477.822 161.277C477.967 161.615 478.326 161.864 478.742 161.678Z" fill="#CACEDB"/>
<path d="M489.524 156.416C490.055 156.16 490.585 155.904 491.116 155.647C491.647 155.392 492.156 155.095 492.649 154.771C493.079 154.486 493.524 154.201 493.981 153.926C494.434 153.655 494.89 153.384 495.35 153.154C496.158 152.749 495.446 151.461 494.649 151.858C494.159 152.1 493.684 152.374 493.205 152.642C492.727 152.913 492.255 153.191 491.78 153.476C491.309 153.762 490.838 154.051 490.352 154.315C489.869 154.583 489.384 154.846 488.886 155.087C488.081 155.484 488.708 156.813 489.524 156.416Z" fill="#CACEDB"/>
<path d="M500.141 150.741C500.649 150.444 501.157 150.148 501.662 149.851C502.17 149.55 502.66 149.227 503.124 148.867C503.531 148.552 503.955 148.228 504.385 147.924C504.82 147.624 505.254 147.32 505.695 147.06C506.47 146.599 505.673 145.363 504.905 145.816C504.434 146.095 503.977 146.399 503.517 146.699C503.06 147.004 502.608 147.32 502.159 147.642C501.71 147.966 501.257 148.281 500.797 148.585C500.337 148.89 499.873 149.19 499.398 149.472C498.626 149.925 499.358 151.202 500.141 150.741Z" fill="#CACEDB"/>
<path d="M510.314 144.328C511.279 143.664 512.296 143.051 513.175 142.275C513.951 141.592 514.79 140.906 515.639 140.327C516.389 139.826 515.527 138.631 514.781 139.128C513.877 139.744 513.001 140.413 512.14 141.106C511.279 141.797 510.404 142.476 509.49 143.104C509.123 143.356 509.134 143.783 509.342 144.091C509.547 144.399 509.94 144.584 510.314 144.328Z" fill="#CACEDB"/>
<path d="M520.106 137.373C521.042 136.668 522.021 136.003 522.867 135.195C523.613 134.482 524.418 133.754 525.245 133.149C525.973 132.619 525.067 131.461 524.344 131.988C523.457 132.633 522.615 133.346 521.784 134.078C521.368 134.441 520.945 134.801 520.522 135.157C520.099 135.514 519.668 135.862 519.224 136.193C518.507 136.723 519.379 137.907 520.106 137.373Z" fill="#CACEDB"/>
<path d="M529.605 130.039C530.065 129.675 530.525 129.308 530.986 128.944C531.442 128.573 531.888 128.191 532.295 127.771C533.019 127.037 533.794 126.276 534.6 125.638C535.308 125.08 534.355 123.96 533.653 124.513C532.796 125.192 531.984 125.939 531.179 126.692C530.374 127.449 529.554 128.198 528.693 128.892C527.984 129.442 528.896 130.596 529.605 130.039Z" fill="#CACEDB"/>
<path d="M538.811 122.308C539.249 121.919 539.702 121.536 540.129 121.136C540.559 120.735 540.982 120.323 541.368 119.885C541.705 119.495 542.05 119.091 542.414 118.705C542.774 118.315 543.152 117.948 543.528 117.599C544.196 116.987 543.16 115.94 542.503 116.541C542.103 116.913 541.701 117.287 541.319 117.68C540.934 118.071 540.562 118.479 540.18 118.875L539.03 120.067C538.644 120.464 538.244 120.843 537.831 121.21C537.163 121.804 538.133 122.91 538.811 122.308Z" fill="#CACEDB"/>
<path d="M547.482 113.958C547.887 113.531 548.295 113.105 548.704 112.677C549.104 112.247 549.478 111.787 549.824 111.315C550.125 110.893 550.447 110.477 550.763 110.046C551.082 109.624 551.416 109.211 551.765 108.832C552.377 108.165 551.241 107.226 550.64 107.882C550.273 108.283 549.92 108.703 549.579 109.13C549.238 109.557 548.893 109.987 548.551 110.418C548.206 110.847 547.876 111.289 547.516 111.709C547.16 112.128 546.796 112.544 546.417 112.948C546.114 113.275 546.221 113.691 546.484 113.947C546.752 114.196 547.174 114.289 547.482 113.958Z" fill="#CACEDB"/>
<path d="M555.323 104.788C555.691 104.323 556.031 103.841 556.384 103.366C556.726 102.884 557.07 102.4 557.341 101.878C557.586 101.421 557.842 100.954 558.113 100.497C558.388 100.048 558.666 99.577 558.948 99.1425C559.196 98.756 558.996 98.3775 558.677 98.196C558.358 98.0144 557.924 98.018 557.687 98.3856C557.397 98.8382 557.107 99.2907 556.818 99.7432C556.529 100.207 556.247 100.675 555.968 101.15C555.691 101.626 555.386 102.082 555.093 102.55C554.788 103.009 554.495 103.477 554.15 103.908C553.605 104.605 554.767 105.508 555.323 104.788Z" fill="#CACEDB"/>
<path d="M561.72 94.5334C561.99 94.0285 562.283 93.5164 562.562 93.0594C562.851 92.5924 563.163 92.1318 563.456 91.6422C563.972 90.7841 564.607 89.8975 565.263 89.0847C565.553 88.7248 565.393 88.3239 565.093 88.1161C564.792 87.9046 564.369 87.8674 564.094 88.2015C563.422 89.0254 562.747 89.9049 562.113 90.851C561.798 91.3261 561.497 91.8201 561.211 92.3287C560.925 92.848 560.684 93.3376 560.417 93.8352C559.994 94.6409 561.301 95.3165 561.72 94.5334Z" fill="#CACEDB"/>
<path d="M568.08 84.3601C568.536 83.269 569.011 82.1667 569.27 81.0014C569.381 80.4855 569.497 79.9547 569.612 79.4241C569.727 78.8414 569.771 78.307 569.85 77.7911C569.916 77.342 569.593 77.0822 569.245 77.0414C568.892 77.0005 568.51 77.1899 568.443 77.624C568.362 78.1548 568.298 78.6818 568.195 79.1234C568.068 79.6356 567.927 80.1627 567.786 80.6859C567.497 81.7325 567.167 82.7828 566.744 83.7998C566.391 84.6163 567.724 85.2026 568.08 84.3601Z" fill="#CACEDB"/>
<path d="M611.455 80.144L604.725 68.7057L606.324 65.603C606.636 64.998 606.361 64.2335 605.715 63.8995L602.932 62.4669C602.331 62.1588 601.619 62.3296 601.27 62.8381L598.112 57.4715L599.363 55.0442C599.697 54.3985 599.441 53.5968 598.791 53.2628L596.008 51.8302C595.615 51.626 595.162 51.6446 594.792 51.8376L591.411 46.0924C593.771 41.5126 595.437 38.2801 595.492 38.1687C597.919 33.459 599.515 24.4887 596.565 22.9708C593.615 21.4491 587.237 27.9551 584.81 32.6648C584.755 32.7762 583.089 36.005 580.728 40.5885L574.087 41.1675C574.027 40.7555 573.782 40.377 573.385 40.1729L570.603 38.7403C569.957 38.4062 569.155 38.6623 568.822 39.3118L567.571 41.7391L561.371 42.2809C561.583 41.7019 561.308 41.0227 560.71 40.711L557.928 39.2784C557.282 38.9444 556.495 39.1671 556.188 39.772L554.588 42.8747L541.371 44.0289C539.917 44.1551 538.651 45.0756 538.08 46.419L537.972 46.6751C536.967 49.0504 538.47 51.7374 541.019 52.1197L550.377 53.5225C550.098 55.0479 550.18 56.269 550.963 56.6809C551.998 57.2265 553.401 55.9646 554.748 54.1795L562.347 55.3189C562.291 56.2987 562.477 57.0298 563.033 57.323C563.82 57.7349 564.848 57.0484 565.916 55.8533L572.366 56.8182C568.046 65.2022 564.239 72.5877 564.154 72.7547C563.281 74.4508 562.47 76.7853 561.927 79.1531L547.746 80.7267C547.179 80.7898 546.67 81.1053 546.362 81.5841C545.608 82.7494 546.317 84.3045 547.69 84.5012L561.137 86.4088C559.564 90.4391 557.994 95.2081 559.196 95.62C560.377 96.0247 563.219 92.1498 565.49 88.6616L574.829 98.4932C575.786 99.4985 577.463 99.176 577.976 97.8844C578.187 97.3533 578.146 96.7563 577.868 96.2586L570.922 83.7923C572.532 81.9774 573.968 79.9584 574.84 78.2661C574.926 78.0991 578.732 70.7135 583.052 62.3295L587.578 67.0207C587.225 68.5832 587.262 69.8228 588.053 70.2198C588.614 70.5019 589.318 70.2273 590.083 69.615L595.418 75.1449C594.743 77.2789 594.531 79.1494 595.575 79.6801C596.365 80.0809 597.403 79.4389 598.487 78.3255L605.058 85.1358C606.851 86.9915 609.912 86.6575 611.259 84.4603L611.403 84.2228C612.183 82.9646 612.197 81.4021 611.455 80.144Z" fill="#CACEDB"/>
<path d="M194.269 39.2784C194.269 33.0434 189.215 27.9885 182.982 27.9885C176.748 27.9885 171.694 33.0434 171.694 39.2784C171.694 39.2784 171.579 39.85 171.861 41.2232C171.995 41.9877 172.203 42.7299 172.481 43.4352C173.643 46.8198 176.418 52.5539 182.982 61.6133C189.546 52.5539 192.321 46.8198 193.482 43.4352C193.761 42.7299 193.972 41.9914 194.102 41.2232C194.384 39.8462 194.269 39.2784 194.269 39.2784ZM182.978 46.1259C179.197 46.1259 176.132 43.0602 176.132 39.2784C176.132 35.4965 179.197 32.431 182.978 32.431C186.759 32.431 189.824 35.4965 189.824 39.2784C189.828 43.0602 186.759 46.1259 182.978 46.1259Z" fill="#CACEDB"/>
<path d="M185.505 66.4305C185.505 67.826 184.373 68.958 182.978 68.958C181.582 68.958 180.451 67.826 180.451 66.4305C180.451 65.0351 181.582 63.9031 182.978 63.9031C184.373 63.9031 185.505 65.0351 185.505 66.4305Z" fill="#CACEDB"/>
<path d="M18.2306 333.172C18.3085 332.909 18.3902 332.645 18.4866 332.393C18.5794 332.137 18.6795 331.899 18.7946 331.625C19.0173 331.09 19.2324 330.552 19.4068 329.999C19.5626 329.517 19.7333 329.023 19.93 328.537C20.1266 328.054 20.3382 327.576 20.5868 327.134C20.7983 326.745 20.5905 326.384 20.2677 326.214C19.9448 326.043 19.507 326.073 19.2881 326.474C18.75 327.453 18.3271 328.492 17.9374 329.543L17.366 331.12C17.2733 331.376 17.1657 331.669 17.0804 331.944C16.9912 332.222 16.9134 332.501 16.8355 332.779C16.7093 333.232 17.0099 333.54 17.3623 333.625C17.7148 333.707 18.1155 333.58 18.2306 333.172Z" fill="#CACEDB"/>
<path d="M23.4327 322.706C23.7481 322.228 24.0858 321.763 24.416 321.295C24.7462 320.828 25.0801 320.361 25.3807 319.871C25.6479 319.444 25.9336 319.009 26.2453 318.579C26.5532 318.152 26.8723 317.737 27.2099 317.351C27.8037 316.679 26.6757 315.743 26.0819 316.423C25.7184 316.838 25.3733 317.269 25.0394 317.707C24.7054 318.141 24.3788 318.605 24.0597 319.069L23.5886 319.774L23.1284 320.483L22.2157 321.901C21.9597 322.279 22.1526 322.673 22.4606 322.865C22.7648 323.066 23.1878 323.074 23.4327 322.706Z" fill="#CACEDB"/>
<path d="M30.8352 313.476C31.221 313.049 31.6255 312.634 32.0225 312.214C32.4232 311.803 32.8091 311.372 33.1765 310.934C33.3398 310.74 33.4993 310.541 33.6737 310.351C33.8481 310.161 34.0262 309.973 34.2043 309.787C34.5605 309.408 34.9576 309.078 35.3471 308.759C35.6959 308.491 35.6514 308.079 35.425 307.79C35.2024 307.504 34.7831 307.345 34.4158 307.627C33.9779 307.979 33.5401 308.34 33.1431 308.737C32.9427 308.933 32.7386 309.134 32.542 309.334L31.9706 309.957C31.5847 310.37 31.2322 310.807 30.8537 311.227C30.49 311.654 30.1191 312.077 29.7443 312.493C29.1469 313.172 30.2452 314.137 30.8352 313.476Z" fill="#CACEDB"/>
<path d="M39.7774 306.054L40.5344 305.682L40.9129 305.497L41.3136 305.311C41.8442 305.063 42.3674 304.799 42.8683 304.498C43.7477 303.968 44.6865 303.433 45.6326 303.051C46.4601 302.717 45.8813 301.373 45.0389 301.711C44.0111 302.127 43.0315 302.647 42.0557 303.177L40.5938 303.968C40.104 304.22 39.5957 304.51 39.0911 304.762C38.2784 305.222 39.0354 306.48 39.7774 306.054Z" fill="#CACEDB"/>
<path d="M50.601 301.311C51.6437 300.969 52.7532 300.814 53.8626 300.547C54.8385 300.309 55.9071 300.123 56.9349 300.049C57.3875 300.015 57.5731 299.63 57.5286 299.266C57.4841 298.902 57.2206 298.56 56.7791 298.59C55.6992 298.668 54.5936 298.821 53.4767 299.039C52.9201 299.155 52.3598 299.277 51.8069 299.426C51.2504 299.57 50.6976 299.734 50.1484 299.915C49.6957 300.064 49.6178 300.491 49.744 300.832C49.8701 301.182 50.2115 301.441 50.601 301.311Z" fill="#CACEDB"/>
<path d="M62.1704 299.47C62.6639 299.451 63.1797 299.53 63.7177 299.63L64.1518 299.707C64.3003 299.734 64.4524 299.755 64.6007 299.774C64.9013 299.811 65.1982 299.838 65.4913 299.848C66.5302 299.889 67.5989 299.926 68.5561 300.179C68.9755 300.286 69.276 299.996 69.3687 299.641C69.4616 299.287 69.328 298.861 68.8715 298.746C68.315 298.601 67.7472 298.512 67.1908 298.445C66.6305 298.382 66.0813 298.341 65.5358 298.293C65.265 298.27 64.9941 298.245 64.7269 298.215C64.4524 298.186 64.2075 298.152 63.9106 298.107C63.3355 298.029 62.7307 297.974 62.1148 297.996C61.6101 298.018 61.4283 298.43 61.484 298.791C61.5434 299.162 61.7994 299.484 62.1704 299.47Z" fill="#CACEDB"/>
<path d="M73.3835 302.082C73.8992 302.32 74.4039 302.58 74.9048 302.847C75.4094 303.11 75.9066 303.377 76.4187 303.618C76.8676 303.834 77.3278 304.068 77.7619 304.338C78.1998 304.606 78.6042 304.922 78.9863 305.233C79.3054 305.53 79.7062 305.404 79.9473 305.13C80.1885 304.855 80.2628 304.42 79.9177 304.101C79.6988 303.916 79.4724 303.741 79.2461 303.567C79.0198 303.393 78.786 303.222 78.5448 303.069C78.0662 302.754 77.569 302.476 77.0681 302.205C76.5597 301.941 76.0513 301.689 75.5356 301.455C75.0235 301.21 74.5041 300.984 73.9921 300.746C73.5727 300.556 73.2165 300.806 73.0718 301.14C72.9271 301.481 72.9865 301.9 73.3835 302.082Z" fill="#CACEDB"/>
<path d="M82.4297 309.119C82.7748 309.572 83.1273 310.02 83.4538 310.488C83.6208 310.722 83.7952 310.949 83.9659 311.175C84.1328 311.405 84.3109 311.632 84.4928 311.85C84.823 312.232 85.1235 312.656 85.4278 313.075C85.7247 313.502 85.9918 313.948 86.2293 314.393C86.6226 315.183 87.925 314.497 87.5131 313.677C87.2497 313.183 86.9714 312.697 86.6597 312.225C86.3443 311.757 86.0289 311.29 85.6801 310.845L85.1681 310.17L84.6337 309.508C84.2887 309.059 83.9102 308.64 83.5688 308.191C83.2795 307.835 82.8453 307.898 82.567 308.135C82.2887 308.38 82.1552 308.778 82.4297 309.119Z" fill="#CACEDB"/>
<path d="M88.3479 319.229C88.5743 319.759 88.7969 320.294 89.0158 320.829C89.2384 321.359 89.4685 321.893 89.7393 322.409C90.2069 323.315 90.6781 324.291 90.9864 325.26C91.1238 325.682 91.5351 325.775 91.8804 325.656C92.2258 325.534 92.5114 325.197 92.3704 324.766C92.0323 323.708 91.5794 322.691 91.112 321.678L90.3962 320.16C90.1624 319.652 89.9138 319.147 89.6986 318.635C89.3201 317.807 87.9843 318.423 88.3479 319.229Z" fill="#CACEDB"/>
<path d="M92.3813 330.374C92.5449 330.927 92.6778 331.491 92.8305 332.047C92.9716 332.608 93.1343 333.161 93.3196 333.707C93.4905 334.185 93.6387 334.683 93.7797 335.184C93.9063 335.688 94.0247 336.197 94.0808 336.698C94.1919 337.573 95.6465 337.374 95.5317 336.461C95.4648 335.903 95.35 335.354 95.227 334.809C95.0932 334.263 94.9486 333.721 94.7859 333.184C94.6295 332.642 94.4514 332.111 94.2887 331.572C94.1142 331.039 93.9542 330.504 93.7951 329.966C93.6722 329.528 93.2536 329.416 92.9011 329.52C92.5485 329.628 92.2592 329.947 92.3813 330.374Z" fill="#CACEDB"/>
<path d="M94.5707 342.016C94.7416 343.178 94.8781 344.355 95.1972 345.487C95.3382 345.983 95.4792 346.492 95.6022 347.008C95.7278 347.528 95.8354 348.025 95.8842 348.526C95.9321 348.96 96.3109 349.138 96.6779 349.094C97.0413 349.049 97.3939 348.779 97.3388 348.318C97.3125 348.036 97.2646 347.754 97.2158 347.475C97.1679 347.197 97.1118 346.934 97.0567 346.663C96.9419 346.125 96.8153 345.587 96.6888 345.052C96.4366 343.975 96.1844 342.9 96.0216 341.805C95.8951 340.914 94.4369 341.119 94.5707 342.016Z" fill="#CACEDB"/>
<path d="M96.1292 353.826C96.2286 355.002 96.3109 356.216 96.6634 357.378C96.8262 357.912 96.9789 358.346 97.0675 358.844C97.1606 359.337 97.2049 359.845 97.2085 360.35C97.2122 361.241 98.682 361.2 98.6775 360.29C98.6739 359.73 98.6332 359.155 98.5374 358.573C98.4922 358.283 98.4289 357.99 98.3548 357.696L98.1478 356.91C98.0176 356.39 97.8992 355.863 97.8061 355.325C97.713 354.791 97.6388 354.245 97.5909 353.7C97.5204 352.813 96.0551 352.917 96.1292 353.826Z" fill="#CACEDB"/>
<path d="M97.5611 365.758C97.6461 366.322 97.7058 366.882 97.7501 367.435L97.8097 368.267C97.8323 368.541 97.8468 368.816 97.8766 369.12C97.9318 369.64 97.9914 370.174 98.0511 370.708C98.1062 371.239 98.155 371.77 98.1731 372.29C98.2138 373.199 99.6801 373.066 99.6394 372.182C99.6204 371.64 99.5797 371.102 99.539 370.56C99.4947 370.022 99.4532 369.48 99.4242 368.942C99.3944 368.385 99.342 367.792 99.2678 367.224C99.1937 366.652 99.1006 366.092 99.0156 365.531C98.8674 364.626 97.4201 364.893 97.5611 365.758Z" fill="#CACEDB"/>
<path d="M98.4109 377.634C98.4552 378.21 98.4886 378.789 98.5184 379.359C98.5591 379.938 98.6034 380.543 98.7155 381.122C98.8077 381.635 98.9081 382.158 98.9976 382.685C99.0789 383.213 99.1639 383.735 99.2046 384.251C99.2941 385.157 100.749 384.949 100.663 384.07C100.618 383.528 100.544 382.989 100.474 382.448C100.396 381.909 100.318 381.367 100.244 380.825C100.17 380.28 100.103 379.75 100.043 379.189C99.9874 378.629 99.925 378.072 99.8798 377.515C99.7985 376.61 98.3367 376.747 98.4109 377.634Z" fill="#CACEDB"/>
<path d="M99.7876 389.599C99.9919 390.757 100.165 391.926 100.511 393.047C100.815 394.03 101.116 395.074 101.279 396.083C101.42 396.97 102.863 396.691 102.722 395.801C102.374 393.626 101.625 391.514 101.239 389.339C101.079 388.464 99.6276 388.709 99.7876 389.599Z" fill="#CACEDB"/>
<path d="M102.08 401.39C102.337 402.544 102.57 403.718 103.012 404.82C103.402 405.789 103.813 406.805 104.136 407.797C104.277 408.23 104.696 408.316 105.042 408.182C105.382 408.049 105.654 407.711 105.52 407.295C104.864 405.258 103.991 403.224 103.517 401.071C103.328 400.203 101.884 400.499 102.08 401.39Z" fill="#CACEDB"/>
<path d="M106.258 412.828C106.849 413.856 107.42 414.889 108.11 415.816C108.411 416.225 108.715 416.652 108.993 417.089C109.279 417.527 109.509 417.972 109.758 418.447C110.177 419.276 111.442 418.522 111.052 417.754C110.815 417.298 110.548 416.766 110.259 416.295C109.969 415.813 109.661 415.345 109.349 414.881C108.723 413.957 108.081 413.052 107.535 412.098C107.101 411.329 105.805 412.031 106.258 412.828Z" fill="#CACEDB"/>
<path d="M112.57 423.142C112.949 423.607 113.323 424.078 113.716 424.527C113.917 424.746 114.125 424.965 114.333 425.176C114.541 425.391 114.759 425.596 114.989 425.782C115.39 426.119 115.798 426.464 116.207 426.809C116.614 427.154 117.004 427.518 117.379 427.871C118.036 428.509 119.004 427.399 118.37 426.787C117.976 426.412 117.586 426.037 117.182 425.678C116.77 425.321 116.385 424.942 115.973 424.583C115.569 424.215 115.186 423.829 114.797 423.447C114.425 423.05 114.054 422.649 113.713 422.226C113.19 421.532 112.002 422.401 112.57 423.142Z" fill="#CACEDB"/>
<path d="M121.341 431.538C122.269 432.265 123.178 433.026 124.188 433.623C124.629 433.887 125.082 434.162 125.523 434.451C125.746 434.596 125.962 434.744 126.177 434.892C126.392 435.045 126.618 435.197 126.826 435.353C127.011 435.49 127.205 435.52 127.371 435.471C127.542 435.42 127.687 435.297 127.787 435.142C127.887 434.985 127.939 434.804 127.924 434.626C127.913 434.443 127.835 434.273 127.665 434.143C127.453 433.984 127.242 433.838 127.019 433.676C126.796 433.512 126.574 433.352 126.347 433.197C125.891 432.885 125.435 432.581 124.971 432.277C124.047 431.672 123.123 431.059 122.254 430.38C121.56 429.827 120.633 430.97 121.341 431.538Z" fill="#CACEDB"/>
<path d="M131.527 438.177C132.076 438.408 132.625 438.649 133.185 438.853C133.467 438.957 133.746 439.054 134.032 439.147C134.314 439.235 134.603 439.306 134.892 439.372C135.401 439.492 135.924 439.599 136.44 439.729C136.955 439.859 137.471 439.989 137.958 440.153C138.822 440.427 139.211 439.009 138.365 438.738C137.85 438.563 137.323 438.422 136.8 438.274C136.273 438.133 135.746 437.992 135.219 437.847C134.689 437.71 134.165 437.55 133.646 437.387C133.126 437.22 132.614 437.03 132.11 436.819C131.304 436.466 130.677 437.799 131.527 438.177Z" fill="#CACEDB"/>
<path d="M143.078 441.762C143.642 441.908 144.21 442.056 144.777 442.2C145.338 442.341 145.935 442.468 146.521 442.538C147.56 442.661 148.655 442.769 149.679 442.947C150.132 443.025 150.402 442.695 150.444 442.331C150.488 441.963 150.313 441.57 149.883 441.491C148.825 441.306 147.757 441.165 146.681 440.99C146.142 440.902 145.608 440.805 145.059 440.697C144.513 440.59 143.972 440.471 143.434 440.337C142.566 440.114 142.202 441.54 143.078 441.762Z" fill="#CACEDB"/>
<path d="M155.04 443.578C156.135 443.633 157.252 443.889 158.428 443.963C159.482 444.03 160.592 444.101 161.641 444.164C162.109 444.194 162.339 443.83 162.335 443.462C162.335 443.095 162.117 442.72 161.694 442.694C161.17 442.657 160.654 442.619 160.128 442.572C159.589 442.516 159.051 442.464 158.51 442.408C157.411 442.29 156.276 442.167 155.123 442.107C154.643 442.086 154.421 442.452 154.414 442.82C154.409 443.006 154.462 443.188 154.577 443.329C154.681 443.474 154.832 443.566 155.04 443.578Z" fill="#CACEDB"/>
<path d="M167.096 444.035C167.674 443.956 168.258 443.882 168.836 443.805C169.415 443.722 169.99 443.63 170.558 443.488C171.556 443.247 172.617 443.013 173.637 442.909C174.536 442.816 174.331 441.361 173.441 441.451C172.35 441.562 171.262 441.762 170.176 441.978C169.088 442.19 167.99 442.42 166.899 442.572C166.02 442.694 166.19 444.157 167.096 444.035Z" fill="#CACEDB"/>
<path d="M178.984 442.349C179.281 442.297 179.559 442.249 179.838 442.209L180.684 442.089C181.251 442.012 181.823 441.929 182.387 441.808C183.385 441.592 184.457 441.403 185.488 441.31C185.945 441.269 186.123 440.875 186.068 440.511C186.012 440.148 185.749 439.81 185.31 439.848C184.235 439.944 183.147 440.1 182.045 440.286C181.496 440.378 180.94 440.478 180.387 440.586L178.728 440.902C177.852 441.053 178.087 442.505 178.984 442.349Z" fill="#CACEDB"/>
<path d="M190.873 440.319C192.004 439.955 193.129 439.606 194.183 439.124C195.11 438.693 196.108 438.27 197.092 437.988C197.956 437.743 197.507 436.344 196.643 436.589C195.581 436.893 194.546 437.294 193.519 437.717C192.487 438.137 191.47 438.582 190.424 438.92C190.001 439.057 189.897 439.469 190.005 439.821C190.109 440.174 190.439 440.46 190.873 440.319Z" fill="#CACEDB"/>
<path d="M202.253 436.615C203.37 436.263 204.509 435.955 205.578 435.475C206.516 435.052 207.518 434.621 208.498 434.322C208.932 434.191 209.025 433.771 208.902 433.426C208.78 433.078 208.45 432.803 208.019 432.93C205.93 433.572 203.923 434.547 201.807 435.216C200.954 435.483 201.396 436.886 202.253 436.615Z" fill="#CACEDB"/>
<path d="M213.63 432.699C214.178 432.484 214.728 432.265 215.277 432.038C215.823 431.812 216.352 431.549 216.869 431.26C217.321 431.003 217.778 430.725 218.245 430.476C218.716 430.227 219.18 429.972 219.651 429.76C220.483 429.381 219.797 428.078 218.995 428.446C218.501 428.668 218.018 428.921 217.533 429.166C217.047 429.411 216.568 429.682 216.078 429.926C215.589 430.176 215.106 430.439 214.605 430.669C214.108 430.903 213.607 431.137 213.095 431.337C212.256 431.652 212.78 433.025 213.63 432.699Z" fill="#CACEDB"/>
<path d="M224.501 427.452C225.525 426.884 226.579 426.353 227.533 425.681C228.371 425.092 229.273 424.49 230.185 424.041C230.987 423.647 230.308 422.345 229.492 422.742C227.503 423.718 225.726 425.092 223.789 426.164C223.006 426.598 223.711 427.89 224.501 427.452Z" fill="#CACEDB"/>
<path d="M235.005 421.662C236.022 421.068 237.065 420.492 237.988 419.754C238.798 419.105 239.651 418.426 240.52 417.861C241.28 417.36 240.416 416.168 239.677 416.655C237.859 417.835 236.171 419.279 234.263 420.392C233.492 420.837 234.215 422.118 235.005 421.662Z" fill="#CACEDB"/>
<path d="M245.012 415.022C245.985 414.391 247.005 413.808 247.921 413.07C248.727 412.42 249.584 411.749 250.453 411.181C250.834 410.933 250.809 410.505 250.594 410.208C250.379 409.912 249.981 409.737 249.61 409.979C247.799 411.155 246.081 412.573 244.211 413.789C243.45 414.287 244.267 415.508 245.012 415.022Z" fill="#CACEDB"/>
<path d="M254.823 407.929C255.684 407.109 256.553 406.285 257.265 405.351C257.892 404.53 258.556 403.672 259.284 402.956C259.922 402.329 258.864 401.309 258.214 401.944C257.428 402.723 256.723 403.572 256.014 404.418C255.31 405.265 254.597 406.107 253.806 406.864C253.487 407.172 253.573 407.588 253.822 407.859C254.07 408.13 254.493 408.249 254.823 407.929Z" fill="#CACEDB"/>
<path d="M263.194 399.338C264.018 398.507 264.887 397.698 265.603 396.766C266.233 395.946 266.908 395.093 267.625 394.35C268.251 393.693 267.146 392.724 266.534 393.363C265.023 394.926 263.713 396.729 262.151 398.299C261.521 398.937 262.56 399.976 263.194 399.338Z" fill="#CACEDB"/>
<path d="M271.283 390.375C272.006 389.44 272.749 388.508 273.324 387.48C273.829 386.579 274.37 385.636 274.979 384.812C275.517 384.092 274.307 383.253 273.769 383.973C272.459 385.736 271.461 387.732 270.118 389.474C269.847 389.826 269.996 390.227 270.285 390.456C270.575 390.687 271.008 390.739 271.283 390.375Z" fill="#CACEDB"/>
<path d="M278.255 380.596C278.607 380.11 278.942 379.612 279.265 379.104C279.427 378.852 279.568 378.588 279.713 378.328C279.854 378.064 279.995 377.801 280.106 377.523C280.314 377.04 280.526 376.547 280.737 376.053C280.956 375.563 281.172 375.077 281.409 374.613C281.62 374.208 281.375 373.849 281.042 373.7C280.704 373.548 280.281 373.603 280.077 373.993C279.954 374.234 279.836 374.476 279.721 374.72L279.372 375.452C279.15 375.945 278.908 376.427 278.678 376.922C278.433 377.404 278.192 377.893 277.921 378.369C277.65 378.84 277.372 379.311 277.052 379.75C276.548 380.462 277.717 381.356 278.255 380.596Z" fill="#CACEDB"/>
<path d="M283.646 369.677C283.828 369.113 284.036 368.556 284.207 367.988C284.381 367.421 284.533 366.849 284.633 366.266C284.811 365.246 285.005 364.169 285.291 363.182C285.539 362.31 284.11 361.961 283.865 362.819C283.561 363.865 283.339 364.941 283.097 366.013C282.983 366.552 282.856 367.086 282.719 367.621C282.585 368.155 282.426 368.679 282.255 369.202C281.958 370.037 283.339 370.541 283.646 369.677Z" fill="#CACEDB"/>
<path d="M286.629 357.942C286.719 357.355 286.853 356.769 286.897 356.175C286.957 355.581 287.001 354.988 287.001 354.393C287.015 353.874 286.964 353.336 286.967 352.802C286.96 352.267 286.975 351.736 287.015 351.217C287.042 350.3 285.573 350.307 285.546 351.183C285.502 351.722 285.479 352.264 285.472 352.805C285.465 353.347 285.479 353.893 285.442 354.438L285.372 356.079L285.349 356.491L285.301 356.899C285.264 357.17 285.227 357.441 285.183 357.712C285.038 358.583 286.481 358.851 286.629 357.942Z" fill="#CACEDB"/>
<path d="M287.071 345.795C287.004 345.205 286.934 344.61 286.867 344.017C286.83 343.72 286.789 343.426 286.741 343.134C286.682 342.84 286.604 342.555 286.522 342.268C286.374 341.768 286.229 341.251 286.103 340.732C285.973 340.213 285.813 339.704 285.714 339.196C285.527 338.298 284.106 338.684 284.284 339.541C284.34 339.804 284.4 340.068 284.466 340.331C284.533 340.595 284.604 340.855 284.656 341.122C284.771 341.652 284.901 342.18 285.03 342.71C285.093 342.977 285.175 343.238 285.22 343.509L285.365 344.313C285.457 344.852 285.546 345.394 285.61 345.936C285.665 346.808 287.131 346.715 287.071 345.795Z" fill="#CACEDB"/>
<path d="M284.362 333.933L284.058 333.091L283.907 332.671L283.728 332.263C283.487 331.717 283.227 331.179 282.934 330.664C282.689 330.203 282.381 329.761 282.11 329.297C281.839 328.837 281.583 328.369 281.361 327.902C281.146 327.498 280.715 327.483 280.396 327.664C280.077 327.847 279.866 328.221 280.069 328.611C280.3 329.101 280.548 329.58 280.816 330.051L281.22 330.759C281.361 330.993 281.472 331.243 281.602 331.48L282.352 332.938C282.481 333.179 282.585 333.432 282.689 333.684C282.793 333.937 282.893 334.193 282.986 334.449C283.29 335.273 284.681 334.798 284.362 333.933Z" fill="#CACEDB"/>
<path d="M278.693 323.174C278.352 322.687 277.992 322.212 277.632 321.737C277.269 321.267 276.901 320.791 276.478 320.383C275.744 319.652 274.972 318.879 274.311 318.082C273.725 317.38 272.645 318.383 273.212 319.058C273.903 319.893 274.649 320.688 275.395 321.496C275.772 321.897 276.114 322.321 276.47 322.736C276.819 323.159 277.175 323.574 277.491 324.024C277.981 324.758 279.205 323.942 278.693 323.174Z" fill="#CACEDB"/>
<path d="M270.652 314.062C269.755 313.272 268.834 312.477 267.788 311.891C267.327 311.639 266.853 311.379 266.382 311.119C265.914 310.867 265.453 310.599 265.016 310.321C264.634 310.076 264.256 310.277 264.069 310.592C263.884 310.911 263.891 311.346 264.263 311.583C264.719 311.877 265.187 312.155 265.654 312.426L266.348 312.834L267.038 313.253C267.495 313.539 267.951 313.836 268.396 314.152C268.838 314.467 269.268 314.801 269.677 315.161C270.01 315.451 270.415 315.335 270.667 315.06C270.92 314.801 271.001 314.367 270.652 314.062Z" fill="#CACEDB"/>
<path d="M260.382 307.546C259.321 307.025 258.259 306.48 257.139 306.124C256.151 305.812 255.116 305.475 254.178 305.051C253.354 304.68 252.805 306.042 253.617 306.409C255.61 307.308 257.754 307.898 259.732 308.866C260.53 309.26 261.202 307.949 260.382 307.546Z" fill="#CACEDB"/>
<path d="M249.287 302.829C248.174 302.42 247.046 301.986 245.862 301.793C245.343 301.711 244.813 301.626 244.278 301.544C243.751 301.455 243.213 301.373 242.716 301.262C241.833 301.069 241.576 302.52 242.449 302.71C242.99 302.829 243.506 302.921 244.037 303.021C244.564 303.118 245.095 303.222 245.625 303.329C246.686 303.556 247.747 303.827 248.775 304.206C249.606 304.522 250.148 303.151 249.287 302.829Z" fill="#CACEDB"/>
<path d="M237.44 300.174C236.264 300.03 235.072 299.863 233.885 299.93C233.365 299.956 232.828 299.981 232.293 300.011C231.747 300.034 231.206 300.053 230.675 300.074C230.208 300.097 230.015 300.482 230.06 300.846C230.1 301.214 230.356 301.563 230.779 301.545C231.303 301.526 231.796 301.518 232.352 301.511C232.894 301.504 233.44 301.496 233.981 301.489C235.072 301.481 236.171 301.508 237.262 301.641C238.138 301.749 238.348 300.29 237.44 300.174Z" fill="#CACEDB"/>
<path d="M225.28 300.78C224.712 300.906 224.145 301.014 223.588 301.121C223.024 301.232 222.482 301.332 221.922 301.466C220.92 301.7 219.852 301.93 218.828 302.05C217.923 302.161 218.175 303.612 219.046 303.505C220.123 303.378 221.202 303.181 222.293 302.977C223.425 302.762 224.516 302.458 225.599 302.213C226.482 302.02 226.156 300.583 225.28 300.78Z" fill="#CACEDB"/>
<path d="M213.443 303.411C212.368 303.964 211.343 304.517 210.398 305.114C209.982 305.378 209.54 305.619 209.088 305.82C208.598 306.042 208.101 306.239 207.607 306.413C206.747 306.751 207.351 308.091 208.16 307.775C208.668 307.597 209.158 307.412 209.67 307.196C210.223 306.981 210.742 306.707 211.243 306.425C212.242 305.853 213.154 305.214 214.119 304.721C214.505 304.521 214.545 304.101 214.39 303.764C214.234 303.433 213.859 303.196 213.443 303.411Z" fill="#CACEDB"/>
<path d="M202.632 308.621C202.112 308.911 201.607 309.23 201.098 309.542C200.598 309.862 200.116 310.214 199.659 310.589C199.266 310.93 198.857 311.275 198.446 311.609C198.038 311.951 197.615 312.27 197.191 312.563C196.449 313.086 197.344 314.251 198.071 313.744C198.52 313.431 198.958 313.112 199.388 312.771C199.827 312.444 200.25 312.099 200.684 311.765C201.121 311.439 201.548 311.094 202.001 310.782C202.45 310.469 202.898 310.154 203.377 309.887C204.134 309.449 203.429 308.158 202.632 308.621Z" fill="#CACEDB"/>
<path d="M192.806 315.658C191.89 316.389 190.943 317.084 190.112 317.9C189.744 318.26 189.367 318.617 188.973 318.972C188.58 319.333 188.171 319.674 187.759 319.989C187.043 320.558 188.008 321.67 188.698 321.121C189.129 320.791 189.548 320.454 189.96 320.097C190.379 319.741 190.802 319.373 191.214 319.002C192.041 318.256 192.858 317.503 193.723 316.813C194.423 316.248 193.511 315.098 192.806 315.658Z" fill="#CACEDB"/>
<path d="M183.6 323.445C183.181 323.861 182.75 324.273 182.35 324.711C182.145 324.926 181.946 325.145 181.752 325.367C181.563 325.594 181.382 325.828 181.207 326.065C181.051 326.273 180.895 326.484 180.74 326.699C180.583 326.915 180.428 327.13 180.264 327.342C180.105 327.553 179.938 327.761 179.771 327.965C179.608 328.174 179.441 328.373 179.27 328.566C178.665 329.249 179.816 330.166 180.402 329.506C180.758 329.098 181.107 328.678 181.452 328.255C181.793 327.828 182.135 327.401 182.476 326.97C182.814 326.536 183.162 326.117 183.522 325.698C183.875 325.274 184.254 324.878 184.64 324.487C185.262 323.864 184.25 322.799 183.6 323.445Z" fill="#CACEDB"/>
<path d="M175.779 332.675C175.43 333.149 175.084 333.633 174.747 334.115C174.413 334.601 174.101 335.106 173.823 335.622C173.586 336.082 173.341 336.553 173.078 337.013C172.817 337.478 172.551 337.934 172.261 338.361C171.76 339.111 173.011 339.882 173.508 339.136C174.116 338.231 174.658 337.277 175.207 336.327C175.489 335.855 175.76 335.373 176.053 334.909C176.35 334.446 176.639 333.978 176.969 333.536C177.493 332.82 176.317 331.94 175.779 332.675Z" fill="#CACEDB"/>
<path d="M169.248 342.792C168.64 343.79 167.986 344.774 167.496 345.839C167.066 346.775 166.595 347.754 166.05 348.623C165.571 349.387 166.844 350.122 167.318 349.365C168.487 347.509 169.352 345.45 170.502 343.556C170.969 342.789 169.716 342.02 169.248 342.792Z" fill="#CACEDB"/>
<path d="M163.173 353.147C162.602 354.171 161.99 355.195 161.567 356.301C161.385 356.788 161.193 357.284 160.996 357.782C160.795 358.275 160.592 358.769 160.368 359.237C159.983 360.072 161.352 360.614 161.719 359.82C161.953 359.333 162.168 358.84 162.383 358.342C162.599 357.842 162.814 357.34 163.029 356.839C163.464 355.834 163.919 354.828 164.458 353.863C164.899 353.087 163.619 352.356 163.173 353.147Z" fill="#CACEDB"/>
<path d="M158.376 364.336L158.165 365.171L157.939 366.002C157.787 366.556 157.642 367.116 157.534 367.684C157.341 368.682 157.089 369.733 156.729 370.69C156.413 371.533 157.805 372.004 158.12 371.162C158.506 370.13 158.803 369.054 159.063 367.962C159.192 367.417 159.315 366.868 159.437 366.319C159.56 365.769 159.675 365.216 159.809 364.674C160.024 363.836 158.61 363.424 158.376 364.336Z" fill="#CACEDB"/>
<path d="M154.844 375.73C154.681 376.302 154.513 376.874 154.372 377.46C154.231 378.046 154.127 378.636 154.076 379.23C153.986 380.273 153.916 381.364 153.738 382.377C153.582 383.268 155.04 383.465 155.192 382.585C155.382 381.509 155.486 380.425 155.627 379.345C155.694 378.803 155.775 378.269 155.876 377.734C155.98 377.2 156.102 376.665 156.253 376.138C156.506 375.289 155.104 374.85 154.844 375.73Z" fill="#CACEDB"/>
<path d="M152.706 387.584C152.603 388.149 152.473 388.72 152.362 389.291C152.246 389.863 152.15 390.442 152.094 391.025C151.997 392.049 151.879 393.133 151.664 394.142C151.567 394.588 151.89 394.87 152.251 394.929C152.614 394.988 153.018 394.833 153.111 394.398C153.337 393.337 153.494 392.249 153.645 391.151L153.879 389.503C153.961 388.95 154.053 388.404 154.153 387.852C154.239 387.403 153.909 387.116 153.549 387.053C153.185 386.994 152.788 387.153 152.706 387.584Z" fill="#CACEDB"/>
<path d="M150.744 399.498C150.71 400.087 150.67 400.666 150.64 401.257C150.613 401.843 150.606 402.433 150.643 403.019C150.71 404.052 150.773 405.143 150.736 406.174C150.707 407.087 152.176 407.065 152.206 406.185C152.251 405.102 152.222 404.007 152.195 402.905C152.185 402.352 152.173 401.799 152.169 401.245C152.169 400.693 152.176 400.136 152.21 399.587C152.27 398.711 150.807 398.566 150.744 399.498Z" fill="#CACEDB"/>
<path d="M150.74 411.604C150.807 412.194 150.888 412.814 150.989 413.389C151.089 413.961 151.197 414.532 151.348 415.096C151.612 416.084 151.861 417.141 151.983 418.162C152.091 419.06 153.541 418.83 153.438 417.943C153.311 416.856 153.089 415.768 152.852 414.681L152.484 413.048C152.365 412.506 152.265 411.983 152.205 411.441C152.157 411.007 151.775 410.817 151.408 410.85C151.037 410.88 150.688 411.144 150.74 411.604Z" fill="#CACEDB"/>
<path d="M152.655 423.499C152.873 424.597 152.951 425.763 153.263 426.917C153.534 427.93 153.842 429.011 154.18 430.038C154.328 430.491 154.755 430.565 155.093 430.42C155.43 430.276 155.69 429.935 155.564 429.541C155.408 429.058 155.267 428.569 155.133 428.057C155 427.548 154.878 427.028 154.758 426.494C154.525 425.428 154.317 424.323 154.095 423.206C154.005 422.76 153.601 422.619 153.241 422.686C152.881 422.757 152.565 423.061 152.655 423.499Z" fill="#CACEDB"/>
<path d="M156.32 434.993C156.551 435.482 156.781 436.05 157.022 436.585C157.26 437.123 157.53 437.65 157.831 438.155C158.098 438.597 158.376 439.053 158.636 439.517C158.899 439.977 159.155 440.445 159.37 440.912C159.568 441.324 159.994 441.354 160.317 441.18C160.643 441.005 160.866 440.638 160.677 440.237C160.451 439.744 160.194 439.26 159.938 438.778C159.686 438.292 159.411 437.817 159.155 437.331C158.896 436.845 158.625 436.366 158.38 435.872C158.127 435.378 157.898 434.889 157.653 434.362C157.452 433.942 157.018 433.909 156.692 434.072C156.361 434.243 156.139 434.607 156.32 434.993Z" fill="#CACEDB"/>
<path d="M161.838 445.73L162.313 446.483L162.817 447.226C163.152 447.719 163.526 448.187 163.927 448.625C164.272 449.014 164.661 449.389 165.018 449.79C165.37 450.191 165.749 450.573 166.068 450.982C166.354 451.341 166.788 451.252 167.052 451.008C167.326 450.755 167.438 450.35 167.166 450.005C166.836 449.582 166.461 449.192 166.116 448.777C165.768 448.365 165.396 447.967 165.051 447.548L164.525 446.925C164.35 446.714 164.187 446.494 164.02 446.279C163.853 446.06 163.69 445.845 163.526 445.623C163.371 445.396 163.222 445.169 163.074 444.939C162.602 444.194 161.341 444.951 161.838 445.73Z" fill="#CACEDB"/>
<path d="M169.804 454.952C170.268 455.327 170.736 455.728 171.181 456.073C171.63 456.43 172.087 456.782 172.565 457.109C173.408 457.68 174.28 458.326 175.04 459.024C175.712 459.636 176.654 458.505 175.997 457.907C175.196 457.172 174.328 456.481 173.43 455.814C172.981 455.48 172.524 455.149 172.064 454.823C171.593 454.496 171.177 454.169 170.751 453.828C170.405 453.553 170.005 453.679 169.764 453.958C169.515 454.229 169.441 454.663 169.804 454.952Z" fill="#CACEDB"/>
<path d="M179.434 462.308C180.479 462.865 181.493 463.429 182.521 463.893C182.743 463.993 182.981 464.104 183.222 464.224C183.459 464.342 183.697 464.461 183.938 464.576C184.413 464.817 184.884 465.062 185.326 465.329C186.112 465.79 186.795 464.487 186.034 464.041C185.571 463.763 185.095 463.503 184.617 463.244C184.134 462.984 183.667 462.735 183.148 462.468C182.127 461.956 181.092 461.525 180.123 461.009C179.344 460.594 178.621 461.874 179.434 462.308Z" fill="#CACEDB"/>
<path d="M190.045 467.957C191.121 468.444 192.201 468.952 193.34 469.267C194.342 469.542 195.393 469.835 196.357 470.206C197.21 470.529 197.667 469.13 196.839 468.818C195.826 468.425 194.783 468.102 193.737 467.764C193.214 467.597 192.695 467.419 192.175 467.233C191.659 467.048 191.147 466.844 190.647 466.617C189.841 466.246 189.214 467.578 190.045 467.957Z" fill="#CACEDB"/>
<path d="M201.447 472.007C202.586 472.308 203.734 472.637 204.902 472.771C205.93 472.89 207.01 473.024 208.011 473.261C208.891 473.469 209.173 472.021 208.301 471.817C206.175 471.312 203.952 471.145 201.823 470.585C200.966 470.355 200.564 471.773 201.447 472.007Z" fill="#CACEDB"/>
<path d="M213.228 474.497C214.386 474.701 215.548 474.942 216.724 474.987C217.755 475.032 218.846 475.08 219.867 475.236C220.765 475.37 220.917 473.906 220.037 473.773C217.886 473.447 215.659 473.428 213.48 473.046C212.605 472.893 212.338 474.341 213.228 474.497Z" fill="#CACEDB"/>
<path d="M225.217 475.937C225.811 475.963 226.405 475.996 226.999 476C227.592 476.004 228.193 475.985 228.772 475.914C229.796 475.792 230.879 475.669 231.904 475.673C232.805 475.673 232.75 474.203 231.859 474.203C230.765 474.2 229.666 474.288 228.568 474.374C228.018 474.415 227.477 474.455 226.928 474.474C226.379 474.496 225.833 474.496 225.284 474.471C224.839 474.452 224.598 474.801 224.575 475.168C224.557 475.532 224.76 475.914 225.217 475.937Z" fill="#CACEDB"/>
<path d="M237.265 475.692C238.434 475.632 239.614 475.621 240.768 475.432C241.781 475.265 242.857 475.113 243.881 475.094C244.779 475.076 244.701 473.605 243.803 473.624C241.603 473.669 239.406 474.114 237.195 474.222C236.297 474.267 236.364 475.736 237.265 475.692Z" fill="#CACEDB"/>
<path d="M249.239 475.053C249.825 475.006 250.419 474.983 251.009 474.92C251.595 474.857 252.185 474.794 252.76 474.66C253.265 474.545 253.788 474.441 254.307 474.337C254.827 474.233 255.35 474.159 255.862 474.1C256.764 473.999 256.541 472.544 255.658 472.641C255.116 472.704 254.575 472.771 254.033 472.864C253.495 472.956 252.953 473.049 252.412 473.142C251.87 473.239 251.324 473.32 250.783 473.406C250.237 473.484 249.691 473.54 249.143 473.584C248.697 473.617 248.497 473.992 248.519 474.36C248.534 474.727 248.783 475.087 249.239 475.053Z" fill="#CACEDB"/>
<path d="M261.194 473.492C262.348 473.288 263.521 473.117 264.642 472.775C265.624 472.47 266.667 472.17 267.68 472.003C268.567 471.854 268.277 470.414 267.391 470.559C265.224 470.918 263.113 471.657 260.938 472.044C260.055 472.199 260.303 473.651 261.194 473.492Z" fill="#CACEDB"/>
<path d="M272.96 471.19C274.106 470.96 275.275 470.775 276.393 470.407C277.372 470.084 278.411 469.758 279.42 469.557C280.307 469.378 279.958 467.95 279.086 468.124C276.945 468.551 274.845 469.312 272.674 469.746C271.791 469.92 272.077 471.365 272.96 471.19Z" fill="#CACEDB"/>
<path d="M284.686 468.458C285.253 468.298 285.825 468.143 286.389 467.968C286.952 467.793 287.513 467.594 288.05 467.356C288.522 467.137 289.012 466.929 289.498 466.714C289.988 466.506 290.481 466.313 290.971 466.142C291.835 465.849 291.287 464.483 290.451 464.765C289.94 464.944 289.427 465.129 288.923 465.333C288.415 465.537 287.906 465.738 287.398 465.942C286.886 466.139 286.377 466.35 285.858 466.532C285.342 466.721 284.819 466.895 284.288 467.044C283.427 467.286 283.806 468.706 284.686 468.458Z" fill="#CACEDB"/>
<path d="M296.024 464.319C297.101 463.856 298.199 463.432 299.212 462.857C300.102 462.353 301.06 461.845 302.017 461.484C302.856 461.173 302.303 459.807 301.453 460.126C299.383 460.905 297.472 462.089 295.442 462.969C294.622 463.321 295.197 464.676 296.024 464.319Z" fill="#CACEDB"/>
<path d="M307.071 459.67C308.151 459.187 309.245 458.723 310.24 458.096C311.111 457.547 312.04 456.975 312.967 456.544C313.783 456.166 313.122 454.852 312.306 455.231C310.31 456.155 308.484 457.431 306.47 458.326C306.065 458.508 306.006 458.931 306.151 459.269C306.296 459.606 306.655 459.855 307.071 459.67Z" fill="#CACEDB"/>
<path d="M317.854 454.407C318.384 454.151 318.914 453.895 319.445 453.639C319.976 453.382 320.485 453.086 320.978 452.763C321.408 452.477 321.853 452.191 322.31 451.916C322.763 451.645 323.219 451.374 323.679 451.145C324.488 450.74 323.775 449.452 322.978 449.85C322.488 450.091 322.013 450.366 321.534 450.633C321.056 450.904 320.584 451.182 320.109 451.468C319.638 451.754 319.167 452.043 318.681 452.307C318.198 452.574 317.713 452.837 317.216 453.078C316.41 453.475 317.037 454.804 317.854 454.407Z" fill="#CACEDB"/>
<path d="M328.47 448.733C328.978 448.435 329.486 448.138 329.991 447.842C330.499 447.541 330.989 447.218 331.453 446.858C331.86 446.543 332.283 446.22 332.714 445.915C333.149 445.615 333.583 445.31 334.024 445.051C334.799 444.59 334.002 443.355 333.234 443.807C332.763 444.085 332.306 444.39 331.846 444.691C331.389 444.995 330.937 445.31 330.488 445.634C330.039 445.956 329.586 446.272 329.126 446.577C328.666 446.88 328.202 447.181 327.727 447.463C326.955 447.916 327.687 449.192 328.47 448.733Z" fill="#CACEDB"/>
<path d="M338.644 442.319C339.608 441.655 340.625 441.042 341.504 440.267C342.28 439.584 343.119 438.897 343.968 438.318C344.718 437.817 343.857 436.622 343.11 437.12C342.206 437.736 341.33 438.403 340.469 439.098C339.608 439.788 338.732 440.467 337.819 441.094C337.452 441.347 337.463 441.773 337.671 442.081C337.876 442.389 338.269 442.575 338.644 442.319Z" fill="#CACEDB"/>
<path d="M348.436 435.364C349.371 434.659 350.35 433.995 351.196 433.185C351.942 432.473 352.747 431.746 353.574 431.14C354.302 430.61 353.396 429.452 352.673 429.979C351.786 430.625 350.944 431.337 350.113 432.068C349.697 432.432 349.274 432.792 348.851 433.148C348.428 433.505 347.998 433.854 347.553 434.184C346.836 434.714 347.708 435.899 348.436 435.364Z" fill="#CACEDB"/>
<path d="M357.934 428.03C358.394 427.666 358.854 427.299 359.314 426.936C359.771 426.565 360.217 426.182 360.624 425.763C361.348 425.028 362.123 424.267 362.929 423.628C363.637 423.072 362.684 421.951 361.982 422.504C361.125 423.183 360.313 423.929 359.508 424.682C358.702 425.44 357.883 426.19 357.022 426.883C356.313 427.433 357.225 428.587 357.934 428.03Z" fill="#CACEDB"/>
<path d="M367.14 420.3C367.578 419.91 368.031 419.528 368.457 419.127C368.888 418.726 369.311 418.314 369.697 417.877C370.034 417.486 370.379 417.082 370.743 416.696C371.103 416.307 371.481 415.939 371.856 415.59C372.524 414.977 371.488 413.931 370.832 414.532C370.432 414.903 370.03 415.278 369.649 415.672C369.263 416.061 368.891 416.469 368.509 416.867L367.359 418.058C366.973 418.455 366.573 418.834 366.16 419.202C365.492 419.795 366.461 420.901 367.14 420.3Z" fill="#CACEDB"/>
<path d="M375.811 411.95C376.216 411.522 376.624 411.096 377.033 410.669C377.433 410.238 377.807 409.778 378.153 409.307C378.454 408.884 378.777 408.468 379.092 408.038C379.411 407.614 379.745 407.202 380.094 406.824C380.706 406.155 379.57 405.217 378.969 405.874C378.602 406.275 378.249 406.694 377.908 407.121C377.567 407.547 377.222 407.978 376.88 408.409C376.536 408.839 376.205 409.281 375.845 409.701C375.489 410.12 375.125 410.535 374.747 410.94C374.443 411.267 374.55 411.682 374.813 411.938C375.081 412.187 375.504 412.279 375.811 411.95Z" fill="#CACEDB"/>
<path d="M383.652 402.778C384.02 402.315 384.36 401.832 384.713 401.357C385.055 400.874 385.399 400.392 385.67 399.869C385.915 399.412 386.171 398.945 386.442 398.488C386.717 398.039 386.995 397.567 387.277 397.133C387.525 396.747 387.326 396.369 387.006 396.187C386.687 396.005 386.253 396.009 386.016 396.376C385.726 396.83 385.437 397.282 385.147 397.735C384.858 398.199 384.576 398.666 384.297 399.141C384.02 399.616 383.715 400.073 383.422 400.541C383.117 401.001 382.825 401.469 382.479 401.898C381.934 402.597 383.096 403.498 383.652 402.778Z" fill="#CACEDB"/>
<path d="M390.049 392.524C390.32 392.019 390.612 391.507 390.891 391.051C391.18 390.583 391.492 390.123 391.785 389.633C392.301 388.775 392.936 387.889 393.592 387.076C393.882 386.716 393.722 386.315 393.422 386.107C393.121 385.896 392.698 385.859 392.423 386.192C391.752 387.017 391.076 387.896 390.442 388.842C390.127 389.317 389.826 389.812 389.54 390.32C389.255 390.839 389.013 391.329 388.747 391.827C388.323 392.631 389.63 393.307 390.049 392.524Z" fill="#CACEDB"/>
<path d="M396.409 382.351C396.865 381.26 397.34 380.158 397.599 378.993C397.71 378.477 397.826 377.946 397.941 377.415C398.056 376.832 398.1 376.298 398.179 375.783C398.246 375.333 397.922 375.074 397.574 375.032C397.221 374.991 396.839 375.181 396.772 375.615C396.691 376.146 396.627 376.673 396.524 377.115C396.397 377.627 396.256 378.154 396.116 378.677C395.826 379.723 395.496 380.774 395.073 381.791C394.72 382.607 396.053 383.194 396.409 382.351Z" fill="#CACEDB"/>
<path d="M439.784 378.135L433.054 366.697L434.653 363.594C434.965 362.989 434.69 362.224 434.045 361.891L431.261 360.458C430.66 360.15 429.948 360.321 429.599 360.829L426.441 355.463L427.692 353.036C428.026 352.39 427.77 351.588 427.12 351.254L424.338 349.821C423.944 349.617 423.491 349.636 423.121 349.828L419.74 344.084C422.1 339.504 423.766 336.271 423.822 336.16C426.249 331.45 427.844 322.48 424.894 320.962C421.945 319.44 415.566 325.946 413.139 330.656C413.084 330.768 411.418 333.996 409.057 338.58L402.416 339.159C402.356 338.747 402.112 338.368 401.714 338.164L398.932 336.732C398.286 336.397 397.485 336.653 397.151 337.303L395.901 339.73L389.7 340.272C389.912 339.693 389.637 339.014 389.04 338.702L386.257 337.27C385.611 336.936 384.824 337.158 384.517 337.763L382.918 340.866L369.7 342.02C368.246 342.146 366.98 343.067 366.409 344.41L366.301 344.666C365.296 347.042 366.799 349.728 369.348 350.111L378.706 351.514C378.428 353.039 378.509 354.261 379.292 354.672C380.328 355.218 381.73 353.956 383.077 352.17L390.676 353.31C390.621 354.289 390.806 355.021 391.363 355.314C392.149 355.726 393.177 355.039 394.246 353.844L400.695 354.81C396.375 363.193 392.569 370.579 392.483 370.746C391.611 372.442 390.799 374.776 390.256 377.145L376.075 378.718C375.508 378.781 374.999 379.097 374.691 379.575C373.937 380.74 374.646 382.296 376.019 382.493L389.466 384.4C387.893 388.43 386.324 393.2 387.525 393.611C388.706 394.016 391.548 390.141 393.819 386.653L403.158 396.484C404.115 397.49 405.792 397.167 406.305 395.876C406.516 395.345 406.476 394.747 406.197 394.25L399.251 381.784C400.861 379.968 402.297 377.949 403.169 376.257C403.255 376.091 407.061 368.705 411.381 360.32L415.907 365.012C415.554 366.574 415.592 367.814 416.382 368.211C416.943 368.493 417.647 368.218 418.412 367.606L423.747 373.136C423.072 375.27 422.86 377.14 423.904 377.671C424.694 378.072 425.732 377.43 426.816 376.316L433.387 383.127C435.18 384.983 438.241 384.649 439.588 382.451L439.732 382.214C440.512 380.955 440.526 379.394 439.784 378.135Z" fill="#CACEDB"/>
<path d="M22.5979 337.27C22.5979 331.034 17.5442 325.98 11.3105 325.98C5.07692 325.98 0.0232159 331.034 0.0232159 337.27C0.0232159 337.27 -0.0918054 337.841 0.190193 339.215C0.323771 339.979 0.531559 340.721 0.809846 341.427C1.97124 344.811 4.74669 350.545 11.3105 359.604C17.8745 350.545 20.6499 344.811 21.8112 341.427C22.0896 340.721 22.301 339.982 22.4309 339.215C22.7129 337.837 22.5979 337.27 22.5979 337.27ZM11.3068 344.117C7.52585 344.117 4.46097 341.052 4.46097 337.27C4.46097 333.487 7.52585 330.422 11.3068 330.422C15.0878 330.422 18.1527 333.487 18.1527 337.27C18.1564 341.052 15.0878 344.117 11.3068 344.117Z" fill="#CACEDB"/>
<path d="M13.8337 364.422C13.8337 365.817 12.702 366.949 11.3068 366.949C9.91171 366.949 8.77997 365.817 8.77997 364.422C8.77997 363.026 9.91171 361.895 11.3068 361.895C12.702 361.895 13.8337 363.026 13.8337 364.422Z" fill="#CACEDB"/>
</g>
<defs>
<clipPath id="clip0_39_49">
<rect width="612" height="476" fill="white"/>
</clipPath>
</defs>
</svg>
