<svg xmlns="http://www.w3.org/2000/svg" xmlns:xlink="http://www.w3.org/1999/xlink" width="432.297" height="237.52" viewBox="0 0 432.297 237.52">
  <defs>
    <clipPath id="clip-path">
      <rect id="Rectangle_5116" data-name="Rectangle 5116" width="326" height="237" transform="translate(-0.256 -0.48)" fill="#fff" stroke="#707070" stroke-width="1"/>
    </clipPath>
  </defs>
  <g id="Group_13989" data-name="Group 13989" transform="translate(-1001 -217)">
    <path id="Path_17641" data-name="Path 17641" d="M432.3.7H0V-.5H432.3Z" transform="translate(1001 453.822)" fill="#b2b2b2"/>
    <g id="Group_13988" data-name="Group 13988" transform="translate(-58)">
      <g id="Group_13987" data-name="Group 13987" transform="translate(1112.256 217.48)">
        <g id="Mask_Group_5" data-name="Mask Group 5" clip-path="url(#clip-path)">
          <g id="Group_13980" data-name="Group 13980" transform="translate(7.189 -0.59)">
            <g id="Group_13986" data-name="Group 13986" transform="translate(0 6.497)">
              <g id="Group_13985" data-name="Group 13985" transform="translate(0 0)">
                <g id="Group_13983" data-name="Group 13983">
                  <g id="Group_13980-2" data-name="Group 13980" transform="translate(0 58.566)">
                    <g id="Group_13980-3" data-name="Group 13980">
                      <path id="Path_17631" data-name="Path 17631" d="M1010.38,2268.371a1.037,1.037,0,0,1,.262.034l123.222,32.16a1.04,1.04,0,0,1,.561.372l35.511,46.235a1.038,1.038,0,0,1-.427,1.592l-96.9,40a1.037,1.037,0,0,1-1.295-.441l-31.1-53.885-33.893,53.918a1.038,1.038,0,0,1-1.176.442l-120.366-35.99a1.038,1.038,0,0,1-.583-1.545l31.439-50.242a1.039,1.039,0,0,1,.543-.431l93.86-32.16A1.042,1.042,0,0,1,1010.38,2268.371ZM1133,2302.484l-122.575-31.991-93.216,31.94-30.521,48.775,118.3,35.374,34.39-54.709a1.038,1.038,0,0,1,.879-.486h.02a1.039,1.039,0,0,1,.879.519l31.5,54.59,94.805-39.134Z" transform="translate(-884.043 -2268.371)" fill="#b2b2b2"/>
                      <path id="Path_17632" data-name="Path 17632" d="M1018.973,2325.99a1.032,1.032,0,0,1-.245-.029l-95.061-23.076.49-2.017,93.778,22.765v-54.594h2.076v55.914a1.038,1.038,0,0,1-1.038,1.038Z" transform="translate(-892.615 -2268.517)" fill="#b2b2b2"/>
                      <path id="Path_17633" data-name="Path 17633" d="M1047.436,2486.738a1.04,1.04,0,0,1-.285-.04l-122.366-34.927a1.038,1.038,0,0,1-.753-1v-65.226h2.076v64.443l121.271,34.615,94.876-38.3v-60.761h2.076v61.461a1.037,1.037,0,0,1-.65.962l-95.856,38.692A1.041,1.041,0,0,1,1047.436,2486.738Z" transform="translate(-892.763 -2292.441)" fill="#b2b2b2"/>
                      <path id="Path_17634" data-name="Path 17634" d="M1075.395,2340.713a1.034,1.034,0,0,1-.25-.03l-31.2-7.75.5-2.015,1.008.25,29.9,7.428,93.272-30.766.65,1.972-.986.325-92.571,30.535A1.033,1.033,0,0,1,1075.395,2340.713Z" transform="translate(-918.842 -2275.774)" fill="#b2b2b2"/>
                      <path id="Path_17635" data-name="Path 17635" d="M1082.841,2480.133l-2.076-.021.011-1.038,1.341-130.326,2.076.021-.011,1.038Z" transform="translate(-926.938 -2285.895)" fill="#b2b2b2"/>
                    </g>
                  </g>
                  <g id="Group_13982" data-name="Group 13982" transform="translate(158.277 191.189) rotate(-89)">
                    <path id="Rectangle_5115" data-name="Rectangle 5115" d="M9.769,0h73a0,0,0,0,1,0,0V19.538a0,0,0,0,1,0,0h-73A9.769,9.769,0,0,1,0,9.769v0A9.769,9.769,0,0,1,9.769,0Z" transform="matrix(0.695, -0.719, 0.719, 0.695, 30.479, 144.004)" fill="#fff"/>
                    <path id="Rectangle_5115_-_Outline" data-name="Rectangle 5115 - Outline" d="M9.769,1.186A8.583,8.583,0,0,0,3.7,15.838a8.526,8.526,0,0,0,6.069,2.514H81.583V1.186H9.769M9.769,0h73V19.538h-73A9.769,9.769,0,0,1,9.769,0Z" transform="matrix(0.695, -0.719, 0.719, 0.695, 30.479, 144.004)" fill="#fff"/>
                    <g id="Group_13981" data-name="Group 13981" transform="matrix(0.309, 0.951, -0.951, 0.309, 155.555, 0)">
                      <circle id="Ellipse_4" data-name="Ellipse 4" cx="45.278" cy="45.278" r="45.278" transform="translate(2.144 2.036)" fill="#fff"/>
                      <path id="Ellipse_4_-_Outline" data-name="Ellipse 4 - Outline" d="M45.278.917A44.373,44.373,0,0,0,28.011,86.153,44.372,44.372,0,0,0,62.545,4.4,44.082,44.082,0,0,0,45.278.917m0-.917A45.278,45.278,0,1,1,0,45.278,45.278,45.278,0,0,1,45.278,0Z" transform="translate(2.144 2.036)" fill="#707070"/>
                      <path id="Path_17636" data-name="Path 17636" d="M43.167,19.718a2.022,2.022,0,0,0,1.784,1.067,1.983,1.983,0,0,0,.951-.241,2.021,2.021,0,0,0,.829-2.735A33.776,33.776,0,0,0,1.068,3.989,2.021,2.021,0,1,0,2.974,7.553,29.732,29.732,0,0,1,43.169,19.718Z" transform="translate(30.488 13.725)" fill="#ec5b24"/>
                      <path id="Path_17636_-_Outline" data-name="Path 17636 - Outline" d="M45.544,21.971a2.615,2.615,0,0,1-2.307-1.379l-.151-.281A29,29,0,0,0,32.318,9.241,29.311,29.311,0,0,0,17.529,5.229,28.918,28.918,0,0,0,3.847,8.669a2.638,2.638,0,0,1-1.232.308A2.613,2.613,0,0,1,1.38,4.059,34.317,34.317,0,0,1,47.846,18.121a2.618,2.618,0,0,1-2.3,3.85Zm-1.233-1.889a1.43,1.43,0,0,0,1.233.7,1.381,1.381,0,0,0,.668-.169l0,0a1.428,1.428,0,0,0,.586-1.932A33.124,33.124,0,0,0,1.94,5.1,1.428,1.428,0,0,0,3.289,7.622,30.31,30.31,0,0,1,44.284,20.031Z" transform="translate(29.896 13.132)" fill="#fff"/>
                      <path id="Path_17637" data-name="Path 17637" d="M112.819,144.911,78.713,81.2A46.835,46.835,0,0,0,24.764,5.555,46.843,46.843,0,0,0,57.809,92.418L91.9,156.1a11.861,11.861,0,1,0,20.915-11.194ZM46.92,89.687a42.837,42.837,0,1,1,20.17-5.075,42.778,42.778,0,0,1-20.17,5.075ZM106.051,157.4a7.819,7.819,0,0,1-10.585-3.2L61.78,91.269a46.9,46.9,0,0,0,7.213-3.095,47.236,47.236,0,0,0,6.569-4.3l33.7,62.945a7.83,7.83,0,0,1-3.208,10.587Z" transform="translate(0.593 0.593)" fill="#b2b2b2"/>
                      <path id="Path_17637_-_Outline" data-name="Path 17637 - Outline" d="M102.97,163.561a12.5,12.5,0,0,1-11-6.585L58.095,93.693a47.824,47.824,0,1,1,21.95-11.78l33.891,63.311h0a12.465,12.465,0,0,1-10.966,18.336ZM58.709,92.328l34.31,64.088a11.268,11.268,0,1,0,19.87-10.634h0L78.567,81.667l.337-.311a46.3,46.3,0,1,0-20.64,11.079Zm44.254,67.191a8.444,8.444,0,0,1-7.427-4.447L61.519,91.523l.665-.223a44.395,44.395,0,0,0,13.608-7.306l.555-.428,34.028,63.563a8.425,8.425,0,0,1-3.451,11.39h0A8.4,8.4,0,0,1,102.963,159.519ZM63.225,92.2l33.357,62.316a7.212,7.212,0,0,0,9.782,2.959l0,.005,0-.006a7.237,7.237,0,0,0,2.964-9.784L75.96,85.357a46.7,46.7,0,0,1-6.095,3.933A47.322,47.322,0,0,1,63.225,92.2ZM47.514,90.873a43.43,43.43,0,1,1,20.448-5.145A43.37,43.37,0,0,1,47.514,90.873ZM47.437,5.227A42.235,42.235,0,1,0,84.7,27.531,42.281,42.281,0,0,0,47.437,5.227Z" transform="translate(0 0)" fill="#fff"/>
                      <path id="Path_17638" data-name="Path 17638" d="M7.225,15.406,0,1.907,3.563,0l7.225,13.5Z" transform="translate(91.031 128.283)" fill="#ec5b24"/>
                      <path id="Path_17638_-_Outline" data-name="Path 17638 - Outline" d="M7.785,17.012,0,2.467,4.609,0l7.785,14.545ZM1.606,2.953,8.271,15.406l2.517-1.347L4.122,1.606Z" transform="translate(90.228 127.48)" fill="#fff"/>
                      <path id="Path_17639" data-name="Path 17639" d="M0,1.905,3.563,0,18.782,28.449l-3.563,1.905Z" transform="translate(73.745 95.984)" fill="#ec5b24"/>
                      <path id="Path_17639_-_Outline" data-name="Path 17639 - Outline" d="M4.609,0,20.387,29.5,15.779,31.96,0,2.465ZM18.782,29.009,4.122,1.605,1.606,2.951l14.66,27.4Z" transform="translate(72.942 95.181)" fill="#fff"/>
                    </g>
                  </g>
                </g>
                <g id="Group_13984" data-name="Group 13984" transform="translate(97.718 204.759)">
                  <path id="Line_210" data-name="Line 210" d="M33.793,9.177a.891.891,0,0,1-.223-.029L-.833.251A.89.89,0,0,1-1.472-.833.89.89,0,0,1-.388-1.472l34.4,8.9a.89.89,0,0,1-.222,1.751Z" transform="translate(1.5 4.466)" fill="#b2b2b2"/>
                  <path id="Line_211" data-name="Line 211" d="M11.846,3.245a.892.892,0,0,1-.207-.024L-.816.255A.89.89,0,0,1-1.476-.816.89.89,0,0,1-.4-1.476L12.052,1.49a.89.89,0,0,1-.205,1.755Z" transform="translate(23.447 1.5)" fill="#b2b2b2"/>
                </g>
                <path id="Path_17640" data-name="Path 17640" d="M1694.666,375.622l-90.982,31.084,89.933,22,31.279,7.561,39.8-13.129s-14.89,4.721-21-13.046-3.667-22.018-3.667-22.018Z" transform="translate(-1568.38 -314.931)" fill="#fff"/>
              </g>
            </g>
            <path id="Line_212" data-name="Line 212" d="M23.479,9.842a1.183,1.183,0,0,1-.431-.081L-1.245.291a1.186,1.186,0,0,1-.674-1.536A1.186,1.186,0,0,1-.383-1.919L23.91,7.551a1.186,1.186,0,0,1-.431,2.292Z" transform="translate(70.951 49.072)" fill="#c4c4c4"/>
            <path id="Line_213" data-name="Line 213" d="M18.989,51.6a1.187,1.187,0,0,1-1.116-.783L.071,1.59A1.186,1.186,0,1,1,2.3.783L20.1,50.007a1.187,1.187,0,0,1-1.116,1.59Z" transform="matrix(0.998, -0.07, 0.07, 0.998, 89.846, 1.407)" fill="#b2b2b2"/>
            <path id="Line_214" data-name="Line 214" d="M-.812,34.792a1.2,1.2,0,0,1-.127-.007A1.186,1.186,0,0,1-1.993,33.48L1.672-.939A1.186,1.186,0,0,1,2.977-1.993,1.186,1.186,0,0,1,4.031-.688L.366,33.731A1.186,1.186,0,0,1-.812,34.792Z" transform="translate(135.508 9.792)" fill="#c4c4c4"/>
          </g>
        </g>
      </g>
      <path id="Path_17642" data-name="Path 17642" d="M1078.756,2293.514l-91.981,31.147,91.981,22.349Z" transform="translate(167.148 -2009.519)" fill="#d9d9d9"/>
      <path id="Path_17643" data-name="Path 17643" d="M1063.563,2293.722l46.662,11.888s-.209,21.606,21.9,34.912" transform="translate(182.365 -2009.477)" fill="#f0f0f0"/>
      <path id="Path_17644" data-name="Path 17644" d="M1132.584,2341.2l-38.707,13.326-31.068-8.057v-52.934l27.657,13.3Z" transform="translate(182.215 -2009.515)" fill="#f0f0f0"/>
    </g>
  </g>
</svg>
