<svg width="27" height="24" viewBox="0 0 27 24" fill="none" xmlns="http://www.w3.org/2000/svg">
<path d="M26.8592 11.8317C26.8506 10.6961 25.5662 10.0183 24.5628 10.5483L23.8856 10.9055L15.6265 15.2733H15.6169L14.8016 15.7149C13.9518 16.1756 12.9264 16.1767 12.0755 15.7188L10.6579 14.9565L3.46386 11.0784C3.40626 11.0591 3.3583 11.0207 3.3007 10.992L3.29107 10.9824L2.31454 10.4582C1.31208 9.91976 0.050744 10.5926 0.00278343 11.7302C0.000856452 11.7716 0 11.8138 0 11.856V21.1199C0 22.7038 1.29494 23.9998 2.87763 23.9998H23.9803C25.5726 23.9998 26.8579 22.7038 26.8579 21.1199V11.856V11.832L26.8592 11.8317Z" fill="black"/>
<path d="M21.1039 0.000252361H5.75654C4.17384 0.000252361 2.87891 1.2962 2.87891 2.88013V8.6399L3.7998 9.12952C3.95332 9.17752 4.10684 9.2448 4.25072 9.32151L4.79756 9.61915L10.6586 12.7774L12.98 14.0253C13.2678 14.1789 13.6035 14.1789 13.8913 14.0253L14.9081 13.478L22.0638 9.61889L22.62 9.32126C22.7543 9.24455 22.8982 9.18691 23.042 9.13891L23.982 8.63965V2.87988C23.982 1.29595 22.6967 0 21.1043 0L21.1039 0.000252361ZM17.2671 9.59986H9.59338C9.06582 9.59986 8.63417 9.16788 8.63417 8.6399C8.63417 8.11192 9.06582 7.67994 9.59338 7.67994H17.2671C17.8043 7.67994 18.2263 8.11192 18.2263 8.6399C18.2263 9.16788 17.8043 9.59986 17.2671 9.59986ZM19.1855 5.76002H7.67496C7.1474 5.76002 6.71575 5.32803 6.71575 4.80006C6.71575 4.27208 7.1474 3.8401 7.67496 3.8401H19.1855C19.7227 3.8401 20.1447 4.27208 20.1447 4.80006C20.1447 5.32803 19.7227 5.76002 19.1855 5.76002Z" fill="black"/>
</svg>
