<svg xmlns="http://www.w3.org/2000/svg" width="50.594" height="42.46" viewBox="0 0 50.594 42.46">
  <g id="happy_traveller" data-name="happy traveller" transform="translate(-37.25 -27.224)">
    <path id="Path_17743" data-name="Path 17743" d="M80.715,37.794A5.488,5.488,0,0,0,86,32.515a5.282,5.282,0,1,0-10.563,0A5.488,5.488,0,0,0,80.715,37.794Z" transform="translate(-5.787 -0.001)"/>
    <path id="Path_17744" data-name="Path 17744" d="M84.5,45.024q3.621,9.5,7.25,18.994a4.791,4.791,0,0,1-4.468,6.454h-14.8a4.791,4.791,0,0,1-4.468-6.454q3.645-9.489,7.25-18.994a4.761,4.761,0,0,1,9.234,0Z" transform="translate(-4.951 -1.538)" fill="none" stroke="#000" stroke-width="1.5"/>
    <path id="Path_17745" data-name="Path 17745" d="M16.216,37.787A5.488,5.488,0,0,0,21.5,32.508a5.488,5.488,0,0,0-5.282-5.284,5.489,5.489,0,0,0-5.282,5.284A5.488,5.488,0,0,0,16.216,37.787Z" transform="translate(32.357 0)"/>
    <path id="Path_17746" data-name="Path 17746" d="M17.561,70.471a4.689,4.689,0,0,0,4.618-3.6l3.9-19.812a4.99,4.99,0,0,0,.075-.87,4.766,4.766,0,0,0-4.766-4.766H9.766A4.766,4.766,0,0,0,5,46.189a5,5,0,0,0,.075.871l3.9,19.812a4.663,4.663,0,0,0,4.618,3.6" transform="translate(33 -1.538)" stroke="#000" stroke-width="1.5"/>
  </g>
</svg>
