<?xml version="1.0" encoding="utf-8"?>
<!-- Generator: Adobe Illustrator 27.7.0, SVG Export Plug-In . SVG Version: 6.00 Build 0)  -->
<svg version="1.1" id="Layer_1" xmlns="http://www.w3.org/2000/svg" xmlns:xlink="http://www.w3.org/1999/xlink" x="0px" y="0px"
	 viewBox="0 0 719.6 303.3" style="enable-background:new 0 0 719.6 303.3;" xml:space="preserve">
<style type="text/css">
	.Drop_x0020_Shadow{fill:none;}
	.Round_x0020_Corners_x0020_2_x0020_pt{fill:#FFFFFF;stroke:#1D1D1B;stroke-miterlimit:10;}
	.Live_x0020_Reflect_x0020_X{fill:none;}
	.Bevel_x0020_Soft{fill:url(#SVGID_1_);}
	.Dusk{fill:#FFFFFF;}
	.Foliage_GS{fill:#FFDC00;}
	.Pompadour_GS{fill-rule:evenodd;clip-rule:evenodd;fill:#51ADE1;}
	.st0{fill:#FFFFFF;}
</style>
<linearGradient id="SVGID_1_" gradientUnits="userSpaceOnUse" x1="-1119.9525" y1="-36.5795" x2="-1119.2454" y2="-35.8724">
	<stop  offset="0" style="stop-color:#E6E6EA"/>
	<stop  offset="0.1761" style="stop-color:#E2E2E6"/>
	<stop  offset="0.3567" style="stop-color:#D6D6DA"/>
	<stop  offset="0.5393" style="stop-color:#C1C2C5"/>
	<stop  offset="0.7233" style="stop-color:#A5A6A8"/>
	<stop  offset="0.9067" style="stop-color:#808384"/>
	<stop  offset="1" style="stop-color:#6B6E6E"/>
</linearGradient>
<path class="st0" d="M209.6,261.8c-20,18.3-45.5,27.4-76.6,27.4c-38.5,0-68.7-12.3-90.7-37c-22-24.8-33-58.8-33-102
	c0-46.7,12.5-82.7,37.6-107.9c21.8-22,49.5-33,83.1-33c45,0,77.9,14.8,98.7,44.3c11.5,16.6,17.7,33.2,18.5,49.9h-55.9
	c-3.6-12.8-8.3-22.5-14-29C167.2,62.8,152.1,57,132.2,57c-20.3,0-36.3,8.2-48.1,24.6C72.4,98,66.5,121.2,66.5,151.2
	c0,30,6.2,52.5,18.6,67.4c12.4,14.9,28.1,22.4,47.3,22.4c19.6,0,34.5-6.4,44.8-19.2c5.7-6.9,10.4-17.2,14.2-31h55.3
	C241.8,219.9,229.5,243.6,209.6,261.8z"/>
<polygon class="st0" points="480.7,63.2 346.7,63.2 346.7,124.7 420,124.7 420,171.1 346.7,171.1 346.7,283.2 291.1,283.2 
	291.1,16.2 480.7,16.2 "/>
<path class="st0" d="M600.2,204c-0.4-40.3,31.7-48.4,63.1-63.3c2.1-1,3.4-3.1,3.4-5.3l-0.1-75.5l-105.3,59.7
	c-11.2,4.9-18.4,15.9-18.5,28.1l-0.7,108.3c0,4.3,2.3,8.2,6.1,10.2l52,27.8C600.2,263.9,600.5,234,600.2,204z"/>
<path class="st0" d="M435.8,172.7L703.5,11.9H594c-7.1,0-13.9,3-18.7,8.2L435.6,172.4C435.5,172.5,435.7,172.8,435.8,172.7z"/>
</svg>
