<svg width="25" height="26" viewBox="0 0 25 26" fill="none" xmlns="http://www.w3.org/2000/svg">
<path d="M24.3206 19.8795C23.203 17.5303 21.2909 15.9947 18.5558 15.305C18.145 15.2014 17.7079 15.3023 17.3791 15.5698L15.1019 17.4231C14.6573 17.785 14.03 17.8302 13.5429 17.5279C11.1422 16.038 9.2015 14.0866 7.72409 11.6771C7.42437 11.1882 7.47249 10.5607 7.83617 10.1174L9.69864 7.84717C9.96751 7.51945 10.0704 7.08267 9.96879 6.67084C9.29253 3.93053 7.76707 2.00983 5.42499 0.880045C5.04711 0.697784 4.60078 0.706892 4.23039 0.903781C3.04987 1.53115 1.92006 2.24169 0.849518 3.0409C0.439521 3.34691 0.231811 3.85417 0.315895 4.35913C1.07353 8.91476 3.52081 13.7094 7.50665 17.7169C11.4926 21.7248 16.2717 24.1963 20.82 24.976C21.3241 25.0623 21.8318 24.8568 22.1397 24.4481C22.9435 23.3805 23.6586 22.2532 24.291 21.0747C24.4893 20.7047 24.5005 20.2581 24.3202 19.8791L24.3206 19.8795Z" fill="black"/>
</svg>
