<svg xmlns="http://www.w3.org/2000/svg" width="63.906" height="26.142" viewBox="0 0 63.906 26.142">
  <path id="CFT-logo-03" d="M53.59,69.008a10.06,10.06,0,0,1-7.071,2.529,10.63,10.63,0,0,1-8.372-3.415Q35.1,64.688,35.1,58.706q0-6.466,3.471-9.96A10.342,10.342,0,0,1,46.242,45.7q6.231,0,9.111,4.089A8.809,8.809,0,0,1,57.06,54.4H51.9a6.889,6.889,0,0,0-1.292-2.677A5.207,5.207,0,0,0,46.445,50.1,5.182,5.182,0,0,0,42,52.374,10.939,10.939,0,0,0,40.38,58.8q0,4.154,1.717,6.222a5.43,5.43,0,0,0,4.366,2.068A4.993,4.993,0,0,0,50.6,65.316a7.744,7.744,0,0,0,1.311-2.862h5.1A11.13,11.13,0,0,1,53.59,69.008ZM78.449,50.537H66.07v5.677h6.776V60.5H66.07V70.845H60.947V46.2h17.5Zm11.031,13c-.037-3.72,2.926-4.468,5.825-5.843a.547.547,0,0,0,.314-.489l-.009-6.969-9.72,5.511a2.851,2.851,0,0,0-1.708,2.594l-.065,10a1.055,1.055,0,0,0,.563.942l4.8,2.566C89.47,69.073,89.507,66.3,89.48,63.534ZM74.3,60.645,99.006,45.8h-10.1a2.355,2.355,0,0,0-1.726.757l-12.9,14.059C74.267,60.636,74.285,60.654,74.3,60.645Z" transform="translate(-35.1 -45.7)" fill="#253a29"/>
</svg>
