<svg xmlns="http://www.w3.org/2000/svg" width="217.489" height="244.639" viewBox="0 0 217.489 244.639">
  <g id="CHARACTERS" transform="translate(-130.868 -97.367)">
    <g id="Credit_Card" data-name="Credit Card" transform="translate(130.868 97.367)">
      <path id="BG" d="M336.36,149.749c-10.792-17.337-25.768-32.336-43.8-42.166C274.013,97.454,245.32,95.9,224.3,98.447c-10.546,1.286-24.654,4.114-34.234,8.719a91.833,91.833,0,0,0-26.882,20.126c-15.615,16.62-28.2,36.984-31.117,59.627-2.754,21.358-1.052,44.059,8.228,63.621a84.714,84.714,0,0,0,16.394,23.376c1.142-1.8,2.988-4.286,4.675-3.97l-4.336-17.9a16.647,16.647,0,0,1,12.257-20.1l22.433-5.435h0c2.338-3.117,4.741-6.144,6.1-8.049a108.306,108.306,0,0,1,9.9-11.813c2.825-2.973,5.906-5.785,8.707-8.778,1.34-1.43,1.73-1.621,1.835-3.752.086-1.753.16-3.463.249-5.2.16-3.031.421-5.965.561-8.922l.573-.035-.093-1.305c0-5.353-1.169-10.839-1.948-16.1-.37-2.466-1-6.74-1.558-10.659a16.522,16.522,0,0,1-7.519-9.1c-1.445-.074-2.774-.16-3.506-.234-4.017-.421-7.741-3.795-5.2-8.209,1.118-1.948,3.841-2.98,6.693-3.506a29.252,29.252,0,0,1,1.967-11.431,6.832,6.832,0,0,1,4.515-3.9c.651-.366.9-.421,1.219-1.231.183-.456.316-.931.518-1.383,1.971-4.387,6.818-6.623,11.419-6.787a24.878,24.878,0,0,1,7.956,1.223c2.922.877,5.941,2.451,9.031,1.5,1.414-.436,2.275,1.138,1.761,2.291a13.2,13.2,0,0,1-3.093,4.286c4.9,1.648,10.562,3.818,12.79,4.878a88.048,88.048,0,0,1,13.772,8.1c-1.379,1.212-10.309,5.38-13.246,6.366-3.175,1.067-6.428,2.751-9.565,3.471.655,6.584,5.4,30.6,6.233,35.5l.094.639a2.572,2.572,0,0,1,.709.436c1.356,1.106,2.3,5.785,2.8,7.472.9,3.023,1.227,6.171,1.854,9.117,4.94.842,11.431,4.749,15.412,7.581,1.749,1.243,4.761,3.861,7.371,6.187h0l23.586-5.715a16.643,16.643,0,0,1,20.1,12.257l2.727,11.189c4.792,1.632,10,5.022,12.989,9.187a32.977,32.977,0,0,1,3.67,7.383,66.777,66.777,0,0,0,4.831-21.412C349.248,195.647,348.106,168.621,336.36,149.749Z" transform="translate(-130.868 -97.367)" fill="#f7f7f7"/>
      <g id="Character" transform="translate(21.834 8.717)">
        <path id="Path_17636" data-name="Path 17636" d="M405.61,549.73l3.456,14.247a16.647,16.647,0,0,1-12.26,20.1L262.469,616.623a16.643,16.643,0,0,1-20.091-12.245l-1.948-8.065" transform="translate(-219.579 -382.209)" fill="none" stroke="#333" stroke-linecap="round" stroke-linejoin="round" stroke-width="2"/>
        <path id="Path_17637" data-name="Path 17637" d="M205.449,444.791,197.31,411.2a16.647,16.647,0,0,1,12.257-20.1L343.9,358.551a16.643,16.643,0,0,1,20.1,12.257l6.693,27.618" transform="translate(-192.971 -265.224)" fill="none" stroke="#333" stroke-linecap="round" stroke-linejoin="round" stroke-width="2"/>
        <path id="Path_17638" data-name="Path 17638" d="M554.335,466.954c-.2-.752-.39-1.4-.456-1.788-.577-2.751-1.531-4.465-3-5.388-2.139-1.348-4.741-.705-8.037.105-.67.164-1.375.339-2.119.506-4.714,1.056-9.576,2.31-14.442,3.725l-.308.09c-4.223,1.223-5.563,1.831-5.645,6.428-.23,12.549,1.866,19.48,6.234,20.582a4.286,4.286,0,0,0,1.068.121,25.462,25.462,0,0,0,6.83-1.613c.779-.249,1.414-.464,1.847-.577h0c4.956-1.293,10.815-3.117,16.414-4.9C558.48,482.406,555.784,472.354,554.335,466.954Z" transform="translate(-390.418 -326.826)" fill="#ec5b24"/>
        <path id="Path_17639" data-name="Path 17639" d="M531.126,474.46l6.015,5.548L523.7,484.173" transform="translate(-392.489 -336.264)" fill="none" stroke="#333" stroke-linecap="round" stroke-linejoin="round" stroke-width="2"/>
        <path id="Path_17640" data-name="Path 17640" d="M526.36,500.306c10.087-3.035,19.869-6.385,29.921-8.626" transform="translate(-394.113 -346.775)" fill="none" stroke="#333" stroke-linecap="round" stroke-linejoin="round" stroke-width="2"/>
        <path id="Path_17641" data-name="Path 17641" d="M557.387,503.86c-.129,3.958-2.7,8.809-2.583,11.855" transform="translate(-411.473 -354.21)" fill="none" stroke="#333" stroke-linecap="round" stroke-linejoin="round" stroke-width="2"/>
        <line id="Line_218" data-name="Line 218" x1="2.622" y2="12.21" transform="translate(150.62 147.379)" fill="none" stroke="#333" stroke-linecap="round" stroke-linejoin="round" stroke-width="2"/>
        <path id="Path_17642" data-name="Path 17642" d="M564.44,470a33.545,33.545,0,0,1,3.269,5.532c3.7-1.095,7.889-1.286,11.668-2.458" transform="translate(-417.357 -333.541)" fill="none" stroke="#333" stroke-linecap="round" stroke-linejoin="round" stroke-width="2"/>
        <path id="Path_17643" data-name="Path 17643" d="M274.536,492.325c-4.675-10.764,11.212-20.894,19.149-12.35,7.4,7.975,3.97,19.869-7.258,20.426C280.945,500.666,276.8,498.442,274.536,492.325Z" transform="translate(-239.882 -337.68)" fill="none" stroke="#333" stroke-linecap="round" stroke-linejoin="round" stroke-width="2"/>
        <path id="Path_17644" data-name="Path 17644" d="M320.64,481.14c0-5.217,1.683-8.657,8.014-10.753,4.64-1.535,9.6-1.192,12.035,3.647a11.41,11.41,0,0,1-13.114,16.156A9.584,9.584,0,0,1,320.64,481.14Z" transform="translate(-268.54 -333.282)" fill="none" stroke="#333" stroke-linecap="round" stroke-linejoin="round" stroke-width="2"/>
        <path id="Path_17645" data-name="Path 17645" d="M322.93,590.053s14.049-4.8,22.207-7.013c9.417-2.567,19.936-6.339,29.317-8.961" transform="translate(-269.938 -397.072)" fill="none" stroke="#333" stroke-linecap="round" stroke-linejoin="round" stroke-width="2"/>
        <path id="Path_17646" data-name="Path 17646" d="M322.93,621.7c14.134-5.5,26.94-8,41.4-12.389" transform="translate(-269.938 -418.577)" fill="none" stroke="#333" stroke-linecap="round" stroke-linejoin="round" stroke-width="2"/>
        <path id="Path_17647" data-name="Path 17647" d="M337.28,640.227c9.857-3.175,45.676-13.507,45.676-13.507" transform="translate(-278.697 -429.204)" fill="none" stroke="#333" stroke-linecap="round" stroke-linejoin="round" stroke-width="2"/>
        <path id="Path_17648" data-name="Path 17648" d="M287.09,346.932c2.338-3.117,4.741-6.144,6.1-8.049a108.776,108.776,0,0,1,9.9-11.812c2.825-2.973,5.906-5.789,8.707-8.778,1.34-1.43,1.73-1.621,1.835-3.752.086-1.753.16-3.464.249-5.2.16-3.031.421-5.965.561-8.922,3.027-.148,5.844-.448,8.844-.818,6.791-.849,14.384-1.34,20.738-3.97,1.851-.779,2.591-1.558,3.947-.452s2.3,5.785,2.8,7.472c.9,3.023,1.227,6.171,1.854,9.117,4.94.841,11.431,4.749,15.412,7.581,1.749,1.243,4.761,3.861,7.371,6.187" transform="translate(-248.061 -226.493)" fill="none" stroke="#333" stroke-linecap="round" stroke-linejoin="round" stroke-width="2"/>
        <path id="Path_17649" data-name="Path 17649" d="M205.577,569.337c1.948-.666,11.4-10.375,13.784-8.517,3.1,2.416-5.111,10.457-5.844,12.023-.9,1.87-1.118,2.98.908,4.161a28.917,28.917,0,0,0,6.288,2.275c2.24.608,11.688,1.948,11.906,4.734.39,4.675-12.432,3.545-15,3.378a34.611,34.611,0,0,1,9,1.083c2.634.721,7.289,1.617,8.181,4.5,1.695,5.431-11.454,1.792-14.057.113,3.257.81,15.136,3.039,15.74,7.433.468,3.4-5.844,1.364-7.753.884-2.809-.7-7.013-1.091-9.561-2.595,2.119.565,9.74,2.645,9.233,5.68-.74,3.81-12.467-.814-17.3-3.8a23.252,23.252,0,0,1-10.129-15.1c-1.017-4.893-2.174-9.011-1.114-13.986.534-2.49,3.273-7.25,5.98-7.843" transform="translate(-194.559 -388.834)" fill="none" stroke="#333" stroke-linecap="round" stroke-linejoin="round" stroke-width="2"/>
        <path id="Path_17650" data-name="Path 17650" d="M361.85,330.258c2.957.592,8.037,2.992,11.267,1.266,3.565-1.905,3.974-11.193,4.636-14.754,1.309,3.28,4.5,11.855,8.38,12.993,4.387,1.282,5.945-2.653,9.74-3.662" transform="translate(-293.695 -240.009)" fill="none" stroke="#333" stroke-linecap="round" stroke-linejoin="round" stroke-width="2"/>
        <path id="Path_17651" data-name="Path 17651" d="M629.485,448.531c-1.948,2.209-10.554.752-9.962,3.46.479,2.645,4.473,3.8,6.736,5.31,2.493,1.664,3.857,2.295,2.314,5.127-1.8,3.308-6.288,6.872-8.439,10-1.383,2-2.63,6.592,1.558,5.193,3.686-1.231,7.176-5.314,9.506-8.076-2.275,2.793-5.314,5.065-7.4,7.948-1.239,1.71-5.474,5.326-3.506,7.5,3.082,2.244,9.463-6.292,12.077-8.774-3.432,2.2-10.57,10.519-8.711,11.894,2.844,1.527,8.181-4.839,9.74-6.9-2.338,2.525-5.365,8.228-4.286,8.941,5.637,3.386,11.836-17.61,12.377-20.6,1.445-7.995-3.312-25.043-15.14-28.16" transform="translate(-450.553 -316.078)" fill="none" stroke="#333" stroke-linecap="round" stroke-linejoin="round" stroke-width="2"/>
        <path id="Path_17652" data-name="Path 17652" d="M194.551,577.078c-7.184-8.1-10.574-21.307-4.48-31.429.822-1.367,3.3-5.75,5.517-5.334" transform="translate(-186.911 -376.446)" fill="none" stroke="#333" stroke-linecap="round" stroke-linejoin="round" stroke-width="2"/>
        <path id="Path_17653" data-name="Path 17653" d="M649.3,445.585c1.488-1.921,1.293-6.214.662-8.224a34.846,34.846,0,0,0-4.122-8.7c-2.992-4.165-8.182-7.554-12.989-9.187" transform="translate(-459.115 -302.697)" fill="none" stroke="#333" stroke-linecap="round" stroke-linejoin="round" stroke-width="2"/>
        <path id="Path_17654" data-name="Path 17654" d="M326.279,202.925c0-5.353-1.169-10.839-1.948-16.1-.81-5.4-2.86-19.48-2.86-19.48s-7.531-.288-9.74-.518c-4.017-.421-7.741-3.795-5.2-8.209,2.049-3.557,9.471-4.087,13.207-4.04-1.029-6.522.958-13.355,7.558-16.129,4.262-1.788,9.1-1.438,13.636-.939,3.354.362,16.647,5.228,20.368,7.013a88.046,88.046,0,0,1,13.772,8.1c-1.379,1.212-10.309,5.38-13.246,6.366-3.179,1.067-6.428,2.751-9.565,3.471.655,6.584,5.4,30.6,6.234,35.5" transform="translate(-259.421 -130.341)" fill="none" stroke="#333" stroke-linecap="round" stroke-linejoin="round" stroke-width="2"/>
        <path id="Path_17655" data-name="Path 17655" d="M371.126,210.72c-.467,4.437,3.171,7.64,7.27,7.792" transform="translate(-299.332 -175.275)" fill="none" stroke="#333" stroke-linecap="round" stroke-linejoin="round" stroke-width="2"/>
        <line id="Line_219" data-name="Line 219" x1="0.779" y1="3.378" transform="translate(78.546 23.496)" fill="none" stroke="#333" stroke-linecap="round" stroke-linejoin="round" stroke-width="2"/>
        <line id="Line_220" data-name="Line 220" x1="0.779" y1="3.374" transform="translate(86.856 20.122)" fill="none" stroke="#333" stroke-linecap="round" stroke-linejoin="round" stroke-width="2"/>
        <path id="Path_17656" data-name="Path 17656" d="M329.26,213.94c1.364,4.04,3.74,7.613,7.733,9.459.07.035.14.051.21.078-.709-4.827-1.348-9.233-1.348-9.233S332.221,214.1,329.26,213.94Z" transform="translate(-273.802 -177.241)" fill="#333"/>
        <path id="Path_17657" data-name="Path 17657" d="M361.616,122.472c-3.09.955-6.109-.619-9.031-1.5a24.558,24.558,0,0,0-7.956-1.223c-4.6.164-9.448,2.4-11.419,6.787-.2.452-.335.927-.518,1.383-.319.81-.569.865-1.219,1.231a6.907,6.907,0,0,0-4.515,3.9,29.251,29.251,0,0,0-1.967,11.431,30.779,30.779,0,0,1,3.822-.456,23.862,23.862,0,0,0,4.309,8.267c.861,1.079,2.688.16,2.657-1.1-.105-4.675,2.692-8.731,3.144-13.328a12.627,12.627,0,0,0-.082-3.261h.577c.74-.039,1.477-.062,2.217-.094,1.477-.058,2.957-.113,4.43-.234a30.816,30.816,0,0,0,7.683-1.426c4.083-1.422,7.827-4.056,9.631-8.092A1.573,1.573,0,0,0,361.616,122.472Z" transform="translate(-271.195 -119.741)" fill="#333"/>
        <path id="Path_17658" data-name="Path 17658" d="M407.518,346.39c-.031,1.558.655,3.351.912,4.936.327,1.995.612,4,.908,6.019.467,3.117,1.7,8.961,1.7,8.961" transform="translate(-321.57 -258.089)" fill="none" stroke="#333" stroke-linecap="round" stroke-linejoin="round" stroke-width="2"/>
        <path id="Path_17659" data-name="Path 17659" d="M422.52,380.849a.643.643,0,0,0,.518-.129" transform="translate(-330.728 -279.044)" fill="none" stroke="#333" stroke-linecap="round" stroke-linejoin="round" stroke-width="2"/>
        <path id="Path_17660" data-name="Path 17660" d="M326.365,198.167a8.488,8.488,0,0,0-3.475-.6" transform="translate(-269.913 -167.234)" fill="none" stroke="#333" stroke-linecap="round" stroke-linejoin="round" stroke-width="2"/>
      </g>
    </g>
  </g>
</svg>
