<svg width="54" height="56" viewBox="0 0 54 56" fill="none" xmlns="http://www.w3.org/2000/svg">
<g id="destination">
<g id="Path 17733">
<mask id="path-1-outside-1_3_131" maskUnits="userSpaceOnUse" x="30.9557" y="26.431" width="23" height="29" fill="black">
<rect fill="white" x="30.9557" y="26.431" width="23" height="29"/>
<path d="M42.5107 27.431C39.7125 27.4347 37.0299 28.548 35.0513 30.5266C33.0726 32.5053 31.9594 35.1878 31.9557 37.986C31.9557 43.639 41.6157 54.475 42.0337 54.936C42.0938 55.0032 42.1674 55.0569 42.2497 55.0936C42.332 55.1304 42.4211 55.1494 42.5112 55.1494C42.6013 55.1494 42.6904 55.1304 42.7727 55.0936C42.855 55.0569 42.9286 55.0032 42.9887 54.936C45.3597 52.2415 47.5502 49.3933 49.5457 46.41C49.6374 46.2676 49.669 46.0947 49.6337 45.929C49.5983 45.7633 49.4987 45.6184 49.3568 45.5259C49.2149 45.4334 49.0421 45.4009 48.8763 45.4354C48.7104 45.4699 48.565 45.5686 48.4717 45.71C46.652 48.4421 44.6614 51.0563 42.5117 53.537C40.5597 51.269 33.2357 42.487 33.2357 37.994C33.2357 35.5337 34.213 33.1742 35.9527 31.4346C37.6924 29.6949 40.0519 28.7175 42.5122 28.7175C44.9725 28.7175 47.332 29.6949 49.0717 31.4346C50.8113 33.1742 51.7887 35.5337 51.7887 37.994C51.7887 39.384 51.0637 41.353 49.6317 43.834C49.5903 43.9063 49.5635 43.9859 49.5528 44.0685C49.5422 44.1511 49.5479 44.235 49.5697 44.3153C49.5915 44.3957 49.6289 44.471 49.6797 44.5369C49.7306 44.6028 49.794 44.6581 49.8662 44.6995C49.9384 44.741 50.0181 44.7678 50.1007 44.7784C50.1833 44.789 50.2671 44.7833 50.3475 44.7615C50.4279 44.7398 50.5032 44.7024 50.5691 44.6515C50.635 44.6006 50.6903 44.5373 50.7317 44.465C52.2747 41.788 53.0597 39.605 53.0597 37.985C53.0578 35.1874 51.946 32.5048 49.9682 30.526C47.9904 28.5473 45.3083 27.4342 42.5107 27.431Z"/>
</mask>
<path d="M42.5107 27.431C39.7125 27.4347 37.0299 28.548 35.0513 30.5266C33.0726 32.5053 31.9594 35.1878 31.9557 37.986C31.9557 43.639 41.6157 54.475 42.0337 54.936C42.0938 55.0032 42.1674 55.0569 42.2497 55.0936C42.332 55.1304 42.4211 55.1494 42.5112 55.1494C42.6013 55.1494 42.6904 55.1304 42.7727 55.0936C42.855 55.0569 42.9286 55.0032 42.9887 54.936C45.3597 52.2415 47.5502 49.3933 49.5457 46.41C49.6374 46.2676 49.669 46.0947 49.6337 45.929C49.5983 45.7633 49.4987 45.6184 49.3568 45.5259C49.2149 45.4334 49.0421 45.4009 48.8763 45.4354C48.7104 45.4699 48.565 45.5686 48.4717 45.71C46.652 48.4421 44.6614 51.0563 42.5117 53.537C40.5597 51.269 33.2357 42.487 33.2357 37.994C33.2357 35.5337 34.213 33.1742 35.9527 31.4346C37.6924 29.6949 40.0519 28.7175 42.5122 28.7175C44.9725 28.7175 47.332 29.6949 49.0717 31.4346C50.8113 33.1742 51.7887 35.5337 51.7887 37.994C51.7887 39.384 51.0637 41.353 49.6317 43.834C49.5903 43.9063 49.5635 43.9859 49.5528 44.0685C49.5422 44.1511 49.5479 44.235 49.5697 44.3153C49.5915 44.3957 49.6289 44.471 49.6797 44.5369C49.7306 44.6028 49.794 44.6581 49.8662 44.6995C49.9384 44.741 50.0181 44.7678 50.1007 44.7784C50.1833 44.789 50.2671 44.7833 50.3475 44.7615C50.4279 44.7398 50.5032 44.7024 50.5691 44.6515C50.635 44.6006 50.6903 44.5373 50.7317 44.465C52.2747 41.788 53.0597 39.605 53.0597 37.985C53.0578 35.1874 51.946 32.5048 49.9682 30.526C47.9904 28.5473 45.3083 27.4342 42.5107 27.431Z" fill="black"/>
<path d="M42.5107 27.431C39.7125 27.4347 37.0299 28.548 35.0513 30.5266C33.0726 32.5053 31.9594 35.1878 31.9557 37.986C31.9557 43.639 41.6157 54.475 42.0337 54.936C42.0938 55.0032 42.1674 55.0569 42.2497 55.0936C42.332 55.1304 42.4211 55.1494 42.5112 55.1494C42.6013 55.1494 42.6904 55.1304 42.7727 55.0936C42.855 55.0569 42.9286 55.0032 42.9887 54.936C45.3597 52.2415 47.5502 49.3933 49.5457 46.41C49.6374 46.2676 49.669 46.0947 49.6337 45.929C49.5983 45.7633 49.4987 45.6184 49.3568 45.5259C49.2149 45.4334 49.0421 45.4009 48.8763 45.4354C48.7104 45.4699 48.565 45.5686 48.4717 45.71C46.652 48.4421 44.6614 51.0563 42.5117 53.537C40.5597 51.269 33.2357 42.487 33.2357 37.994C33.2357 35.5337 34.213 33.1742 35.9527 31.4346C37.6924 29.6949 40.0519 28.7175 42.5122 28.7175C44.9725 28.7175 47.332 29.6949 49.0717 31.4346C50.8113 33.1742 51.7887 35.5337 51.7887 37.994C51.7887 39.384 51.0637 41.353 49.6317 43.834C49.5903 43.9063 49.5635 43.9859 49.5528 44.0685C49.5422 44.1511 49.5479 44.235 49.5697 44.3153C49.5915 44.3957 49.6289 44.471 49.6797 44.5369C49.7306 44.6028 49.794 44.6581 49.8662 44.6995C49.9384 44.741 50.0181 44.7678 50.1007 44.7784C50.1833 44.789 50.2671 44.7833 50.3475 44.7615C50.4279 44.7398 50.5032 44.7024 50.5691 44.6515C50.635 44.6006 50.6903 44.5373 50.7317 44.465C52.2747 41.788 53.0597 39.605 53.0597 37.985C53.0578 35.1874 51.946 32.5048 49.9682 30.526C47.9904 28.5473 45.3083 27.4342 42.5107 27.431Z" stroke="black" stroke-width="0.2" mask="url(#path-1-outside-1_3_131)"/>
</g>
<path id="Path 17734" d="M37.2927 37.986C37.2927 39.0162 37.5982 40.0233 38.1706 40.8799C38.743 41.7366 39.5565 42.4042 40.5083 42.7985C41.4601 43.1927 42.5075 43.2959 43.5179 43.0949C44.5284 42.8939 45.4566 42.3978 46.185 41.6693C46.9135 40.9408 47.4096 40.0126 47.6106 39.0022C47.8116 37.9918 47.7085 36.9444 47.3142 35.9926C46.92 35.0408 46.2523 34.2272 45.3957 33.6549C44.5391 33.0825 43.532 32.777 42.5017 32.777C41.1206 32.7783 39.7965 33.3275 38.8199 34.3041C37.8433 35.2807 37.294 36.6049 37.2927 37.986ZM46.4407 37.986C46.4411 38.7636 46.2109 39.5238 45.7791 40.1706C45.3474 40.8173 44.7335 41.3215 44.0152 41.6193C43.2969 41.9171 42.5064 41.9951 41.7437 41.8436C40.981 41.6921 40.2804 41.3177 39.7304 40.768C39.1805 40.2182 38.806 39.5177 38.6543 38.755C38.5026 37.9923 38.5804 37.2018 38.878 36.4834C39.1757 35.765 39.6797 35.151 40.3263 34.7191C40.9729 34.2872 41.7331 34.0568 42.5107 34.057C43.5523 34.0588 44.5507 34.4733 45.2873 35.2097C46.0238 35.9461 46.4386 36.9444 46.4407 37.986Z" fill="black"/>
<path id="Ellipse 55" d="M22.6527 10.7C23.2878 10.7 23.8027 10.1852 23.8027 9.55002C23.8027 8.9149 23.2878 8.40002 22.6527 8.40002C22.0176 8.40002 21.5027 8.9149 21.5027 9.55002C21.5027 10.1852 22.0176 10.7 22.6527 10.7Z" fill="black"/>
<path id="Ellipse 56" d="M22.6527 15.526C23.2878 15.526 23.8027 15.0111 23.8027 14.376C23.8027 13.7408 23.2878 13.226 22.6527 13.226C22.0176 13.226 21.5027 13.7408 21.5027 14.376C21.5027 15.0111 22.0176 15.526 22.6527 15.526Z" fill="black"/>
<path id="Ellipse 57" d="M22.6527 27.3C23.2878 27.3 23.8027 26.7851 23.8027 26.15C23.8027 25.5149 23.2878 25 22.6527 25C22.0176 25 21.5027 25.5149 21.5027 26.15C21.5027 26.7851 22.0176 27.3 22.6527 27.3Z" fill="black"/>
<path id="Ellipse 58" d="M22.6527 31.845C23.2878 31.845 23.8027 31.3302 23.8027 30.695C23.8027 30.0599 23.2878 29.545 22.6527 29.545C22.0176 29.545 21.5027 30.0599 21.5027 30.695C21.5027 31.3302 22.0176 31.845 22.6527 31.845Z" fill="black"/>
<g id="Path 17735">
<mask id="path-7-outside-2_3_131" maskUnits="userSpaceOnUse" x="14.5253" y="32.6379" width="17" height="23" fill="black">
<rect fill="white" x="14.5253" y="32.6379" width="17" height="23"/>
<path d="M30.5998 33.6379H17.3418C17.1722 33.6379 17.0095 33.7053 16.8896 33.8252C16.7696 33.9452 16.7023 34.1078 16.7023 34.2774C16.7023 34.447 16.7696 34.6097 16.8896 34.7296C17.0095 34.8496 17.1722 34.9169 17.3418 34.9169H18.5158V53.8619H16.1648C15.9952 53.8619 15.8325 53.9293 15.7126 54.0492C15.5926 54.1692 15.5253 54.3318 15.5253 54.5014C15.5253 54.671 15.5926 54.8337 15.7126 54.9536C15.8325 55.0736 15.9952 55.1409 16.1648 55.1409H28.5368C28.7064 55.1409 28.869 55.0736 28.989 54.9536C29.1089 54.8337 29.1763 54.671 29.1763 54.5014C29.1763 54.3318 29.1089 54.1692 28.989 54.0492C28.869 53.9293 28.7064 53.8619 28.5368 53.8619H26.1838V34.9169H30.5918C30.7608 34.9156 30.9226 34.8479 31.0422 34.7283C31.1617 34.6088 31.2295 34.447 31.2308 34.2779C31.2316 34.1095 31.1656 33.9476 31.0474 33.8277C30.9291 33.7077 30.7682 33.6395 30.5998 33.6379ZM24.9158 53.8619H19.7978V34.9169H24.9158V53.8619Z"/>
</mask>
<path d="M30.5998 33.6379H17.3418C17.1722 33.6379 17.0095 33.7053 16.8896 33.8252C16.7696 33.9452 16.7023 34.1078 16.7023 34.2774C16.7023 34.447 16.7696 34.6097 16.8896 34.7296C17.0095 34.8496 17.1722 34.9169 17.3418 34.9169H18.5158V53.8619H16.1648C15.9952 53.8619 15.8325 53.9293 15.7126 54.0492C15.5926 54.1692 15.5253 54.3318 15.5253 54.5014C15.5253 54.671 15.5926 54.8337 15.7126 54.9536C15.8325 55.0736 15.9952 55.1409 16.1648 55.1409H28.5368C28.7064 55.1409 28.869 55.0736 28.989 54.9536C29.1089 54.8337 29.1763 54.671 29.1763 54.5014C29.1763 54.3318 29.1089 54.1692 28.989 54.0492C28.869 53.9293 28.7064 53.8619 28.5368 53.8619H26.1838V34.9169H30.5918C30.7608 34.9156 30.9226 34.8479 31.0422 34.7283C31.1617 34.6088 31.2295 34.447 31.2308 34.2779C31.2316 34.1095 31.1656 33.9476 31.0474 33.8277C30.9291 33.7077 30.7682 33.6395 30.5998 33.6379ZM24.9158 53.8619H19.7978V34.9169H24.9158V53.8619Z" fill="black"/>
<path d="M30.5998 33.6379H17.3418C17.1722 33.6379 17.0095 33.7053 16.8896 33.8252C16.7696 33.9452 16.7023 34.1078 16.7023 34.2774C16.7023 34.447 16.7696 34.6097 16.8896 34.7296C17.0095 34.8496 17.1722 34.9169 17.3418 34.9169H18.5158V53.8619H16.1648C15.9952 53.8619 15.8325 53.9293 15.7126 54.0492C15.5926 54.1692 15.5253 54.3318 15.5253 54.5014C15.5253 54.671 15.5926 54.8337 15.7126 54.9536C15.8325 55.0736 15.9952 55.1409 16.1648 55.1409H28.5368C28.7064 55.1409 28.869 55.0736 28.989 54.9536C29.1089 54.8337 29.1763 54.671 29.1763 54.5014C29.1763 54.3318 29.1089 54.1692 28.989 54.0492C28.869 53.9293 28.7064 53.8619 28.5368 53.8619H26.1838V34.9169H30.5918C30.7608 34.9156 30.9226 34.8479 31.0422 34.7283C31.1617 34.6088 31.2295 34.447 31.2308 34.2779C31.2316 34.1095 31.1656 33.9476 31.0474 33.8277C30.9291 33.7077 30.7682 33.6395 30.5998 33.6379ZM24.9158 53.8619H19.7978V34.9169H24.9158V53.8619Z" stroke="black" stroke-width="0.2" mask="url(#path-7-outside-2_3_131)"/>
</g>
<g id="Path 17736">
<mask id="path-8-outside-3_3_131" maskUnits="userSpaceOnUse" x="0" y="0" width="42" height="36" fill="black">
<rect fill="white" width="42" height="36"/>
<path d="M15.9947 34.277C15.9934 34.1079 15.9257 33.9462 15.8061 33.8266C15.6866 33.707 15.5248 33.6393 15.3557 33.638H14.6477V22.895H36.7277L40.0217 26.15C40.0816 26.2091 40.1526 26.2558 40.2305 26.2875C40.3084 26.3192 40.3918 26.3352 40.476 26.3346C40.5601 26.3341 40.6433 26.317 40.7208 26.2843C40.7983 26.2515 40.8686 26.2039 40.9277 26.144C40.9868 26.0841 41.0336 26.0132 41.0652 25.9352C41.0969 25.8573 41.1129 25.7739 41.1124 25.6898C41.1118 25.6056 41.0947 25.5224 41.062 25.4449C41.0293 25.3674 40.9816 25.2971 40.9217 25.238L37.4377 21.804C37.3784 21.7445 37.308 21.6973 37.2304 21.665C37.1529 21.6327 37.0697 21.6161 36.9857 21.616H26.1917V18.598H30.7017C30.8708 18.5967 31.0326 18.5289 31.1521 18.4094C31.2717 18.2898 31.3394 18.1281 31.3407 17.959V9.816C31.3407 9.64639 31.2734 9.48373 31.1534 9.3638C31.0335 9.24388 30.8708 9.1765 30.7012 9.1765C30.5316 9.1765 30.369 9.24388 30.249 9.3638C30.1291 9.48373 30.0617 9.64639 30.0617 9.816V17.316H7.98073L2.54073 11.95L7.98073 6.579H30.0627V7.379C30.0627 7.54861 30.1301 7.71127 30.25 7.83119C30.37 7.95112 30.5326 8.0185 30.7022 8.0185C30.8718 8.0185 31.0345 7.95112 31.1544 7.83119C31.2744 7.71127 31.3417 7.54861 31.3417 7.379V5.937C31.3404 5.76793 31.2727 5.60616 31.1531 5.4866C31.0336 5.36705 30.8718 5.29931 30.7027 5.298H26.1927V1.639C26.1914 1.46993 26.1237 1.30816 26.0041 1.1886C25.8846 1.06905 25.7228 1.00131 25.5537 1H19.1577C18.9887 1.00131 18.8269 1.06905 18.7073 1.1886C18.5878 1.30816 18.52 1.46993 18.5187 1.639V5.297H7.72773C7.64373 5.29709 7.56058 5.31374 7.48302 5.346C7.40546 5.37826 7.33502 5.42549 7.27573 5.485L1.18573 11.496C1.06678 11.6156 1 11.7773 1 11.946C1 12.1147 1.06678 12.2764 1.18573 12.396L7.27273 18.41C7.33202 18.4695 7.40246 18.5167 7.48002 18.549C7.55758 18.5813 7.64073 18.5979 7.72473 18.598H18.5277V21.616H14.0177C13.8487 21.6173 13.6869 21.6851 13.5673 21.8046C13.4478 21.9242 13.38 22.0859 13.3787 22.255V34.277C13.38 34.4461 13.4478 34.6078 13.5673 34.7274C13.6869 34.847 13.8487 34.9147 14.0177 34.916H15.3647C15.5328 34.9142 15.6933 34.846 15.8113 34.7263C15.9294 34.6066 15.9953 34.4451 15.9947 34.277ZM19.7947 2.277H24.9107V5.297H19.7977L19.7947 2.277ZM19.7947 18.596H24.9107V21.614H19.7977L19.7947 18.596Z"/>
</mask>
<path d="M15.9947 34.277C15.9934 34.1079 15.9257 33.9462 15.8061 33.8266C15.6866 33.707 15.5248 33.6393 15.3557 33.638H14.6477V22.895H36.7277L40.0217 26.15C40.0816 26.2091 40.1526 26.2558 40.2305 26.2875C40.3084 26.3192 40.3918 26.3352 40.476 26.3346C40.5601 26.3341 40.6433 26.317 40.7208 26.2843C40.7983 26.2515 40.8686 26.2039 40.9277 26.144C40.9868 26.0841 41.0336 26.0132 41.0652 25.9352C41.0969 25.8573 41.1129 25.7739 41.1124 25.6898C41.1118 25.6056 41.0947 25.5224 41.062 25.4449C41.0293 25.3674 40.9816 25.2971 40.9217 25.238L37.4377 21.804C37.3784 21.7445 37.308 21.6973 37.2304 21.665C37.1529 21.6327 37.0697 21.6161 36.9857 21.616H26.1917V18.598H30.7017C30.8708 18.5967 31.0326 18.5289 31.1521 18.4094C31.2717 18.2898 31.3394 18.1281 31.3407 17.959V9.816C31.3407 9.64639 31.2734 9.48373 31.1534 9.3638C31.0335 9.24388 30.8708 9.1765 30.7012 9.1765C30.5316 9.1765 30.369 9.24388 30.249 9.3638C30.1291 9.48373 30.0617 9.64639 30.0617 9.816V17.316H7.98073L2.54073 11.95L7.98073 6.579H30.0627V7.379C30.0627 7.54861 30.1301 7.71127 30.25 7.83119C30.37 7.95112 30.5326 8.0185 30.7022 8.0185C30.8718 8.0185 31.0345 7.95112 31.1544 7.83119C31.2744 7.71127 31.3417 7.54861 31.3417 7.379V5.937C31.3404 5.76793 31.2727 5.60616 31.1531 5.4866C31.0336 5.36705 30.8718 5.29931 30.7027 5.298H26.1927V1.639C26.1914 1.46993 26.1237 1.30816 26.0041 1.1886C25.8846 1.06905 25.7228 1.00131 25.5537 1H19.1577C18.9887 1.00131 18.8269 1.06905 18.7073 1.1886C18.5878 1.30816 18.52 1.46993 18.5187 1.639V5.297H7.72773C7.64373 5.29709 7.56058 5.31374 7.48302 5.346C7.40546 5.37826 7.33502 5.42549 7.27573 5.485L1.18573 11.496C1.06678 11.6156 1 11.7773 1 11.946C1 12.1147 1.06678 12.2764 1.18573 12.396L7.27273 18.41C7.33202 18.4695 7.40246 18.5167 7.48002 18.549C7.55758 18.5813 7.64073 18.5979 7.72473 18.598H18.5277V21.616H14.0177C13.8487 21.6173 13.6869 21.6851 13.5673 21.8046C13.4478 21.9242 13.38 22.0859 13.3787 22.255V34.277C13.38 34.4461 13.4478 34.6078 13.5673 34.7274C13.6869 34.847 13.8487 34.9147 14.0177 34.916H15.3647C15.5328 34.9142 15.6933 34.846 15.8113 34.7263C15.9294 34.6066 15.9953 34.4451 15.9947 34.277ZM19.7947 2.277H24.9107V5.297H19.7977L19.7947 2.277ZM19.7947 18.596H24.9107V21.614H19.7977L19.7947 18.596Z" fill="black"/>
<path d="M15.9947 34.277C15.9934 34.1079 15.9257 33.9462 15.8061 33.8266C15.6866 33.707 15.5248 33.6393 15.3557 33.638H14.6477V22.895H36.7277L40.0217 26.15C40.0816 26.2091 40.1526 26.2558 40.2305 26.2875C40.3084 26.3192 40.3918 26.3352 40.476 26.3346C40.5601 26.3341 40.6433 26.317 40.7208 26.2843C40.7983 26.2515 40.8686 26.2039 40.9277 26.144C40.9868 26.0841 41.0336 26.0132 41.0652 25.9352C41.0969 25.8573 41.1129 25.7739 41.1124 25.6898C41.1118 25.6056 41.0947 25.5224 41.062 25.4449C41.0293 25.3674 40.9816 25.2971 40.9217 25.238L37.4377 21.804C37.3784 21.7445 37.308 21.6973 37.2304 21.665C37.1529 21.6327 37.0697 21.6161 36.9857 21.616H26.1917V18.598H30.7017C30.8708 18.5967 31.0326 18.5289 31.1521 18.4094C31.2717 18.2898 31.3394 18.1281 31.3407 17.959V9.816C31.3407 9.64639 31.2734 9.48373 31.1534 9.3638C31.0335 9.24388 30.8708 9.1765 30.7012 9.1765C30.5316 9.1765 30.369 9.24388 30.249 9.3638C30.1291 9.48373 30.0617 9.64639 30.0617 9.816V17.316H7.98073L2.54073 11.95L7.98073 6.579H30.0627V7.379C30.0627 7.54861 30.1301 7.71127 30.25 7.83119C30.37 7.95112 30.5326 8.0185 30.7022 8.0185C30.8718 8.0185 31.0345 7.95112 31.1544 7.83119C31.2744 7.71127 31.3417 7.54861 31.3417 7.379V5.937C31.3404 5.76793 31.2727 5.60616 31.1531 5.4866C31.0336 5.36705 30.8718 5.29931 30.7027 5.298H26.1927V1.639C26.1914 1.46993 26.1237 1.30816 26.0041 1.1886C25.8846 1.06905 25.7228 1.00131 25.5537 1H19.1577C18.9887 1.00131 18.8269 1.06905 18.7073 1.1886C18.5878 1.30816 18.52 1.46993 18.5187 1.639V5.297H7.72773C7.64373 5.29709 7.56058 5.31374 7.48302 5.346C7.40546 5.37826 7.33502 5.42549 7.27573 5.485L1.18573 11.496C1.06678 11.6156 1 11.7773 1 11.946C1 12.1147 1.06678 12.2764 1.18573 12.396L7.27273 18.41C7.33202 18.4695 7.40246 18.5167 7.48002 18.549C7.55758 18.5813 7.64073 18.5979 7.72473 18.598H18.5277V21.616H14.0177C13.8487 21.6173 13.6869 21.6851 13.5673 21.8046C13.4478 21.9242 13.38 22.0859 13.3787 22.255V34.277C13.38 34.4461 13.4478 34.6078 13.5673 34.7274C13.6869 34.847 13.8487 34.9147 14.0177 34.916H15.3647C15.5328 34.9142 15.6933 34.846 15.8113 34.7263C15.9294 34.6066 15.9953 34.4451 15.9947 34.277ZM19.7947 2.277H24.9107V5.297H19.7977L19.7947 2.277ZM19.7947 18.596H24.9107V21.614H19.7977L19.7947 18.596Z" stroke="black" stroke-width="0.2" mask="url(#path-8-outside-3_3_131)"/>
</g>
<path id="Ellipse 59" d="M42.4977 42.574C44.983 42.574 46.9977 40.5593 46.9977 38.074C46.9977 35.5887 44.983 33.574 42.4977 33.574C40.0124 33.574 37.9977 35.5887 37.9977 38.074C37.9977 40.5593 40.0124 42.574 42.4977 42.574Z" fill="black"/>
</g>
</svg>
