<svg xmlns="http://www.w3.org/2000/svg" width="52.06" height="54.149" viewBox="0 0 52.06 54.149">
  <g id="destination" transform="translate(-2.47 -1.25)">
    <path id="Path_17733" data-name="Path 17733" d="M49.335,32.25A10.569,10.569,0,0,0,38.78,42.805c0,5.653,9.66,16.489,10.078,16.95a.641.641,0,0,0,.955,0,81.485,81.485,0,0,0,6.557-8.526.641.641,0,0,0-1.074-.7,77.861,77.861,0,0,1-5.96,7.827c-1.952-2.268-9.276-11.05-9.276-15.543a9.276,9.276,0,1,1,18.553,0c0,1.39-.725,3.359-2.157,5.84a.634.634,0,1,0,1.1.631c1.543-2.677,2.328-4.86,2.328-6.48A10.561,10.561,0,0,0,49.335,32.25Z" transform="translate(-5.352 -4.569)"/>
    <path id="Path_17734" data-name="Path 17734" d="M45.04,43.729a5.209,5.209,0,1,0,5.209-5.209A5.214,5.214,0,0,0,45.04,43.729Zm9.148,0A3.931,3.931,0,1,1,50.258,39.8,3.937,3.937,0,0,1,54.188,43.729Z" transform="translate(-6.275 -5.493)"/>
    <circle id="Ellipse_55" data-name="Ellipse 55" cx="0.853" cy="0.853" r="0.853" transform="translate(22.975 9.213)"/>
    <circle id="Ellipse_56" data-name="Ellipse 56" cx="0.853" cy="0.853" r="0.853" transform="translate(22.975 13.476)"/>
    <circle id="Ellipse_57" data-name="Ellipse 57" cx="0.853" cy="0.853" r="0.853" transform="translate(22.975 25.532)"/>
    <circle id="Ellipse_58" data-name="Ellipse 58" cx="0.853" cy="0.853" r="0.853" transform="translate(22.975 29.795)"/>
    <path id="Path_17735" data-name="Path 17735" d="M34.584,39.53H21.326a.639.639,0,1,0,0,1.279H22.5V59.754H20.149a.639.639,0,1,0,0,1.279H32.521a.639.639,0,0,0,0-1.279H30.168V40.809h4.408a.644.644,0,0,0,.639-.639A.637.637,0,0,0,34.584,39.53ZM28.9,59.754H23.782V40.809H28.9Z" transform="translate(-2.512 -5.642)"/>
    <path id="Path_17736" data-name="Path 17736" d="M17.467,34.527a.644.644,0,0,0-.639-.639H16.12V23.145H38.2L41.494,26.4a.639.639,0,1,0,.9-.912L38.91,22.054a.639.639,0,0,0-.452-.188H27.664V18.848h4.51a.644.644,0,0,0,.639-.639V10.066a.639.639,0,0,0-1.279,0v7.5H9.453L4.013,12.2l5.44-5.371H31.535v.8a.639.639,0,0,0,1.279,0V6.187a.644.644,0,0,0-.639-.639h-4.51V1.889a.644.644,0,0,0-.639-.639H20.63a.644.644,0,0,0-.639.639V5.547H9.2a.639.639,0,0,0-.452.188L2.658,11.746a.638.638,0,0,0,0,.9L8.745,18.66a.639.639,0,0,0,.452.188H20v3.018h-4.51a.644.644,0,0,0-.639.639V34.527a.644.644,0,0,0,.639.639h1.347A.637.637,0,0,0,17.467,34.527Zm3.8-32h5.116V5.547H21.27Zm0,16.319h5.116v3.018H21.27Z"/>
    <circle id="Ellipse_59" data-name="Ellipse 59" cx="4.5" cy="4.5" r="4.5" transform="translate(39.47 33.824)"/>
  </g>
</svg>
