<svg xmlns="http://www.w3.org/2000/svg" xmlns:xlink="http://www.w3.org/1999/xlink" width="581" height="260" viewBox="0 0 581 260">
  <defs>
    <clipPath id="clip-path">
      <rect id="Rectangle_4" data-name="Rectangle 4" width="581" height="260" transform="translate(0.023 0.328)" fill="#fff" stroke="#707070" stroke-width="1"/>
    </clipPath>
    <clipPath id="clip-path-2">
      <rect id="Rectangle_2" data-name="Rectangle 2" width="353.748" height="229.626" fill="#fff" stroke="#707070" stroke-width="1"/>
    </clipPath>
  </defs>
  <g id="Group_4" data-name="Group 4" transform="translate(-906.023 -512.328)">
    <g id="Mask_Group_2" data-name="Mask Group 2" transform="translate(906 512)" clip-path="url(#clip-path)">
      <g id="Group_3" data-name="Group 3" transform="translate(0 -62.837)">
        <text id="_404" data-name="404" transform="translate(0.023 273.165)" fill="#f7f7f7" font-size="287" font-family="SFProDisplay-Bold, SF Pro Display" font-weight="700" letter-spacing="0.04em"><tspan x="0" y="0">404</tspan></text>
        <g id="Group_2" data-name="Group 2" transform="translate(65.164 89.213)">
          <g id="Mask_Group_1" data-name="Mask Group 1" transform="translate(48.485 0)" clip-path="url(#clip-path-2)">
            <g id="noun-international-tour-3147803" transform="translate(51.976 6.206)">
              <path id="Path_1" data-name="Path 1" d="M486.661,312.02H486.6c-12.68.079-25.985,13.371-35.874,24.146-2.259-.513-4.5-1.08-6.678-1.629.8-2.313.782-4.558-6.47-10.866-4.915-4.983-9.675.54-14.495,5.5-1.134-.352-16.422-4.172-21.729-5.507-8.159-2.044-12.515,3.165-16.764,7.468-4.829,4.8,5.869,5.733,25.786,16.58-.89,3.147,1.249,6.84,4.391,7.247,3.755.5,6.711-1.172,7.626-1.432,2.422,1.062,4.873,2.27,7.437,3.52-4.05,4.773-17.453,21.844-21.708,27.53a.67.67,0,0,1-.646.266c-9.842-.761-12.571-2.657-15.164-.115-.868.852-2.108,2.09-3.16,3.144a4.616,4.616,0,0,0,.007,6.517L410.1,415.337a4.583,4.583,0,0,0,3.262,1.351h.009a4.566,4.566,0,0,0,3.26-1.358l2.835-2.848a4.559,4.559,0,0,0,1.321-3.89l-1.529-11.281a.689.689,0,0,1,.257-.655c5.519-4.229,22.276-17.451,27.448-21.851.886,1.857,2.094,4.432,3.052,6.242-4.773,10.822,1.622,13.705,6.029,12.479,1.672,3.49,5.609,11.6,8.561,17.676l3.269,6.738c.258.533.562,1.042.865,1.549l.366.621a1.949,1.949,0,0,0,1.414.964,2.407,2.407,0,0,0,.278.02,1.957,1.957,0,0,0,1.351-.544c.6-.574,1.193-1.127,1.78-1.67,1.383-1.287,2.693-2.5,3.917-3.883a12.414,12.414,0,0,0,3.007-7.784c.2-3.589-5.5-25.965-5.548-26.3,11.139-10.511,8.546-10.337.746-18.718a5.955,5.955,0,0,0-6.1-1.888c-.5-2.142-1.019-4.278-1.609-6.372,9.332-9.273,23.683-21.193,24.44-35.219.221-3.989-2.069-6.691-6.12-6.691Zm-21.072,39.15a3.82,3.82,0,0,0-.987,3.727c.691,2.58,1.3,5.187,1.9,7.791a2.49,2.49,0,0,0,3.991,1.622c1.868-1.236,3.187,1.075,5.957,3.928.644.973,3.657,2.53,1.609,4.563-5.541,5.53-7.357,6.16-6.53,9.241,1.184,4.389,5.562,22.68,5.435,24.95a8.515,8.515,0,0,1-2.031,5.415c-1.121,1.263-2.367,2.417-3.653,3.612l-3.163-6.517c-9.259-19.061-9.137-21.15-12.844-19.815-2.16.784-4.734-.167-1.687-7.064.813-1.843.144-2.711-2.3-7.818-1.712-3.616-1.959-4.516-3.4-4.78a2.921,2.921,0,0,0-2.595,1.073c-1.977,1.915-21.627,17.473-28.142,22.468a4.614,4.614,0,0,0-1.749,4.267l1.529,11.284a.686.686,0,0,1-.2.594l-2.862,2.869a.7.7,0,0,1-.5.21.8.8,0,0,1-.508-.21l-20.948-20.948a.715.715,0,0,1,0-1.008c1.039-1.043,2.266-2.268,3.127-3.11h0a.675.675,0,0,1,.574-.19l11.392,1.385a4.584,4.584,0,0,0,4.235-1.8c21.119-28.248,26.687-30.275,21.58-32.748-3.537-1.723-6.456-3.163-9.146-4.331-2.394-1.028-7.762,3.111-9.28.51-1.123-1.911,1.762-4.184-1.911-5.948l-24.042-11.613c3.671-3.741,6.485-6.711,11.959-5.336.391.1,20.445,5.112,21.534,5.451,5.1,1.527,9.235-10.174,12.869-6.486,6.183,5.692,6.041,6.233,5.295,7.383a2.709,2.709,0,0,0-.287,2.5c.739,1.9,2.539,1.714,3.346,2.037,6.881,1.74,8.3,2.557,10.287.662,8.679-9.37,21.853-22.989,33.182-23.077a2.361,2.361,0,0,1,1.771.526,2.8,2.8,0,0,1,.5,2.054c-.671,12.445-14.489,23.911-23.306,32.673Z" transform="translate(-243.355 -173.534)" fill="#ec5b24"/>
              <path id="Path_1_-_Outline" data-name="Path 1 - Outline" d="M486.595,311.77l.235,0a6.272,6.272,0,0,1,4.58,1.823,6.71,6.71,0,0,1,1.621,5.13c-.3,5.505-2.678,11.155-7.277,17.273-3.982,5.3-9.044,10.176-13.51,14.482-1.273,1.228-2.478,2.389-3.622,3.524.579,2.068,1.087,4.17,1.514,5.989a5.784,5.784,0,0,1,1.382-.169,6.493,6.493,0,0,1,4.718,2.194c.891.958,1.724,1.813,2.458,2.567,2.743,2.818,4.4,4.519,4.354,6.58a6.927,6.927,0,0,1-1.851,4,58.09,58.09,0,0,1-5.616,5.827c.057.241.194.8.37,1.514,1.317,5.358,5.326,21.663,5.153,24.72a12.648,12.648,0,0,1-3.07,7.936c-1.233,1.388-2.545,2.608-3.933,3.9-.545.505-1.163,1.077-1.777,1.668a2.2,2.2,0,0,1-1.524.613,2.662,2.662,0,0,1-.307-.021h-.008a2.186,2.186,0,0,1-1.595-1.088l-.364-.617c-.282-.471-.6-1.006-.874-1.566l-3.45-7.111c-2.95-6.076-6.609-13.611-8.291-17.117a7.469,7.469,0,0,1-1.8.218,5.832,5.832,0,0,1-5.037-2.514c-1.927-2.956-.718-7.3.663-10.468-.806-1.533-1.788-3.6-2.581-5.264l-.28-.588c-5.381,4.547-21.6,17.353-27.21,21.649a.442.442,0,0,0-.161.423l1.529,11.281a4.8,4.8,0,0,1-1.393,4.1l-2.833,2.846a4.815,4.815,0,0,1-3.437,1.432h-.009a4.831,4.831,0,0,1-3.439-1.424l-20.947-20.948a4.864,4.864,0,0,1-.007-6.871c1.413-1.416,2.448-2.445,3.162-3.145a4.535,4.535,0,0,1,3.511-1.353,29.766,29.766,0,0,1,4.111.462c1.983.3,4.451.681,7.736.935l.019,0a.424.424,0,0,0,.408-.169c4.387-5.864,17.31-22.307,21.51-27.3l-.36-.176c-2.318-1.132-4.51-2.2-6.694-3.162-.156.052-.368.138-.625.242a14.4,14.4,0,0,1-5.574,1.267,10.939,10.939,0,0,1-1.446-.1A5.386,5.386,0,0,1,411,352.737a6.32,6.32,0,0,1-.915-4.9c-6.951-3.775-12.861-6.381-17.185-8.287-6.014-2.652-9.327-4.112-9.68-6.013-.149-.8.23-1.624,1.194-2.582.281-.285.57-.581.85-.868a35.386,35.386,0,0,1,5.42-4.843,12.533,12.533,0,0,1,7.152-2.288,14.789,14.789,0,0,1,3.579.465l3.756.943C411.7,326,421.434,328.445,423,328.888l.7-.719a48.7,48.7,0,0,1,4.834-4.586,8.36,8.36,0,0,1,4.976-2.12,5.881,5.881,0,0,1,4.236,2.025c7.127,6.2,7.349,8.585,6.621,10.872,2.043.515,4.152,1.046,6.27,1.53,4.846-5.276,10.626-11.288,16.825-16.007a49.026,49.026,0,0,1,9.469-5.8A24.184,24.184,0,0,1,486.595,311.77Zm-16.827,48.846-.06-.258c-.447-1.911-.987-4.161-1.607-6.361l-.04-.142.1-.1c1.177-1.17,2.418-2.366,3.731-3.632,4.453-4.293,9.5-9.159,13.458-14.423,4.538-6.036,6.886-11.6,7.178-17a6.227,6.227,0,0,0-1.485-4.759,5.848,5.848,0,0,0-4.386-1.668h-.121a23.739,23.739,0,0,0-9.406,2.269,48.529,48.529,0,0,0-9.37,5.742c-6.21,4.727-12.006,10.768-16.857,16.054l-.1.107-.141-.032c-2.216-.5-4.42-1.059-6.552-1.6l-.4-.1.089-.258a4.316,4.316,0,0,0-.2-3.742c-.869-1.755-2.837-3.933-6.2-6.854l-.014-.013a5.415,5.415,0,0,0-3.887-1.883,7.9,7.9,0,0,0-4.669,2.015,48.348,48.348,0,0,0-4.78,4.538q-.4.415-.8.828l-.107.11-.146-.045c-.921-.285-11.175-2.858-17.96-4.56l-3.756-.943a14.287,14.287,0,0,0-3.457-.45c-5.406,0-8.867,3.549-12.215,6.98-.28.287-.57.584-.853.871-.838.833-1.173,1.512-1.057,2.138.3,1.642,3.725,3.149,9.39,5.647,4.368,1.926,10.351,4.563,17.394,8.4l.175.1-.054.192a5.784,5.784,0,0,0,.8,4.683,4.889,4.889,0,0,0,3.382,2.248,10.444,10.444,0,0,0,1.38.091,13.958,13.958,0,0,0,5.386-1.23c.32-.13.572-.232.759-.285l.086-.025.082.036c2.222.974,4.445,2.059,6.8,3.208l.938.458-.208.245c-3.959,4.666-17.239,21.559-21.7,27.518a.918.918,0,0,1-.74.374.946.946,0,0,1-.135-.01c-3.3-.255-5.775-.634-7.765-.938a29.5,29.5,0,0,0-4.036-.457,4.081,4.081,0,0,0-3.161,1.21c-.713.7-1.746,1.727-3.158,3.142a4.364,4.364,0,0,0,.007,6.164l20.947,20.948a4.334,4.334,0,0,0,3.085,1.278h.009a4.318,4.318,0,0,0,3.083-1.285l2.835-2.848a4.308,4.308,0,0,0,1.25-3.68l-1.529-11.281a.942.942,0,0,1,.351-.886c5.693-4.362,22.332-17.5,27.439-21.844l.248-.211.14.293.42.882c.809,1.7,1.816,3.818,2.628,5.352l.057.107-.049.111c-2.447,5.548-1.758,8.557-.75,10.1a5.342,5.342,0,0,0,4.618,2.288,6.96,6.96,0,0,0,1.865-.253l.2-.056.091.189c1.638,3.418,5.376,11.116,8.379,17.3l3.451,7.111c.262.541.577,1.066.854,1.529l.367.622a1.691,1.691,0,0,0,1.231.843,2.133,2.133,0,0,0,.246.018,1.7,1.7,0,0,0,1.178-.474c.617-.593,1.236-1.167,1.783-1.673,1.38-1.283,2.683-2.495,3.9-3.866A12.162,12.162,0,0,0,480.6,407.2c.169-2.983-3.827-19.233-5.139-24.573-.322-1.312-.4-1.624-.407-1.685l-.017-.127.093-.088c4.879-4.6,7.366-7.349,7.413-9.571.039-1.851-1.561-3.5-4.213-6.22-.736-.756-1.57-1.613-2.465-2.575a6,6,0,0,0-4.353-2.035,5.3,5.3,0,0,0-1.5.217Zm16.989-44.952a2.494,2.494,0,0,1,1.825.605,3.023,3.023,0,0,1,.564,2.241c-.261,4.848-2.5,9.956-6.846,15.617a127.225,127.225,0,0,1-12.77,13.563c-1.324,1.273-2.575,2.476-3.75,3.644l-.013.013a3.57,3.57,0,0,0-.922,3.485c.7,2.622,1.33,5.3,1.9,7.8a2.286,2.286,0,0,0,2.174,1.942,2.58,2.58,0,0,0,1.433-.471,2.063,2.063,0,0,1,1.156-.384c1.161,0,2.181,1.131,3.593,2.7.452.5.964,1.069,1.527,1.649l.016.017.013.019a5.161,5.161,0,0,0,.72.743c.719.663,1.615,1.488,1.634,2.506a2.252,2.252,0,0,1-.776,1.628c-1.216,1.214-2.273,2.21-3.122,3.011a19.505,19.505,0,0,0-3.067,3.257,3.138,3.138,0,0,0-.276,2.73c1.185,4.391,5.573,22.719,5.443,25.029a8.761,8.761,0,0,1-2.094,5.568c-1.115,1.256-2.332,2.386-3.62,3.583l-.3.276-3.311-6.821c-1.881-3.873-3.384-7.065-4.592-9.63-1.908-4.052-3.169-6.729-4.146-8.317-1.047-1.7-1.726-2.051-2.424-2.051a4.159,4.159,0,0,0-1.372.309,3.839,3.839,0,0,1-1.285.245,1.944,1.944,0,0,1-1.724-.858c-.787-1.208-.447-3.491,1.009-6.788.663-1.5.3-2.255-1.455-5.863-.25-.515-.534-1.1-.844-1.746-.2-.422-.379-.806-.543-1.157-1.236-2.647-1.53-3.276-2.675-3.485a2.1,2.1,0,0,0-.386-.037,2.919,2.919,0,0,0-1.974,1.028l-.015.015c-1.971,1.908-21.639,17.485-28.164,22.488a4.361,4.361,0,0,0-1.654,4.035l1.529,11.284a.933.933,0,0,1-.271.807l-2.859,2.866a.948.948,0,0,1-.662.283h-.028a1.071,1.071,0,0,1-.674-.285l-20.948-20.948a.966.966,0,0,1,0-1.361c.929-.932,2.226-2.229,3.13-3.112l.073-.071h.009a.938.938,0,0,1,.7-.188l11.392,1.385a4.586,4.586,0,0,0,.525.03,4.3,4.3,0,0,0,3.479-1.728c7.461-9.98,13.068-16.792,16.778-21.3,4.667-5.671,6.8-8.259,6.495-9.638-.113-.517-.592-.946-1.6-1.435l-1.112-.542c-3.019-1.472-5.627-2.744-8.024-3.785a2.082,2.082,0,0,0-.83-.147,11.72,11.72,0,0,0-3.226.761,12.057,12.057,0,0,1-3.4.79,2.051,2.051,0,0,1-1.94-1,3.323,3.323,0,0,1-.155-2.453c.247-1.279.46-2.383-1.648-3.4l-24.356-11.764.4-.409a31.342,31.342,0,0,1,4.335-3.927,8.63,8.63,0,0,1,5.066-1.666,10.9,10.9,0,0,1,2.641.349l.639.16c9.087,2.275,20.09,5.04,20.908,5.295a3.007,3.007,0,0,0,.861.127c2.024,0,3.912-2.02,5.737-3.974,1.621-1.735,3.152-3.373,4.669-3.374h0a2.372,2.372,0,0,1,1.7.793,37.331,37.331,0,0,1,5.282,5.439,1.716,1.716,0,0,1,.049,2.261,2.466,2.466,0,0,0-.264,2.275,2.792,2.792,0,0,0,2.456,1.7,4.547,4.547,0,0,1,.734.184c1.055.267,1.982.512,2.8.729a22.527,22.527,0,0,0,4.89,1.008,3.105,3.105,0,0,0,2.342-1.013,143.759,143.759,0,0,1,15.62-15.039,49.325,49.325,0,0,1,8.887-5.761,20.958,20.958,0,0,1,8.848-2.35Zm-21.365,35.35h0l.021-.021c1.182-1.174,2.438-2.383,3.769-3.662a126.849,126.849,0,0,0,12.72-13.507c4.282-5.578,6.488-10.6,6.744-15.339a2.608,2.608,0,0,0-.426-1.868,2.146,2.146,0,0,0-1.583-.449h-.005a20.468,20.468,0,0,0-8.637,2.3,48.829,48.829,0,0,0-8.795,5.7,143.362,143.362,0,0,0-15.569,14.993l-.011.011a3.6,3.6,0,0,1-2.692,1.156,22.645,22.645,0,0,1-5.018-1.025c-.821-.217-1.752-.464-2.811-.731l-.032-.01a4.025,4.025,0,0,0-.661-.164,3.286,3.286,0,0,1-2.826-2.014,2.96,2.96,0,0,1,.311-2.73c.331-.511.532-.82-.05-1.715a37.179,37.179,0,0,0-5.206-5.347l-.009-.008a1.872,1.872,0,0,0-1.349-.648c-1.3,0-2.759,1.562-4.3,3.215-1.9,2.032-3.861,4.132-6.1,4.132a3.511,3.511,0,0,1-1.007-.149c-.632-.2-8.048-2.074-20.883-5.288l-.64-.16a10.405,10.405,0,0,0-2.519-.334c-3.669,0-6.015,2.356-8.957,5.354l23.728,11.461c2.455,1.179,2.172,2.646,1.922,3.94a2.906,2.906,0,0,0,.1,2.106,1.57,1.57,0,0,0,1.509.75,11.762,11.762,0,0,0,3.244-.765,12.013,12.013,0,0,1,3.382-.786,2.568,2.568,0,0,1,1.029.188c2.408,1.046,5.021,2.32,8.045,3.795l1.111.542c1.461.707,1.766,1.3,1.871,1.778.354,1.617-1.681,4.09-6.6,10.063-3.707,4.5-9.309,11.311-16.764,21.282a4.8,4.8,0,0,1-3.879,1.929,5.1,5.1,0,0,1-.584-.034l-11.394-1.385a.426.426,0,0,0-.367.119l-.077.073c-.9.879-2.149,2.13-3.052,3.036a.465.465,0,0,0,0,.655L413.039,412.4a.578.578,0,0,0,.311.137h.02a.446.446,0,0,0,.323-.136l2.863-2.87a.441.441,0,0,0,.127-.384l-1.529-11.284a4.863,4.863,0,0,1,1.845-4.5c6.519-5,26.159-20.551,28.12-22.45l.014-.014a3.391,3.391,0,0,1,2.323-1.17,2.6,2.6,0,0,1,.477.045c1.4.256,1.778,1.07,3.037,3.765.163.35.343.733.541,1.153.308.644.592,1.227.842,1.742,1.75,3.6,2.22,4.568,1.463,6.284-.951,2.154-1.905,5-1.048,6.313a1.449,1.449,0,0,0,1.3.63,3.339,3.339,0,0,0,1.115-.215,4.545,4.545,0,0,1,1.542-.339c2,0,3.067,2.257,7.022,10.655,1.207,2.564,2.71,5.754,4.59,9.624l3.016,6.213c1.206-1.121,2.347-2.191,3.389-3.365a8.283,8.283,0,0,0,1.969-5.263c.124-2.217-4.284-20.635-5.427-24.871-.685-2.55.365-3.541,3.482-6.481.847-.8,1.9-1.793,3.112-3a1.758,1.758,0,0,0,.629-1.265c-.015-.8-.823-1.55-1.473-2.148a5.525,5.525,0,0,1-.784-.815c-.563-.581-1.074-1.146-1.524-1.646-1.326-1.469-2.283-2.531-3.222-2.531a1.58,1.58,0,0,0-.878.3,3.074,3.074,0,0,1-1.711.555,2.769,2.769,0,0,1-2.661-2.33c-.573-2.5-1.2-5.168-1.9-7.783A4.065,4.065,0,0,1,465.391,351.014Z" transform="translate(-243.355 -173.534)" fill="#fff"/>
              <path id="Path_2" data-name="Path 2" d="M109.256,97.821a1.947,1.947,0,0,0,1.563-.784c1.191-1.6,29.212-39.313,29.212-55.728a30.775,30.775,0,1,0-61.55,0c0,16.416,28.022,54.134,29.215,55.728a1.944,1.944,0,0,0,1.561.784Zm0-83.394a26.909,26.909,0,0,1,26.877,26.879c0,13.043-20.922,43-26.877,51.258C103.3,84.31,82.377,54.356,82.377,41.306a26.909,26.909,0,0,1,26.879-26.879Z" transform="translate(-78.48 -10.533)" fill="#ec5b24"/>
              <path id="Path_2_-_Outline" data-name="Path 2 - Outline" d="M109.256,98.071h0a2.2,2.2,0,0,1-1.762-.885c-.312-.417-7.747-10.372-15.068-22.324a166.7,166.7,0,0,1-9.778-18.041C79.717,50.315,78.23,45.1,78.23,41.309a31.025,31.025,0,1,1,62.05,0c0,16.511-28.067,54.278-29.261,55.877A2.21,2.21,0,0,1,109.256,98.071Zm0-87.288A30.561,30.561,0,0,0,78.73,41.309c0,3.716,1.472,8.866,4.375,15.306A166.212,166.212,0,0,0,92.854,74.6c7.309,11.932,14.73,21.869,15.042,22.286a1.7,1.7,0,0,0,2.723,0c.315-.422,7.8-10.47,15.04-22.288a166.248,166.248,0,0,0,9.748-17.985c2.9-6.44,4.375-11.59,4.375-15.305A30.56,30.56,0,0,0,109.256,10.783Zm0,82.209-.2-.281c-2.691-3.73-9.6-13.521-15.685-23.85C85.909,56.188,82.127,46.917,82.127,41.306a27.128,27.128,0,1,1,54.256,0c0,13.042-20.608,42.643-26.924,51.4Zm0-78.315A26.659,26.659,0,0,0,82.627,41.306c0,2.981,1.124,7.1,3.342,12.255A138.767,138.767,0,0,0,93.8,68.607c5.922,10.061,12.639,19.612,15.457,23.53,2.821-3.923,9.542-13.486,15.456-23.535a138.825,138.825,0,0,0,7.829-15.044c2.217-5.15,3.342-9.272,3.342-12.251A26.658,26.658,0,0,0,109.256,14.677Z" transform="translate(-78.48 -10.533)" fill="#fff"/>
              <path id="Path_3" data-name="Path 3" d="M143.04,60.712a13.8,13.8,0,1,0-13.8,13.775A13.819,13.819,0,0,0,143.04,60.712Zm-23.706,0a9.9,9.9,0,1,1,9.9,9.878A9.915,9.915,0,0,1,119.334,60.712Z" transform="translate(-98.461 -30.2)" fill="#ec5b24"/>
              <path id="Path_3_-_Outline" data-name="Path 3 - Outline" d="M129.24,74.737h0a14.038,14.038,0,1,1,14.05-14.025A14.055,14.055,0,0,1,129.24,74.737Zm0-27.577A13.538,13.538,0,1,0,142.79,60.712,13.567,13.567,0,0,0,129.238,47.16Zm0,23.68a10.14,10.14,0,1,1,10.153-10.128A10.155,10.155,0,0,1,129.238,70.84Zm0-19.781a9.64,9.64,0,1,0,9.653,9.653A9.665,9.665,0,0,0,129.238,51.059Z" transform="translate(-98.461 -30.2)" fill="#fff"/>
              <path id="Path_4" data-name="Path 4" d="M120.866,119.622a1.944,1.944,0,0,0-2.4,1.355A96.125,96.125,0,0,0,115,146.714a97.417,97.417,0,0,0,95.521,97.335c1.775.127,22.529.28,42.046-8.6a98.567,98.567,0,0,0,14.972-8.48,1.949,1.949,0,1,0-2.207-3.212,92.26,92.26,0,0,1-36.383,14.966c10.361-6.938,17.945-19.472,22.738-31.034a1.949,1.949,0,0,0-3.6-1.493c-6.214,14.988-17.606,32.467-33.758,33.889v-45c5.625.057,11.168.327,16.467.876a1.947,1.947,0,1,0,.4-3.874c-5.433-.563-11.111-.842-16.87-.9V148.664h44.386a180.629,180.629,0,0,1-1.97,25.235,1.948,1.948,0,0,0,3.852.587,184.517,184.517,0,0,0,2.017-25.82h43.162a93.065,93.065,0,0,1-5.765,30.7,1.949,1.949,0,0,0,3.653,1.362,97.41,97.41,0,0,0-137.009-120,1.947,1.947,0,1,0,1.839,3.433A92.547,92.547,0,0,1,195.958,54.7c-10.593,7.116-19.587,20.9-25.634,38.77-4.328-1.1-8.508-2.372-12.51-3.817a1.95,1.95,0,0,0-1.321,3.669c4.044,1.459,8.268,2.744,12.634,3.86a169.83,169.83,0,0,0-6.987,47.584l-43.178,0a91.96,91.96,0,0,1,3.262-22.745,1.949,1.949,0,0,0-1.358-2.4Zm22.84,90.427a115.33,115.33,0,0,1,26.6-9.965c6.12,18.182,15.11,31.619,25.478,38.6a93.366,93.366,0,0,1-52.071-28.632Zm66.724,30.062c-14.563-1.267-28.018-16.477-36.319-40.921a173.458,173.458,0,0,1,36.319-4.1Zm-91.446-91.446h43.159a170.788,170.788,0,0,0,6.973,47.708,117.588,117.588,0,0,0-27.995,10.712,93.221,93.221,0,0,1-22.136-58.419Zm91.446,42.525a177.169,177.169,0,0,0-37.523,4.269,166.775,166.775,0,0,1-6.867-46.793h44.388Zm70.7-107.772a116.756,116.756,0,0,1-26.712,9.993c-6.041-17.819-15.015-31.574-25.583-38.687a93.094,93.094,0,0,1,52.3,28.695ZM250.763,94.327a175.249,175.249,0,0,1-36.433,4.1V53.334c15.139,1.27,28.427,17.229,36.433,40.993Zm-36.433,8a178.92,178.92,0,0,0,37.629-4.263,168.4,168.4,0,0,1,6.768,46.711h-44.4Zm41.285-5.2a118.893,118.893,0,0,0,28.1-10.741,92.994,92.994,0,0,1,22.058,58.387l-43.15,0a169.8,169.8,0,0,0-7.007-47.648ZM210.433,53.335V98.44A173.564,173.564,0,0,1,174,94.315c8.006-23.757,21.293-39.71,36.432-40.98ZM172.808,98.04a177.26,177.26,0,0,0,37.623,4.3v42.43l-44.4,0a168.362,168.362,0,0,1,6.773-46.729Z" transform="translate(-98.225 -31.512)" fill="#b2b2b2"/>
              <path id="Path_4_-_Outline" data-name="Path 4 - Outline" d="M212.38,49.086a97.755,97.755,0,0,1,89.894,59.443A96.963,96.963,0,0,1,308,126.915a98.634,98.634,0,0,1,2,19.8,97.365,97.365,0,0,1-6.109,34.1,2.08,2.08,0,0,1-1.989,1.432,2.373,2.373,0,0,1-1.93-.987,2.1,2.1,0,0,1-.2-1.982,92.858,92.858,0,0,0,5.744-30.364h-42.66a184.712,184.712,0,0,1-2.017,25.608,2.084,2.084,0,0,1-2.132,1.855,2.335,2.335,0,0,1-1.761-.777,2.088,2.088,0,0,1-.454-1.741,180.337,180.337,0,0,0,1.965-24.947H214.577v42.024c5.937.066,11.536.368,16.646.9a2.2,2.2,0,0,1,1.96,2.413,2.2,2.2,0,0,1-2.21,1.967c-.067,0-.135,0-.2-.009-4.95-.513-10.4-.806-16.194-.872v44.474c7.158-.713,13.942-4.665,20.168-11.748,6.264-7.126,10.586-15.876,13.109-21.962a2.058,2.058,0,0,1,1.955-1.36,2.4,2.4,0,0,1,1.959,1.029,2.088,2.088,0,0,1,.149,2.016,91.961,91.961,0,0,1-9.307,17.3,53.708,53.708,0,0,1-12.56,13.182,92.625,92.625,0,0,0,18.053-5.4,93.917,93.917,0,0,0,17.087-9.316,2.2,2.2,0,0,1,2.49,3.624,98.814,98.814,0,0,1-15.01,8.5c-18.1,8.238-37.08,8.656-40.7,8.656-.745,0-1.241-.016-1.46-.031a96.888,96.888,0,0,1-53.416-17.145,98.415,98.415,0,0,1-25.915-26.265,97.1,97.1,0,0,1-16.429-54.175,96.385,96.385,0,0,1,3.476-25.8,2.193,2.193,0,0,1,2.378-1.594v-.025l.329.087a2.2,2.2,0,0,1,1.533,2.707,91.724,91.724,0,0,0-3.247,22.428l42.676,0a183.356,183.356,0,0,1,1.951-24.833,155.877,155.877,0,0,1,4.968-22.324c-4.322-1.113-8.494-2.391-12.4-3.8a2.2,2.2,0,0,1,1.488-4.141c3.9,1.408,8.025,2.67,12.265,3.753a102.133,102.133,0,0,1,11.066-23.254,55.315,55.315,0,0,1,13.635-14.761,91.9,91.9,0,0,0-26.252,9.228,2.174,2.174,0,0,1-1.041.267,2.2,2.2,0,0,1-1.034-4.141A97.406,97.406,0,0,1,212.38,49.086Zm89.529,132.662a1.578,1.578,0,0,0,1.52-1.107,96.866,96.866,0,0,0,6.078-33.924,98.132,98.132,0,0,0-1.991-19.7,96.341,96.341,0,0,0-14.71-34.8A97.181,97.181,0,0,0,166.771,60.952a1.7,1.7,0,0,0,.8,3.2,1.652,1.652,0,0,0,.8-.207,92.539,92.539,0,0,1,27.542-9.49l.183.454c-5.217,3.5-10.08,8.647-14.452,15.284a101.85,101.85,0,0,0-11.084,23.359l-.074.219-.224-.057c-4.334-1.1-8.551-2.386-12.533-3.824a1.7,1.7,0,0,0-1.151,3.2c3.97,1.432,8.213,2.728,12.611,3.852l.254.065-.077.251a155.158,155.158,0,0,0-5.027,22.5,182.933,182.933,0,0,0-1.949,25.012l0,.247-43.681,0,.005-.255a92.3,92.3,0,0,1,3.271-22.807,1.7,1.7,0,0,0-1.1-2.064l-.089-.024a1.695,1.695,0,0,0-2.091,1.181,95.884,95.884,0,0,0-3.457,25.671,97.686,97.686,0,0,0,1.947,19.43,96.5,96.5,0,0,0,14.4,34.467,97.669,97.669,0,0,0,41.963,35.141,96.07,96.07,0,0,0,36.968,8.047h.014c.206.015.691.031,1.431.031,3.6,0,22.485-.415,40.494-8.611a98.315,98.315,0,0,0,14.934-8.459,1.7,1.7,0,0,0-1.924-2.8,94.416,94.416,0,0,1-17.178,9.366,93.281,93.281,0,0,1-19.3,5.641l-.183-.454A52.024,52.024,0,0,0,242.2,224.8a91.462,91.462,0,0,0,9.255-17.2,1.572,1.572,0,0,0-.1-1.547,1.892,1.892,0,0,0-1.543-.806,1.579,1.579,0,0,0-1.493,1.051c-2.538,6.121-6.887,14.924-13.2,22.1-6.393,7.273-13.381,11.291-20.772,11.942l-.272.024V194.83l.253,0c5.908.06,11.456.355,16.49.877.049,0,.1.007.154.007a1.706,1.706,0,0,0,1.712-1.519,1.7,1.7,0,0,0-1.514-1.864c-5.166-.536-10.834-.838-16.847-.9l-.247,0V148.414h44.889l0,.253a181.024,181.024,0,0,1-1.973,25.271,1.615,1.615,0,0,0,.339,1.34,1.829,1.829,0,0,0,1.381.6,1.585,1.585,0,0,0,1.637-1.431,184.4,184.4,0,0,0,2.014-25.785l0-.247H306.03l-.005.255a93.394,93.394,0,0,1-5.781,30.783,1.581,1.581,0,0,0,.145,1.522A1.891,1.891,0,0,0,301.908,181.747ZM210.683,53.062v45.63l-.253,0a173.371,173.371,0,0,1-36.484-4.131l-.27-.061.088-.262a106.285,106.285,0,0,1,6.958-16.285,68.921,68.921,0,0,1,8.632-12.722,40.861,40.861,0,0,1,10-8.511,26.206,26.206,0,0,1,11.058-3.632Zm-.5,45.125V53.608a25.8,25.8,0,0,0-10.577,3.541,40.364,40.364,0,0,0-9.875,8.408,68.42,68.42,0,0,0-8.568,12.629,105.5,105.5,0,0,0-6.836,15.946A172.914,172.914,0,0,0,210.183,98.187Zm3.9-45.125.271.023a26.2,26.2,0,0,1,11.059,3.633,40.867,40.867,0,0,1,10,8.514,68.938,68.938,0,0,1,8.633,12.726A106.308,106.308,0,0,1,251,94.247l.013.039v.241l-.195.044a174.677,174.677,0,0,1-36.486,4.108l-.253,0Zm36.358,41.082A105.531,105.531,0,0,0,243.6,78.194a68.441,68.441,0,0,0-8.569-12.633,40.37,40.37,0,0,0-9.876-8.411,25.793,25.793,0,0,0-10.577-3.542V98.176A174.218,174.218,0,0,0,250.438,94.144Zm-21.56-39.667a93.344,93.344,0,0,1,52.436,28.772l.386.419h-.508a116.728,116.728,0,0,1-26.714,9.985l-.224.056-.074-.219a101.79,101.79,0,0,0-11.066-23.3,53.682,53.682,0,0,0-14.42-15.259ZM280.727,83.35a92.821,92.821,0,0,0-50.8-28.169,55.346,55.346,0,0,1,13.6,14.733,102.071,102.071,0,0,1,11.048,23.2A116.36,116.36,0,0,0,280.727,83.35Zm3.046,2.711.133.156A92.49,92.49,0,0,1,300,113.522a93.662,93.662,0,0,1,6.021,31.238l.005.255-43.653,0,0-.247a183.076,183.076,0,0,0-1.954-25.049,154.978,154.978,0,0,0-5.041-22.528l-.011-.036v-.232l.188-.048a118.262,118.262,0,0,0,28.04-10.717Zm21.744,58.455a93.149,93.149,0,0,0-5.984-30.817,91.988,91.988,0,0,0-15.877-27,118.749,118.749,0,0,1-27.725,10.6,155.7,155.7,0,0,1,4.981,22.35,183.475,183.475,0,0,1,1.957,24.87ZM172.558,97.726l.306.07a176.523,176.523,0,0,0,37.57,4.291l.248,0v42.928l-44.9,0,0-.253a183.089,183.089,0,0,1,1.9-24.68A152.961,152.961,0,0,1,172.558,98Zm37.623,4.858a177.02,177.02,0,0,1-37.2-4.249,152.629,152.629,0,0,0-4.8,21.824,182.5,182.5,0,0,0-1.89,24.36l43.894,0Zm41.949-4.821.068.223A152.989,152.989,0,0,1,257.08,120.1a183.1,183.1,0,0,1,1.9,24.669l0,.253h-44.9V102.075l.247,0a189.239,189.239,0,0,0,19.3-1.177,167.6,167.6,0,0,0,18.276-3.08Zm6.344,46.756a182.514,182.514,0,0,0-1.888-24.349,152.7,152.7,0,0,0-4.8-21.816,168.305,168.305,0,0,1-18.1,3.037,189.664,189.664,0,0,1-19.1,1.178v41.95Zm-139.745,3.894H162.39l0,.247a184.966,184.966,0,0,0,1.9,24.778,154.827,154.827,0,0,0,5.065,22.859l.077.251-.254.065A117.485,117.485,0,0,0,141.242,207.3l-.179.1-.133-.156a93.474,93.474,0,0,1-22.2-58.576Zm43.167.5H119.24a92.973,92.973,0,0,0,21.939,57.852A117.973,117.973,0,0,1,168.8,196.194a155.571,155.571,0,0,1-5-22.683A185.375,185.375,0,0,1,161.9,148.914Zm3.893-.5h44.89l0,43.022-.247,0a177.1,177.1,0,0,0-37.47,4.262l-.226.052-.068-.222a151.278,151.278,0,0,1-5-22.473,181.551,181.551,0,0,1-1.876-24.392Zm44.39.5H166.294a180.968,180.968,0,0,0,1.868,24.072,150.991,150.991,0,0,0,4.917,22.177,177.616,177.616,0,0,1,37.1-4.221Zm.5,45.92v45.548l-.272-.024a25.971,25.971,0,0,1-10.755-3.523,40.6,40.6,0,0,1-9.919-8.329,68.257,68.257,0,0,1-8.715-12.67,106.378,106.378,0,0,1-7.146-16.567l-.089-.263.271-.061a173.917,173.917,0,0,1,36.371-4.108Zm-.5,45v-44.5a173.458,173.458,0,0,0-35.742,4.032A105.591,105.591,0,0,0,181.46,215.6a67.758,67.758,0,0,0,8.65,12.578A40.1,40.1,0,0,0,199.9,236.4,25.573,25.573,0,0,0,210.18,239.836Zm-39.716-40.052.074.219a100.629,100.629,0,0,0,11.118,23.442,53.263,53.263,0,0,0,14.263,15.028l-.184.453a93.616,93.616,0,0,1-52.211-28.709l.132-.122-.069-.268a115.658,115.658,0,0,1,26.653-9.988Zm24.216,38.437a54.89,54.89,0,0,1-13.441-14.5,100.9,100.9,0,0,1-11.1-23.339,115.383,115.383,0,0,0-26.029,9.733,93.129,93.129,0,0,0,50.571,28.106Z" transform="translate(-98.225 -31.512)" fill="#fff"/>
            </g>
          </g>
          <path id="Line_1" data-name="Line 1" d="M450.508.5H0v-1H450.508Z" transform="translate(0 230.014)" fill="#b2b2b2"/>
        </g>
      </g>
    </g>
  </g>
</svg>
