<svg width="70" height="56" viewBox="0 0 70 56" fill="none" xmlns="http://www.w3.org/2000/svg">
<g id="FLight booked">
<g id="Path 17742">
<path d="M6.07743 32.5123C6.10371 32.6321 6.10595 32.7558 6.08401 32.8765C6.06208 32.9971 6.0164 33.1122 5.94964 33.215C5.88288 33.3178 5.79636 33.4064 5.6951 33.4755C5.59385 33.5446 5.47987 33.5929 5.35979 33.6177C5.11834 33.6658 4.86763 33.6178 4.66113 33.4837C4.45463 33.3496 4.30869 33.1402 4.25444 32.9L3.42909 29.0193C3.20271 27.9284 3.41607 26.7921 4.0228 25.8576C4.62953 24.9231 5.58058 24.2658 6.66925 24.0286L6.95483 23.9679L13.9833 20.4041C14.4382 20.1674 14.9365 20.0255 15.4479 19.987C15.9593 19.9486 16.4732 20.0143 16.9584 20.1802C17.0586 20.2081 17.157 20.2421 17.253 20.2822C17.2799 20.182 17.3133 20.0837 17.353 19.988L17.3474 19.9615C17.4982 19.4755 17.7457 19.0249 18.0748 18.6368C18.404 18.2487 18.8082 17.931 19.2631 17.7028L30.9746 11.7272C31.1953 11.6232 31.4479 11.6095 31.6786 11.6888C31.9093 11.7681 32.1 11.9343 32.2101 12.152C32.3201 12.3697 32.341 12.6218 32.2681 12.8546C32.1952 13.0875 32.0344 13.2827 31.8198 13.3988L20.1354 19.3676C19.6507 19.6185 19.2827 20.0484 19.1095 20.5661C18.9699 21.0087 18.9851 21.4857 19.1528 21.9185C19.5407 22.0248 19.9083 22.195 20.2402 22.4222C20.3635 22.4978 20.4812 22.5821 20.5924 22.6744C20.675 22.5485 20.7319 22.427 20.8134 22.3003C21.1116 21.832 21.5 21.4277 21.9559 21.111C22.4119 20.7943 22.9264 20.5715 23.4693 20.4556L56.5257 13.4252L52.3567 5.21397C52.0996 4.74231 51.6735 4.38552 51.164 4.21539C50.6506 4.04907 50.0926 4.08963 49.6087 4.32843L37.8971 10.304C37.6752 10.4152 37.4183 10.4342 37.1824 10.3569C36.9465 10.2795 36.7508 10.1121 36.6378 9.89106C36.5813 9.78158 36.5471 9.66194 36.5372 9.53913C36.5274 9.41631 36.5421 9.29276 36.5804 9.17567C36.6188 9.05858 36.6801 8.95029 36.7607 8.85711C36.8413 8.76394 36.9397 8.68773 37.05 8.63293L48.7616 2.65732C49.6841 2.1916 50.7539 2.11117 51.7357 2.43368C52.7242 2.75235 53.5472 3.4478 54.0262 4.36923L58.4212 13.018L59.0726 12.8795C60.1643 12.6526 61.3015 12.8663 62.2365 13.4738C63.1716 14.0813 63.8288 15.0336 64.0651 16.1233L68.7738 38.2633C69.0007 39.3543 68.7876 40.4908 68.1808 41.4254C67.574 42.3601 66.6226 43.0173 65.5336 43.254L58.137 44.8271C57.8953 44.8703 57.6463 44.8179 57.4425 44.6808C57.2388 44.5438 57.0963 44.3329 57.0452 44.0927C56.9942 43.8526 57.0385 43.602 57.1688 43.3939C57.2992 43.1858 57.5053 43.0365 57.7437 42.9777L65.1403 41.4046C65.7402 41.2716 66.2677 40.9166 66.6167 40.4108C66.9566 39.8916 67.0764 39.2587 66.9498 38.6512L62.2411 16.5112C62.179 16.214 62.057 15.9326 61.8826 15.6841C61.7081 15.4356 61.4848 15.2253 61.2263 15.0659C60.9695 14.8976 60.682 14.7815 60.3802 14.7243C60.0785 14.6671 59.7684 14.6699 59.4677 14.7326L23.8627 22.305C23.5625 22.3699 23.278 22.4935 23.0256 22.6686C22.7733 22.8436 22.5579 23.0668 22.3919 23.3252C22.2242 23.5764 22.1099 23.8594 22.056 24.1566C22.0021 24.4538 22.0098 24.7589 22.0786 25.053L20.2292 25.4463C20.1671 25.1492 20.0452 24.8678 19.8709 24.6193C19.6966 24.3708 19.4736 24.1604 19.2154 24.0008C18.9634 23.8318 18.6802 23.7148 18.3824 23.6566C18.0846 23.5985 17.7783 23.6004 17.4812 23.6622L7.06258 25.878C6.76234 25.9429 6.47785 26.0664 6.22546 26.2414C5.97307 26.4165 5.75774 26.6397 5.59184 26.8982C5.42021 27.1488 5.30163 27.4318 5.24337 27.7298C5.18511 28.0279 5.18841 28.3347 5.25306 28.6314L6.07743 32.5123ZM14.0395 22.4611L16.4414 21.9503L16.383 21.9351C15.8676 21.777 15.3107 21.8286 14.8332 22.0787L14.0395 22.4611ZM51.3092 44.3451C51.5509 44.3019 51.8 44.3543 52.0037 44.4914C52.2075 44.6284 52.3499 44.8393 52.401 45.0795C52.4521 45.3196 52.4078 45.5702 52.2774 45.7783C52.1471 45.9864 51.9409 46.1357 51.7026 46.1945L29.9284 50.8254C29.3848 50.9415 28.8235 50.9479 28.2774 50.8445C27.7313 50.7411 27.2113 50.5298 26.7478 50.223C26.6221 50.1414 26.5207 50.0536 26.394 49.9722C26.3296 50.1014 26.2563 50.2259 26.1747 50.3449C25.8812 50.8115 25.4972 51.2146 25.0454 51.5303C24.5936 51.8461 24.083 52.0681 23.544 52.1833L13.1283 54.3985C12.0374 54.6254 10.9011 54.4123 9.96654 53.8057C9.03196 53.1991 8.37472 52.248 8.1378 51.1593L5.61704 39.3069C5.56884 39.0653 5.61702 38.8144 5.75129 38.6078C5.88557 38.4013 6.09529 38.2554 6.33566 38.2013C6.4554 38.1752 6.57914 38.1731 6.69972 38.1951C6.82029 38.2171 6.93531 38.2627 7.0381 38.3295C7.1409 38.3962 7.22944 38.4827 7.2986 38.5839C7.36776 38.6851 7.41617 38.799 7.44101 38.919L9.96156 50.7704C10.0936 51.3766 10.4605 51.9059 10.9819 52.2421C11.5066 52.5619 12.1328 52.6715 12.7349 52.5491L23.1536 50.3332C23.7458 50.2013 24.2649 49.8476 24.6045 49.3449C24.9437 48.8255 25.0632 48.1928 24.9367 47.5855L26.7861 47.1922C26.8463 47.4918 26.9653 47.7766 27.136 48.0301C27.3068 48.2836 27.526 48.5008 27.7811 48.6693C28.3058 48.9889 28.9319 49.0985 29.5341 48.9762L51.3092 44.3451ZM45.8035 29.5896L48.257 29.994L50.3186 30.3436C50.5091 30.369 50.6868 30.4531 50.8271 30.5844C50.9674 30.7157 51.0631 30.8875 51.101 31.0758L51.3225 32.1174C51.3707 32.359 51.3225 32.6099 51.1882 32.8164C51.054 33.023 50.8443 33.1689 50.6039 33.2229L50.421 33.2618L48.4842 33.3742L46.6323 33.4962L47.1421 35.8932L47.3725 35.9526L48.2053 36.1578C48.3761 36.1937 48.5327 36.2789 48.6557 36.4028C48.7787 36.5267 48.8627 36.6839 48.8974 36.855L49.0135 37.4007C49.043 37.522 49.0478 37.6479 49.0277 37.7711C49.0077 37.8943 48.9631 38.0122 48.8966 38.1179C48.8301 38.2235 48.7431 38.3147 48.6408 38.3862C48.5384 38.4576 48.4228 38.5077 48.3007 38.5336C48.2195 38.5455 48.1369 38.5448 48.0559 38.5315L47.3588 38.5704L45.947 38.5987L44.6498 39.1466L43.8948 39.4421C43.6618 39.5332 43.4022 39.529 43.1723 39.4302C42.9423 39.3314 42.7606 39.146 42.6663 38.9142L42.633 38.7577L42.5169 38.212C42.4746 38.0245 42.492 37.8285 42.5667 37.6515C42.6414 37.4744 42.7698 37.3252 42.9336 37.2248L43.5438 36.7679L43.7301 36.6199L43.2201 34.2219L41.4779 34.8643L39.6376 35.5552C39.5215 35.5984 39.398 35.6181 39.2742 35.6132C39.1505 35.6083 39.0289 35.579 38.9166 35.5268C38.8042 35.4747 38.7033 35.4007 38.6198 35.3094C38.5362 35.218 38.4715 35.1109 38.4296 34.9944C38.4004 34.9583 38.382 34.9148 38.3763 34.8687L38.1552 33.8291C38.113 33.6276 38.1379 33.4179 38.2261 33.2319C38.3143 33.046 38.4609 32.894 38.6435 32.7991L40.3125 31.6826L42.3891 30.3148L41.8352 27.7104C41.6689 27.2337 41.6945 26.711 41.9065 26.2528C41.9552 26.1693 41.9912 26.079 42.0131 25.9848C42.0615 25.8926 42.0953 25.7933 42.1131 25.6906C42.289 25.1094 42.3945 24.8416 42.9931 24.7143C43.5672 24.5922 43.7736 24.7936 44.1708 25.253L44.3818 25.481C44.4185 25.5284 44.5188 25.6155 44.5882 25.6825C44.9679 26.0151 45.2038 26.4819 45.2465 26.9849L45.8006 29.5902L45.8035 29.5896ZM42.9297 37.2256C43.0246 37.1735 43.1257 37.1338 43.2307 37.1074ZM42.1799 20.8862C43.9864 20.4993 45.8604 20.5643 47.6357 21.0754C49.411 21.5864 51.0327 22.5278 52.357 23.8159C53.6812 25.104 54.6671 26.6991 55.227 28.4596C55.787 30.2201 55.9038 32.0915 55.567 33.908C55.2303 35.7244 54.4504 37.4297 53.2966 38.8725C52.1427 40.3152 50.6506 41.4509 48.9526 42.1787C47.2546 42.9065 45.4032 43.204 43.5627 43.0447C41.7222 42.8854 39.9494 42.2743 38.4017 41.2656C36.5387 40.0588 35.0758 38.3261 34.1985 36.2871C33.3211 34.2481 33.0688 31.9945 33.4734 29.812C33.878 27.6294 34.9214 25.6161 36.4714 24.0271C38.0214 22.4381 40.0081 21.345 42.1799 20.8862ZM49.5991 24.0188C47.7885 22.8474 45.6278 22.3399 43.4851 22.5827C41.3424 22.8254 39.35 23.8034 37.8473 25.3501C36.3446 26.8967 35.4245 28.9164 35.2437 31.0653C35.0628 33.2141 35.6324 35.3592 36.8554 37.1353C38.0785 38.9114 39.8793 40.2086 41.9513 40.8061C44.0234 41.4035 46.2384 41.2643 48.2193 40.4121C50.2002 39.5599 51.8245 38.0474 52.8155 36.1322C53.8066 34.2169 54.1031 32.0174 53.6546 29.9081C53.4019 28.707 52.9133 27.5679 52.2171 26.5569C51.521 25.546 50.6311 24.6833 49.5991 24.0188ZM22.1173 29.8636C22.1701 29.8523 22.1955 29.8469 22.1899 29.8205C22.2109 29.7895 22.2317 29.7575 22.2261 29.731C22.2205 29.7046 22.1896 29.6846 22.1566 29.664C22.1512 29.6386 22.0994 29.6496 22.073 29.6552C22.0587 29.6567 22.0449 29.6611 22.0325 29.6684C22.0201 29.6756 22.0094 29.6854 22.0011 29.6971C21.9937 29.7096 21.989 29.7235 21.9875 29.738C21.986 29.7524 21.9876 29.767 21.9923 29.7808C21.9936 29.7952 21.9981 29.8092 22.0053 29.8218C22.0126 29.8344 22.0225 29.8452 22.0344 29.8536C22.0467 29.8611 22.0604 29.8659 22.0747 29.8676C22.089 29.8694 22.1036 29.868 22.1173 29.8636ZM23.7686 30.8413C23.6299 31.0648 23.4464 31.2572 23.2297 31.4064C23.0131 31.5555 22.7679 31.6583 22.5096 31.7081C22.2533 31.7624 21.9888 31.7656 21.7313 31.7176C21.4737 31.6696 21.2282 31.5713 21.0087 31.4282C20.5683 31.1358 20.2576 30.685 20.1409 30.1694C20.0306 29.6506 20.1308 29.1093 20.4197 28.6645C20.7085 28.2196 21.1621 27.9077 21.6809 27.7974C21.9371 27.7377 22.2029 27.7317 22.4616 27.7797C22.7202 27.8278 22.9661 27.929 23.1837 28.0768C23.4039 28.2193 23.5938 28.4038 23.7425 28.6197C23.8912 28.8357 23.9959 29.0789 24.0504 29.3354C24.105 29.5919 24.1084 29.8566 24.0604 30.1144C24.0124 30.3722 23.9141 30.618 23.7709 30.8377L23.7686 30.8413ZM24.9178 43.017C24.9706 43.0058 24.9904 42.974 24.985 42.9486C25.0114 42.9429 25.0268 42.8855 25.021 42.8581C25.0152 42.8307 24.9845 42.8117 24.9515 42.7911C24.9391 42.7837 24.9251 42.779 24.9107 42.7775C24.8962 42.776 24.8816 42.7776 24.8679 42.7823C24.8536 42.7837 24.8398 42.7882 24.8274 42.7954C24.815 42.8026 24.8043 42.8125 24.796 42.8242C24.7886 42.8366 24.7839 42.8506 24.7824 42.865C24.7809 42.8795 24.7825 42.8941 24.7872 42.9078C24.7929 42.9342 24.8041 42.987 24.8295 42.9816L24.8604 43.0017C24.8775 43.0125 24.8975 43.0179 24.9178 43.017ZM25.951 41.1893C26.1781 41.3325 26.3744 41.5194 26.5286 41.7391C26.6827 41.9589 26.7916 42.2071 26.8489 42.4694C26.9087 42.7254 26.9148 42.9911 26.8667 43.2496C26.8185 43.5081 26.7173 43.7539 26.5692 43.9712C26.4305 44.1947 26.2471 44.3871 26.0304 44.5363C25.8137 44.6855 25.5685 44.7882 25.3102 44.838C24.8306 44.9436 24.3289 44.8662 23.9034 44.621C23.8724 44.6 23.8396 44.5804 23.8093 44.5582C23.365 44.2703 23.053 43.8179 22.9418 43.3003C22.8439 42.7822 22.9441 42.2462 23.2224 41.7983C23.5185 41.3626 23.9669 41.0535 24.4794 40.9319C24.9849 40.8325 25.5093 40.9242 25.951 41.1893ZM23.5266 36.4517C23.5794 36.4404 23.5994 36.4096 23.5938 36.3832C23.6148 36.3521 23.6356 36.3201 23.6302 36.2947C23.6248 36.2693 23.5937 36.2483 23.5607 36.2277C23.5551 36.2013 23.5033 36.2123 23.4769 36.2179C23.4626 36.2195 23.4487 36.2241 23.4364 36.2315C23.424 36.2389 23.4134 36.2489 23.4052 36.2608C23.3936 36.2868 23.3905 36.316 23.3965 36.3439C23.4024 36.3718 23.4171 36.3972 23.4383 36.4163L23.4694 36.4373C23.4866 36.4477 23.5065 36.4527 23.5266 36.4517ZM25.1734 37.4079C25.0346 37.6313 24.851 37.8235 24.6343 37.9725C24.4176 38.1215 24.1724 38.2241 23.9141 38.2737C23.6742 38.328 23.426 38.3344 23.1837 38.2926C22.9413 38.2509 22.7096 38.1617 22.5017 38.0302C22.4763 38.0356 22.4433 38.0151 22.4134 37.9948C21.9697 37.7064 21.6579 37.2543 21.5459 36.737C21.4426 36.2185 21.543 35.6803 21.8263 35.2339C21.9686 35.0141 22.153 34.8245 22.3687 34.676C22.5845 34.5275 22.8274 34.423 23.0836 34.3685C23.3396 34.3084 23.6054 34.3021 23.8641 34.35C24.1228 34.3979 24.3686 34.499 24.5862 34.647C24.8063 34.7894 24.9962 34.9739 25.1449 35.1899C25.2937 35.4058 25.3983 35.649 25.4529 35.9055C25.5074 36.162 25.5108 36.4267 25.4628 36.6845C25.4149 36.9423 25.3165 37.1881 25.1734 37.4079Z" fill="black"/>
<path d="M42.9297 37.2256C43.0246 37.1735 43.1257 37.1338 43.2307 37.1074M6.07743 32.5123C6.10371 32.6321 6.10595 32.7558 6.08401 32.8765C6.06208 32.9971 6.0164 33.1122 5.94964 33.215C5.88288 33.3178 5.79636 33.4064 5.6951 33.4755C5.59385 33.5446 5.47987 33.5929 5.35979 33.6177C5.11834 33.6658 4.86763 33.6178 4.66113 33.4837C4.45463 33.3496 4.30869 33.1402 4.25444 32.9L3.42909 29.0193C3.20271 27.9284 3.41607 26.7921 4.0228 25.8576C4.62953 24.9231 5.58058 24.2658 6.66925 24.0286L6.95483 23.9679L13.9833 20.4041C14.4382 20.1674 14.9365 20.0255 15.4479 19.987C15.9593 19.9486 16.4732 20.0143 16.9584 20.1802C17.0586 20.2081 17.157 20.2421 17.253 20.2822C17.2799 20.182 17.3133 20.0837 17.353 19.988L17.3474 19.9615C17.4982 19.4755 17.7457 19.0249 18.0748 18.6368C18.404 18.2487 18.8082 17.931 19.2631 17.7028L30.9746 11.7272C31.1953 11.6232 31.4479 11.6095 31.6786 11.6888C31.9093 11.7681 32.1 11.9343 32.2101 12.152C32.3201 12.3697 32.341 12.6218 32.2681 12.8546C32.1952 13.0875 32.0344 13.2827 31.8198 13.3988L20.1354 19.3676C19.6507 19.6185 19.2827 20.0484 19.1095 20.5661C18.9699 21.0087 18.9851 21.4857 19.1528 21.9185C19.5407 22.0248 19.9083 22.195 20.2402 22.4222C20.3635 22.4978 20.4812 22.5821 20.5924 22.6744C20.675 22.5485 20.7319 22.427 20.8134 22.3003C21.1116 21.832 21.5 21.4277 21.9559 21.111C22.4119 20.7943 22.9264 20.5715 23.4693 20.4556L56.5257 13.4252L52.3567 5.21397C52.0996 4.74231 51.6735 4.38552 51.164 4.21539C50.6506 4.04907 50.0926 4.08963 49.6087 4.32843L37.8971 10.304C37.6752 10.4152 37.4183 10.4342 37.1824 10.3569C36.9465 10.2795 36.7508 10.1121 36.6378 9.89106C36.5813 9.78158 36.5471 9.66194 36.5372 9.53913C36.5274 9.41631 36.5421 9.29276 36.5804 9.17567C36.6188 9.05858 36.6801 8.95029 36.7607 8.85711C36.8413 8.76394 36.9397 8.68773 37.05 8.63293L48.7616 2.65732C49.6841 2.1916 50.7539 2.11117 51.7357 2.43368C52.7242 2.75235 53.5472 3.4478 54.0262 4.36923L58.4212 13.018L59.0726 12.8795C60.1643 12.6526 61.3015 12.8663 62.2365 13.4738C63.1716 14.0813 63.8288 15.0336 64.0651 16.1233L68.7738 38.2633C69.0007 39.3543 68.7876 40.4908 68.1808 41.4254C67.574 42.3601 66.6226 43.0173 65.5336 43.254L58.137 44.8271C57.8953 44.8703 57.6463 44.8179 57.4425 44.6808C57.2388 44.5438 57.0963 44.3329 57.0452 44.0927C56.9942 43.8526 57.0385 43.602 57.1688 43.3939C57.2992 43.1858 57.5053 43.0365 57.7437 42.9777L65.1403 41.4046C65.7402 41.2716 66.2677 40.9166 66.6167 40.4108C66.9566 39.8916 67.0764 39.2587 66.9498 38.6512L62.2411 16.5112C62.179 16.214 62.057 15.9326 61.8826 15.6841C61.7081 15.4356 61.4848 15.2253 61.2263 15.0659C60.9695 14.8976 60.682 14.7815 60.3802 14.7243C60.0785 14.6671 59.7684 14.6699 59.4677 14.7326L23.8627 22.305C23.5625 22.3699 23.278 22.4935 23.0256 22.6686C22.7733 22.8436 22.5579 23.0668 22.3919 23.3252C22.2242 23.5764 22.1099 23.8594 22.056 24.1566C22.0021 24.4538 22.0098 24.7589 22.0786 25.053L20.2292 25.4463C20.1671 25.1492 20.0452 24.8678 19.8709 24.6193C19.6966 24.3708 19.4736 24.1604 19.2154 24.0008C18.9634 23.8318 18.6802 23.7148 18.3824 23.6566C18.0846 23.5985 17.7783 23.6004 17.4812 23.6622L7.06258 25.878C6.76234 25.9429 6.47785 26.0664 6.22546 26.2414C5.97307 26.4165 5.75774 26.6397 5.59184 26.8982C5.42021 27.1488 5.30163 27.4318 5.24337 27.7298C5.18511 28.0279 5.18841 28.3347 5.25306 28.6314L6.07743 32.5123ZM14.0395 22.4611L16.4414 21.9503L16.383 21.9351C15.8676 21.777 15.3107 21.8286 14.8332 22.0787L14.0395 22.4611ZM51.3092 44.3451C51.5509 44.3019 51.8 44.3543 52.0037 44.4914C52.2075 44.6284 52.3499 44.8393 52.401 45.0795C52.4521 45.3196 52.4078 45.5702 52.2774 45.7783C52.1471 45.9864 51.9409 46.1357 51.7026 46.1945L29.9284 50.8254C29.3848 50.9415 28.8235 50.9479 28.2774 50.8445C27.7313 50.7411 27.2113 50.5298 26.7478 50.223C26.6221 50.1414 26.5207 50.0536 26.394 49.9722C26.3296 50.1014 26.2563 50.2259 26.1747 50.3449C25.8812 50.8115 25.4972 51.2146 25.0454 51.5303C24.5936 51.8461 24.083 52.0681 23.544 52.1833L13.1283 54.3985C12.0374 54.6254 10.9011 54.4123 9.96654 53.8057C9.03196 53.1991 8.37472 52.248 8.1378 51.1593L5.61704 39.3069C5.56884 39.0653 5.61702 38.8144 5.75129 38.6078C5.88557 38.4013 6.09529 38.2554 6.33566 38.2013C6.4554 38.1752 6.57914 38.1731 6.69972 38.1951C6.82029 38.2171 6.93531 38.2627 7.0381 38.3295C7.1409 38.3962 7.22944 38.4827 7.2986 38.5839C7.36776 38.6851 7.41617 38.799 7.44101 38.919L9.96156 50.7704C10.0936 51.3766 10.4605 51.9059 10.9819 52.2421C11.5066 52.5619 12.1328 52.6715 12.7349 52.5491L23.1536 50.3332C23.7458 50.2013 24.2649 49.8476 24.6045 49.3449C24.9437 48.8255 25.0632 48.1928 24.9367 47.5855L26.7861 47.1922C26.8463 47.4918 26.9653 47.7766 27.136 48.0301C27.3068 48.2836 27.526 48.5008 27.7811 48.6693C28.3058 48.9889 28.9319 49.0985 29.5341 48.9762L51.3092 44.3451ZM45.8035 29.5896L48.257 29.994L50.3186 30.3436C50.5091 30.369 50.6868 30.4531 50.8271 30.5844C50.9674 30.7157 51.0631 30.8875 51.101 31.0758L51.3225 32.1174C51.3707 32.359 51.3225 32.6099 51.1882 32.8164C51.054 33.023 50.8443 33.1689 50.6039 33.2229L50.421 33.2618L48.4842 33.3742L46.6323 33.4962L47.1421 35.8932L47.3725 35.9526L48.2053 36.1578C48.3761 36.1937 48.5327 36.2789 48.6557 36.4028C48.7787 36.5267 48.8627 36.6839 48.8974 36.855L49.0135 37.4007C49.043 37.522 49.0478 37.6479 49.0277 37.7711C49.0077 37.8943 48.9631 38.0122 48.8966 38.1179C48.8301 38.2235 48.7431 38.3147 48.6408 38.3862C48.5384 38.4576 48.4228 38.5077 48.3007 38.5336C48.2195 38.5455 48.1369 38.5448 48.0559 38.5315L47.3588 38.5704L45.947 38.5987L44.6498 39.1466L43.8948 39.4421C43.6618 39.5332 43.4022 39.529 43.1723 39.4302C42.9423 39.3314 42.7606 39.146 42.6663 38.9142L42.633 38.7577L42.5169 38.212C42.4746 38.0245 42.492 37.8285 42.5667 37.6515C42.6414 37.4744 42.7698 37.3252 42.9336 37.2248L43.5438 36.7679L43.7301 36.6199L43.2201 34.2219L41.4779 34.8643L39.6376 35.5552C39.5215 35.5984 39.398 35.6181 39.2742 35.6132C39.1505 35.6083 39.0289 35.579 38.9166 35.5268C38.8042 35.4747 38.7033 35.4007 38.6198 35.3094C38.5362 35.218 38.4715 35.1109 38.4296 34.9944C38.4004 34.9583 38.382 34.9148 38.3763 34.8687L38.1552 33.8291C38.113 33.6276 38.1379 33.4179 38.2261 33.2319C38.3143 33.046 38.4609 32.894 38.6435 32.7991L40.3125 31.6826L42.3891 30.3148L41.8352 27.7104C41.6689 27.2337 41.6945 26.711 41.9065 26.2528C41.9552 26.1693 41.9912 26.079 42.0131 25.9848C42.0615 25.8926 42.0953 25.7933 42.1131 25.6906C42.289 25.1094 42.3945 24.8416 42.9931 24.7143C43.5672 24.5922 43.7736 24.7936 44.1708 25.253L44.3818 25.481C44.4185 25.5284 44.5188 25.6155 44.5882 25.6825C44.9679 26.0151 45.2038 26.4819 45.2465 26.9849L45.8006 29.5902L45.8035 29.5896ZM42.1799 20.8862C43.9864 20.4993 45.8604 20.5643 47.6357 21.0754C49.411 21.5864 51.0327 22.5278 52.357 23.8159C53.6812 25.104 54.6671 26.6991 55.227 28.4596C55.787 30.2201 55.9038 32.0915 55.567 33.908C55.2303 35.7244 54.4504 37.4297 53.2966 38.8725C52.1427 40.3152 50.6506 41.4509 48.9526 42.1787C47.2546 42.9065 45.4032 43.204 43.5627 43.0447C41.7222 42.8854 39.9494 42.2743 38.4017 41.2656C36.5387 40.0588 35.0758 38.3261 34.1985 36.2871C33.3211 34.2481 33.0688 31.9945 33.4734 29.812C33.878 27.6294 34.9214 25.6161 36.4714 24.0271C38.0214 22.4381 40.0081 21.345 42.1799 20.8862ZM49.5991 24.0188C47.7885 22.8474 45.6278 22.3399 43.4851 22.5827C41.3424 22.8254 39.35 23.8034 37.8473 25.3501C36.3446 26.8967 35.4245 28.9164 35.2437 31.0653C35.0628 33.2141 35.6324 35.3592 36.8554 37.1353C38.0785 38.9114 39.8793 40.2086 41.9513 40.8061C44.0234 41.4035 46.2384 41.2643 48.2193 40.4121C50.2002 39.5599 51.8245 38.0474 52.8155 36.1322C53.8066 34.2169 54.1031 32.0174 53.6546 29.9081C53.4019 28.707 52.9133 27.5679 52.2171 26.5569C51.521 25.546 50.6311 24.6833 49.5991 24.0188ZM22.1173 29.8636C22.1701 29.8523 22.1955 29.8469 22.1899 29.8205C22.2109 29.7895 22.2317 29.7575 22.2261 29.731C22.2205 29.7046 22.1896 29.6846 22.1566 29.664C22.1512 29.6386 22.0994 29.6496 22.073 29.6552C22.0587 29.6567 22.0449 29.6611 22.0325 29.6684C22.0201 29.6756 22.0094 29.6854 22.0011 29.6971C21.9937 29.7096 21.989 29.7235 21.9875 29.738C21.986 29.7524 21.9876 29.767 21.9923 29.7808C21.9936 29.7952 21.9981 29.8092 22.0053 29.8218C22.0126 29.8344 22.0225 29.8452 22.0344 29.8536C22.0467 29.8611 22.0604 29.8659 22.0747 29.8676C22.089 29.8694 22.1036 29.868 22.1173 29.8636ZM23.7686 30.8413C23.6299 31.0648 23.4464 31.2572 23.2297 31.4064C23.0131 31.5555 22.7679 31.6583 22.5096 31.7081C22.2533 31.7624 21.9888 31.7656 21.7313 31.7176C21.4737 31.6696 21.2282 31.5713 21.0087 31.4282C20.5683 31.1358 20.2576 30.685 20.1409 30.1694C20.0306 29.6506 20.1308 29.1093 20.4197 28.6645C20.7085 28.2196 21.1621 27.9077 21.6809 27.7974C21.9371 27.7377 22.2029 27.7317 22.4616 27.7797C22.7202 27.8278 22.9661 27.929 23.1837 28.0768C23.4039 28.2193 23.5938 28.4038 23.7425 28.6197C23.8912 28.8357 23.9959 29.0789 24.0504 29.3354C24.105 29.5919 24.1084 29.8566 24.0604 30.1144C24.0124 30.3722 23.9141 30.618 23.7709 30.8377L23.7686 30.8413ZM24.9178 43.017C24.9706 43.0058 24.9904 42.974 24.985 42.9486C25.0114 42.9429 25.0268 42.8855 25.021 42.8581C25.0152 42.8307 24.9845 42.8117 24.9515 42.7911C24.9391 42.7837 24.9251 42.779 24.9107 42.7775C24.8962 42.776 24.8816 42.7776 24.8679 42.7823C24.8536 42.7837 24.8398 42.7882 24.8274 42.7954C24.815 42.8026 24.8043 42.8125 24.796 42.8242C24.7886 42.8366 24.7839 42.8506 24.7824 42.865C24.7809 42.8795 24.7825 42.8941 24.7872 42.9078C24.7929 42.9342 24.8041 42.987 24.8295 42.9816L24.8604 43.0017C24.8775 43.0125 24.8975 43.0179 24.9178 43.017ZM25.951 41.1893C26.1781 41.3325 26.3744 41.5194 26.5286 41.7391C26.6827 41.9589 26.7916 42.2071 26.8489 42.4694C26.9087 42.7254 26.9148 42.9911 26.8667 43.2496C26.8185 43.5081 26.7173 43.7539 26.5692 43.9712C26.4305 44.1947 26.2471 44.3871 26.0304 44.5363C25.8137 44.6855 25.5685 44.7882 25.3102 44.838C24.8306 44.9436 24.3289 44.8662 23.9034 44.621C23.8724 44.6 23.8396 44.5804 23.8093 44.5582C23.365 44.2703 23.053 43.8179 22.9418 43.3003C22.8439 42.7822 22.9441 42.2462 23.2224 41.7983C23.5185 41.3626 23.9669 41.0535 24.4794 40.9319C24.9849 40.8325 25.5093 40.9242 25.951 41.1893ZM23.5266 36.4517C23.5794 36.4404 23.5994 36.4096 23.5938 36.3832C23.6148 36.3521 23.6356 36.3201 23.6302 36.2947C23.6248 36.2693 23.5937 36.2483 23.5607 36.2277C23.5551 36.2013 23.5033 36.2123 23.4769 36.2179C23.4626 36.2195 23.4487 36.2241 23.4364 36.2315C23.424 36.2389 23.4134 36.2489 23.4052 36.2608C23.3936 36.2868 23.3905 36.316 23.3965 36.3439C23.4024 36.3718 23.4171 36.3972 23.4383 36.4163L23.4694 36.4373C23.4866 36.4477 23.5065 36.4527 23.5266 36.4517ZM25.1734 37.4079C25.0346 37.6313 24.851 37.8235 24.6343 37.9725C24.4176 38.1215 24.1724 38.2241 23.9141 38.2737C23.6742 38.328 23.426 38.3344 23.1837 38.2926C22.9413 38.2509 22.7096 38.1617 22.5017 38.0302C22.4763 38.0356 22.4433 38.0151 22.4134 37.9948C21.9697 37.7064 21.6579 37.2543 21.5459 36.737C21.4426 36.2185 21.543 35.6803 21.8263 35.2339C21.9686 35.0141 22.153 34.8245 22.3687 34.676C22.5845 34.5275 22.8274 34.423 23.0836 34.3685C23.3396 34.3084 23.6054 34.3021 23.8641 34.35C24.1228 34.3979 24.3686 34.499 24.5862 34.647C24.8063 34.7894 24.9962 34.9739 25.1449 35.1899C25.2937 35.4058 25.3983 35.649 25.4529 35.9055C25.5074 36.162 25.5108 36.4267 25.4628 36.6845C25.4149 36.9423 25.3165 37.1881 25.1734 37.4079Z" stroke="#F7F7F7" stroke-width="0.299962"/>
</g>
</g>
</svg>
