<?xml version="1.0" encoding="utf-8"?>
<!-- Generator: Adobe Illustrator 27.9.0, SVG Export Plug-In . SVG Version: 6.00 Build 0)  -->
<svg version="1.1" id="Layer_1" xmlns="http://www.w3.org/2000/svg" xmlns:xlink="http://www.w3.org/1999/xlink" x="0px" y="0px"
	 viewBox="0 0 70 56" style="enable-background:new 0 0 70 56;" xml:space="preserve">
<style type="text/css">
	.st0{fill:none;stroke:#F7F7F7;stroke-width:0.3;}
	.st1{fill:none;stroke:#F7F7F7;}
	.st2{fill:none;stroke:#000000;stroke-miterlimit:10;}
</style>
<path d="M6.1,32.5c0,0.1,0,0.2,0,0.4c0,0.1-0.1,0.2-0.1,0.3c-0.1,0.1-0.2,0.2-0.3,0.3c-0.1,0.1-0.2,0.1-0.3,0.1
	c-0.2,0-0.5,0-0.7-0.1c-0.2-0.1-0.4-0.3-0.4-0.6L3.4,29c-0.2-1.1,0-2.2,0.6-3.2c0.6-0.9,1.6-1.6,2.6-1.8L7,24l7-3.6
	c0.5-0.2,1-0.4,1.5-0.4c0.5,0,1,0,1.5,0.2c0.1,0,0.2,0.1,0.3,0.1c0-0.1,0.1-0.2,0.1-0.3l0,0c0.2-0.5,0.4-0.9,0.7-1.3
	c0.3-0.4,0.7-0.7,1.2-0.9l11.7-6c0.2-0.1,0.5-0.1,0.7,0s0.4,0.2,0.5,0.5c0.1,0.2,0.1,0.5,0.1,0.7c-0.1,0.2-0.2,0.4-0.4,0.5l-11.7,6
	c-0.5,0.3-0.9,0.7-1,1.2c-0.1,0.4-0.1,0.9,0,1.4c0.4,0.1,0.8,0.3,1.1,0.5c0.1,0.1,0.2,0.2,0.4,0.3c0.1-0.1,0.1-0.2,0.2-0.4
	c0.3-0.5,0.7-0.9,1.1-1.2c0.5-0.3,1-0.5,1.5-0.7l33.1-7l-4.2-8.2c-0.3-0.5-0.7-0.8-1.2-1c-0.5-0.2-1.1-0.1-1.6,0.1l-11.7,6
	c-0.2,0.1-0.5,0.1-0.7,0.1c-0.2-0.1-0.4-0.2-0.5-0.5c-0.1-0.1-0.1-0.2-0.1-0.4c0-0.1,0-0.2,0-0.4c0-0.1,0.1-0.2,0.2-0.3
	c0.1-0.1,0.2-0.2,0.3-0.2l11.7-6c0.9-0.5,2-0.5,3-0.2c1,0.3,1.8,1,2.3,1.9l4.4,8.6l0.7-0.1c1.1-0.2,2.2,0,3.2,0.6
	c0.9,0.6,1.6,1.6,1.8,2.6l4.7,22.1c0.2,1.1,0,2.2-0.6,3.2c-0.6,0.9-1.6,1.6-2.6,1.8l-7.4,1.6c-0.2,0-0.5,0-0.7-0.1
	c-0.2-0.1-0.3-0.3-0.4-0.6c-0.1-0.2,0-0.5,0.1-0.7c0.1-0.2,0.3-0.4,0.6-0.4l7.4-1.6c0.6-0.1,1.1-0.5,1.5-1c0.3-0.5,0.5-1.2,0.3-1.8
	l-4.7-22.1c-0.1-0.3-0.2-0.6-0.4-0.8c-0.2-0.2-0.4-0.5-0.7-0.6c-0.3-0.2-0.5-0.3-0.8-0.3c-0.3-0.1-0.6-0.1-0.9,0l-35.6,7.6
	c-0.3,0.1-0.6,0.2-0.8,0.4c-0.3,0.2-0.5,0.4-0.6,0.7c-0.2,0.3-0.3,0.5-0.3,0.8c-0.1,0.3,0,0.6,0,0.9l-1.8,0.4
	c-0.1-0.3-0.2-0.6-0.4-0.8c-0.2-0.2-0.4-0.5-0.7-0.6c-0.3-0.2-0.5-0.3-0.8-0.3c-0.3-0.1-0.6-0.1-0.9,0L7.1,25.9
	c-0.3,0.1-0.6,0.2-0.8,0.4c-0.3,0.2-0.5,0.4-0.6,0.7c-0.2,0.3-0.3,0.5-0.3,0.8c-0.1,0.3-0.1,0.6,0,0.9L6.1,32.5z"/>
<path d="M14,22.5l2.4-0.5l-0.1,0c-0.5-0.2-1.1-0.1-1.5,0.1L14,22.5z"/>
<path d="M51.3,44.3c0.2,0,0.5,0,0.7,0.1c0.2,0.1,0.3,0.3,0.4,0.6c0.1,0.2,0,0.5-0.1,0.7c-0.1,0.2-0.3,0.4-0.6,0.4l-21.8,4.6
	c-0.5,0.1-1.1,0.1-1.7,0c-0.5-0.1-1.1-0.3-1.5-0.6c-0.1-0.1-0.2-0.2-0.4-0.3c-0.1,0.1-0.1,0.3-0.2,0.4c-0.3,0.5-0.7,0.9-1.1,1.2
	c-0.5,0.3-1,0.5-1.5,0.7l-10.4,2.2c-1.1,0.2-2.2,0-3.2-0.6c-0.9-0.6-1.6-1.6-1.8-2.6L5.6,39.3c0-0.2,0-0.5,0.1-0.7
	c0.1-0.2,0.3-0.4,0.6-0.4c0.1,0,0.2,0,0.4,0c0.1,0,0.2,0.1,0.3,0.1c0.1,0.1,0.2,0.2,0.3,0.3s0.1,0.2,0.1,0.3L10,50.8
	c0.1,0.6,0.5,1.1,1,1.5c0.5,0.3,1.2,0.4,1.8,0.3l10.4-2.2c0.6-0.1,1.1-0.5,1.5-1c0.3-0.5,0.5-1.2,0.3-1.8l1.8-0.4
	c0.1,0.3,0.2,0.6,0.3,0.8c0.2,0.3,0.4,0.5,0.6,0.6c0.5,0.3,1.2,0.4,1.8,0.3L51.3,44.3z"/>
<path d="M42.9,37.2c0.1-0.1,0.2-0.1,0.3-0.1L42.9,37.2z"/>
<path d="M42.2,20.9c1.8-0.4,3.7-0.3,5.5,0.2c1.8,0.5,3.4,1.5,4.7,2.7c1.3,1.3,2.3,2.9,2.9,4.6c0.6,1.8,0.7,3.6,0.3,5.4
	c-0.3,1.8-1.1,3.5-2.3,5c-1.2,1.4-2.6,2.6-4.3,3.3c-1.7,0.7-3.5,1-5.4,0.9c-1.8-0.2-3.6-0.8-5.2-1.8c-1.9-1.2-3.3-2.9-4.2-5
	c-0.9-2-1.1-4.3-0.7-6.5c0.4-2.2,1.4-4.2,3-5.8C38,22.4,40,21.3,42.2,20.9z"/>
<path d="M49.6,24c-1.8-1.2-4-1.7-6.1-1.4c-2.1,0.2-4.1,1.2-5.6,2.8c-1.5,1.5-2.4,3.6-2.6,5.7c-0.2,2.1,0.4,4.3,1.6,6.1
	c1.2,1.8,3,3.1,5.1,3.7c2.1,0.6,4.3,0.5,6.3-0.4c2-0.9,3.6-2.4,4.6-4.3c1-1.9,1.3-4.1,0.8-6.2c-0.3-1.2-0.7-2.3-1.4-3.4
	C51.5,25.5,50.6,24.7,49.6,24z"/>
<path d="M22.1,29.9C22.2,29.9,22.2,29.8,22.1,29.9c0.1-0.1,0.1-0.1,0.1-0.1c0,0,0,0-0.1-0.1c0,0-0.1,0-0.1,0c0,0,0,0,0,0
	c0,0,0,0,0,0c0,0,0,0,0,0c0,0,0,0,0,0c0,0,0,0,0,0C22,29.8,22,29.8,22.1,29.9C22,29.9,22.1,29.9,22.1,29.9
	C22.1,29.9,22.1,29.9,22.1,29.9z"/>
<path d="M23.8,30.8c-0.1,0.2-0.3,0.4-0.5,0.6c-0.2,0.1-0.5,0.3-0.7,0.3c-0.3,0.1-0.5,0.1-0.8,0c-0.3,0-0.5-0.1-0.7-0.3
	c-0.4-0.3-0.8-0.7-0.9-1.3c-0.1-0.5,0-1.1,0.3-1.5c0.3-0.4,0.7-0.8,1.3-0.9c0.3-0.1,0.5-0.1,0.8,0c0.3,0,0.5,0.1,0.7,0.3
	c0.2,0.1,0.4,0.3,0.6,0.5c0.1,0.2,0.3,0.5,0.3,0.7c0.1,0.3,0.1,0.5,0,0.8C24,30.4,23.9,30.6,23.8,30.8L23.8,30.8z"/>
<path d="M24.9,43C25,43,25,43,24.9,43c0.1-0.1,0.1-0.1,0.1-0.2s0,0-0.1-0.1c0,0,0,0,0,0c0,0,0,0,0,0c0,0,0,0,0,0c0,0,0,0,0,0
	c0,0,0,0,0,0c0,0,0,0,0,0C24.8,42.9,24.8,43,24.9,43L24.9,43C24.9,43,24.9,43,24.9,43z"/>
<path d="M26,41.2c0.2,0.1,0.4,0.3,0.6,0.5c0.2,0.2,0.3,0.5,0.3,0.7c0.1,0.3,0.1,0.5,0,0.8c0,0.3-0.1,0.5-0.3,0.7
	c-0.1,0.2-0.3,0.4-0.5,0.6c-0.2,0.1-0.5,0.3-0.7,0.3c-0.5,0.1-1,0-1.4-0.2c0,0-0.1,0-0.1-0.1c-0.4-0.3-0.8-0.7-0.9-1.3
	c-0.1-0.5,0-1.1,0.3-1.5c0.3-0.4,0.7-0.7,1.3-0.9C25,40.8,25.5,40.9,26,41.2z"/>
<path d="M23.5,36.5C23.6,36.4,23.6,36.4,23.5,36.5c0.1-0.1,0.1-0.1,0.1-0.2c0,0,0,0-0.1-0.1c0,0-0.1,0-0.1,0c0,0,0,0,0,0
	c0,0,0,0,0,0c0,0,0,0.1,0,0.1C23.4,36.4,23.4,36.4,23.5,36.5L23.5,36.5C23.5,36.4,23.5,36.5,23.5,36.5z"/>
<path d="M25.2,37.4c-0.1,0.2-0.3,0.4-0.5,0.6s-0.5,0.3-0.7,0.3c-0.2,0.1-0.5,0.1-0.7,0c-0.2,0-0.5-0.1-0.7-0.3c0,0-0.1,0-0.1,0
	c-0.4-0.3-0.8-0.7-0.9-1.3c-0.1-0.5,0-1.1,0.3-1.5c0.1-0.2,0.3-0.4,0.5-0.6c0.2-0.1,0.5-0.3,0.7-0.3c0.3-0.1,0.5-0.1,0.8,0
	c0.3,0,0.5,0.1,0.7,0.3c0.2,0.1,0.4,0.3,0.6,0.5c0.1,0.2,0.3,0.5,0.3,0.7c0.1,0.3,0.1,0.5,0,0.8C25.4,36.9,25.3,37.2,25.2,37.4z"/>
<path class="st0" d="M42.9,37.2c0.1-0.1,0.2-0.1,0.3-0.1"/>
<path class="st0" d="M6.1,32.5c0,0.1,0,0.2,0,0.4c0,0.1-0.1,0.2-0.1,0.3c-0.1,0.1-0.2,0.2-0.3,0.3c-0.1,0.1-0.2,0.1-0.3,0.1
	c-0.2,0-0.5,0-0.7-0.1c-0.2-0.1-0.4-0.3-0.4-0.6L3.4,29c-0.2-1.1,0-2.2,0.6-3.2c0.6-0.9,1.6-1.6,2.6-1.8L7,24l7-3.6
	c0.5-0.2,1-0.4,1.5-0.4c0.5,0,1,0,1.5,0.2c0.1,0,0.2,0.1,0.3,0.1c0-0.1,0.1-0.2,0.1-0.3l0,0c0.2-0.5,0.4-0.9,0.7-1.3
	c0.3-0.4,0.7-0.7,1.2-0.9l11.7-6c0.2-0.1,0.5-0.1,0.7,0s0.4,0.2,0.5,0.5c0.1,0.2,0.1,0.5,0.1,0.7c-0.1,0.2-0.2,0.4-0.4,0.5l-11.7,6
	c-0.5,0.3-0.9,0.7-1,1.2c-0.1,0.4-0.1,0.9,0,1.4c0.4,0.1,0.8,0.3,1.1,0.5c0.1,0.1,0.2,0.2,0.4,0.3c0.1-0.1,0.1-0.2,0.2-0.4
	c0.3-0.5,0.7-0.9,1.1-1.2c0.5-0.3,1-0.5,1.5-0.7l33.1-7l-4.2-8.2c-0.3-0.5-0.7-0.8-1.2-1c-0.5-0.2-1.1-0.1-1.6,0.1l-11.7,6
	c-0.2,0.1-0.5,0.1-0.7,0.1c-0.2-0.1-0.4-0.2-0.5-0.5c-0.1-0.1-0.1-0.2-0.1-0.4c0-0.1,0-0.2,0-0.4c0-0.1,0.1-0.2,0.2-0.3
	c0.1-0.1,0.2-0.2,0.3-0.2l11.7-6c0.9-0.5,2-0.5,3-0.2c1,0.3,1.8,1,2.3,1.9l4.4,8.6l0.7-0.1c1.1-0.2,2.2,0,3.2,0.6
	c0.9,0.6,1.6,1.6,1.8,2.6l4.7,22.1c0.2,1.1,0,2.2-0.6,3.2c-0.6,0.9-1.6,1.6-2.6,1.8l-7.4,1.6c-0.2,0-0.5,0-0.7-0.1
	c-0.2-0.1-0.3-0.3-0.4-0.6c-0.1-0.2,0-0.5,0.1-0.7c0.1-0.2,0.3-0.4,0.6-0.4l7.4-1.6c0.6-0.1,1.1-0.5,1.5-1c0.3-0.5,0.5-1.2,0.3-1.8
	l-4.7-22.1c-0.1-0.3-0.2-0.6-0.4-0.8c-0.2-0.2-0.4-0.5-0.7-0.6c-0.3-0.2-0.5-0.3-0.8-0.3c-0.3-0.1-0.6-0.1-0.9,0l-35.6,7.6
	c-0.3,0.1-0.6,0.2-0.8,0.4c-0.3,0.2-0.5,0.4-0.6,0.7c-0.2,0.3-0.3,0.5-0.3,0.8c-0.1,0.3,0,0.6,0,0.9l-1.8,0.4
	c-0.1-0.3-0.2-0.6-0.4-0.8c-0.2-0.2-0.4-0.5-0.7-0.6c-0.3-0.2-0.5-0.3-0.8-0.3c-0.3-0.1-0.6-0.1-0.9,0L7.1,25.9
	c-0.3,0.1-0.6,0.2-0.8,0.4c-0.3,0.2-0.5,0.4-0.6,0.7c-0.2,0.3-0.3,0.5-0.3,0.8c-0.1,0.3-0.1,0.6,0,0.9L6.1,32.5z"/>
<path class="st0" d="M14,22.5l2.4-0.5l-0.1,0c-0.5-0.2-1.1-0.1-1.5,0.1L14,22.5z"/>
<path class="st0" d="M51.3,44.3c0.2,0,0.5,0,0.7,0.1c0.2,0.1,0.3,0.3,0.4,0.6c0.1,0.2,0,0.5-0.1,0.7c-0.1,0.2-0.3,0.4-0.6,0.4
	l-21.8,4.6c-0.5,0.1-1.1,0.1-1.7,0c-0.5-0.1-1.1-0.3-1.5-0.6c-0.1-0.1-0.2-0.2-0.4-0.3c-0.1,0.1-0.1,0.3-0.2,0.4
	c-0.3,0.5-0.7,0.9-1.1,1.2c-0.5,0.3-1,0.5-1.5,0.7l-10.4,2.2c-1.1,0.2-2.2,0-3.2-0.6c-0.9-0.6-1.6-1.6-1.8-2.6L5.6,39.3
	c0-0.2,0-0.5,0.1-0.7c0.1-0.2,0.3-0.4,0.6-0.4c0.1,0,0.2,0,0.4,0c0.1,0,0.2,0.1,0.3,0.1c0.1,0.1,0.2,0.2,0.3,0.3s0.1,0.2,0.1,0.3
	L10,50.8c0.1,0.6,0.5,1.1,1,1.5c0.5,0.3,1.2,0.4,1.8,0.3l10.4-2.2c0.6-0.1,1.1-0.5,1.5-1c0.3-0.5,0.5-1.2,0.3-1.8l1.8-0.4
	c0.1,0.3,0.2,0.6,0.3,0.8c0.2,0.3,0.4,0.5,0.6,0.6c0.5,0.3,1.2,0.4,1.8,0.3L51.3,44.3z"/>
<path class="st1" d="M45.8,29.6l2.5,0.4l2.1,0.3c0.2,0,0.4,0.1,0.5,0.2s0.2,0.3,0.3,0.5l0.2,1c0,0.2,0,0.5-0.1,0.7
	c-0.1,0.2-0.3,0.4-0.6,0.4l-0.2,0l-1.9,0.1l-1.9,0.1l0.5,2.4l0.2,0.1l0.8,0.2c0.2,0,0.3,0.1,0.5,0.2c0.1,0.1,0.2,0.3,0.2,0.5
	l0.1,0.5c0,0.1,0,0.2,0,0.4c0,0.1-0.1,0.2-0.1,0.3c-0.1,0.1-0.2,0.2-0.3,0.3c-0.1,0.1-0.2,0.1-0.3,0.1c-0.1,0-0.2,0-0.2,0l-0.7,0
	l-1.4,0l-1.3,0.5l-0.8,0.3c-0.2,0.1-0.5,0.1-0.7,0c-0.2-0.1-0.4-0.3-0.5-0.5l0-0.2l-0.1-0.5c0-0.2,0-0.4,0-0.6
	c0.1-0.2,0.2-0.3,0.4-0.4l0.6-0.5l0.2-0.1l-0.5-2.4l-1.7,0.6l-1.8,0.7c-0.1,0-0.2,0.1-0.4,0.1c-0.1,0-0.2,0-0.4-0.1
	c-0.1-0.1-0.2-0.1-0.3-0.2c-0.1-0.1-0.1-0.2-0.2-0.3c0,0,0-0.1-0.1-0.1l-0.2-1c0-0.2,0-0.4,0.1-0.6c0.1-0.2,0.2-0.3,0.4-0.4l1.7-1.1
	l2.1-1.4l-0.6-2.6c-0.2-0.5-0.1-1,0.1-1.5c0-0.1,0.1-0.2,0.1-0.3c0-0.1,0.1-0.2,0.1-0.3c0.2-0.6,0.3-0.8,0.9-1
	c0.6-0.1,0.8,0.1,1.2,0.5l0.2,0.2c0,0,0.1,0.1,0.2,0.2c0.4,0.3,0.6,0.8,0.7,1.3L45.8,29.6L45.8,29.6z"/>
<path class="st0" d="M42.2,20.9c1.8-0.4,3.7-0.3,5.5,0.2c1.8,0.5,3.4,1.5,4.7,2.7c1.3,1.3,2.3,2.9,2.9,4.6c0.6,1.8,0.7,3.6,0.3,5.4
	c-0.3,1.8-1.1,3.5-2.3,5c-1.2,1.4-2.6,2.6-4.3,3.3c-1.7,0.7-3.5,1-5.4,0.9c-1.8-0.2-3.6-0.8-5.2-1.8c-1.9-1.2-3.3-2.9-4.2-5
	c-0.9-2-1.1-4.3-0.7-6.5c0.4-2.2,1.4-4.2,3-5.8C38,22.4,40,21.3,42.2,20.9z"/>
<path class="st0" d="M49.6,24c-1.8-1.2-4-1.7-6.1-1.4c-2.1,0.2-4.1,1.2-5.6,2.8c-1.5,1.5-2.4,3.6-2.6,5.7c-0.2,2.1,0.4,4.3,1.6,6.1
	c1.2,1.8,3,3.1,5.1,3.7c2.1,0.6,4.3,0.5,6.3-0.4c2-0.9,3.6-2.4,4.6-4.3c1-1.9,1.3-4.1,0.8-6.2c-0.3-1.2-0.7-2.3-1.4-3.4
	C51.5,25.5,50.6,24.7,49.6,24z"/>
<path class="st0" d="M22.1,29.9C22.2,29.9,22.2,29.8,22.1,29.9c0.1-0.1,0.1-0.1,0.1-0.1c0,0,0,0-0.1-0.1c0,0-0.1,0-0.1,0
	c0,0,0,0,0,0c0,0,0,0,0,0c0,0,0,0,0,0c0,0,0,0,0,0c0,0,0,0,0,0C22,29.8,22,29.8,22.1,29.9C22,29.9,22.1,29.9,22.1,29.9
	C22.1,29.9,22.1,29.9,22.1,29.9z"/>
<path class="st0" d="M23.8,30.8c-0.1,0.2-0.3,0.4-0.5,0.6c-0.2,0.1-0.5,0.3-0.7,0.3c-0.3,0.1-0.5,0.1-0.8,0c-0.3,0-0.5-0.1-0.7-0.3
	c-0.4-0.3-0.8-0.7-0.9-1.3c-0.1-0.5,0-1.1,0.3-1.5c0.3-0.4,0.7-0.8,1.3-0.9c0.3-0.1,0.5-0.1,0.8,0c0.3,0,0.5,0.1,0.7,0.3
	c0.2,0.1,0.4,0.3,0.6,0.5c0.1,0.2,0.3,0.5,0.3,0.7c0.1,0.3,0.1,0.5,0,0.8C24,30.4,23.9,30.6,23.8,30.8L23.8,30.8z"/>
<path class="st0" d="M24.9,43C25,43,25,43,24.9,43c0.1-0.1,0.1-0.1,0.1-0.2s0,0-0.1-0.1c0,0,0,0,0,0c0,0,0,0,0,0c0,0,0,0,0,0
	c0,0,0,0,0,0c0,0,0,0,0,0c0,0,0,0,0,0C24.8,42.9,24.8,43,24.9,43L24.9,43C24.9,43,24.9,43,24.9,43z"/>
<path class="st0" d="M26,41.2c0.2,0.1,0.4,0.3,0.6,0.5c0.2,0.2,0.3,0.5,0.3,0.7c0.1,0.3,0.1,0.5,0,0.8c0,0.3-0.1,0.5-0.3,0.7
	c-0.1,0.2-0.3,0.4-0.5,0.6c-0.2,0.1-0.5,0.3-0.7,0.3c-0.5,0.1-1,0-1.4-0.2c0,0-0.1,0-0.1-0.1c-0.4-0.3-0.8-0.7-0.9-1.3
	c-0.1-0.5,0-1.1,0.3-1.5c0.3-0.4,0.7-0.7,1.3-0.9C25,40.8,25.5,40.9,26,41.2z"/>
<path class="st0" d="M23.5,36.5C23.6,36.4,23.6,36.4,23.5,36.5c0.1-0.1,0.1-0.1,0.1-0.2c0,0,0,0-0.1-0.1c0,0-0.1,0-0.1,0
	c0,0,0,0,0,0c0,0,0,0,0,0c0,0,0,0.1,0,0.1C23.4,36.4,23.4,36.4,23.5,36.5L23.5,36.5C23.5,36.4,23.5,36.5,23.5,36.5z"/>
<path class="st0" d="M25.2,37.4c-0.1,0.2-0.3,0.4-0.5,0.6s-0.5,0.3-0.7,0.3c-0.2,0.1-0.5,0.1-0.7,0c-0.2,0-0.5-0.1-0.7-0.3
	c0,0-0.1,0-0.1,0c-0.4-0.3-0.8-0.7-0.9-1.3c-0.1-0.5,0-1.1,0.3-1.5c0.1-0.2,0.3-0.4,0.5-0.6c0.2-0.1,0.5-0.3,0.7-0.3
	c0.3-0.1,0.5-0.1,0.8,0c0.3,0,0.5,0.1,0.7,0.3c0.2,0.1,0.4,0.3,0.6,0.5c0.1,0.2,0.3,0.5,0.3,0.7c0.1,0.3,0.1,0.5,0,0.8
	C25.4,36.9,25.3,37.2,25.2,37.4z"/>
<polygon points="18.5,19 51.2,2.8 57.7,13.5 19.2,23.4 "/>
<line class="st2" x1="29.9" y1="13" x2="38.5" y2="8.6"/>
</svg>
