<svg xmlns="http://www.w3.org/2000/svg" width="70.011" height="55.636" viewBox="0 0 70.011 55.636">
  <g id="FLight_booked" data-name="FLight booked" transform="matrix(0.978, -0.208, 0.208, 0.978, -316.574, 148.559)">
    <path id="Path_17742" data-name="Path 17742" d="M2.864,30.785a.926.926,0,0,1-.932.932A.944.944,0,0,1,1,30.785V26.817a4.229,4.229,0,0,1,4.208-4.208H5.5l7.617-2.024a3.79,3.79,0,0,1,2.957.4h0a2.506,2.506,0,0,1,.267.161,2.385,2.385,0,0,1,.159-.267v-.027h0a3.781,3.781,0,0,1,2.344-1.811l12.7-3.409a.937.937,0,0,1,.479,1.811L19.351,20.851a2.1,2.1,0,0,0-1.253.959h0a2.043,2.043,0,0,0-.239,1.332,3.62,3.62,0,0,1,.959.719,3.035,3.035,0,0,1,.292.32c.107-.106.188-.213.294-.32a4.185,4.185,0,0,1,2.982-1.252h33.8l-2.37-8.9a2.125,2.125,0,0,0-.959-1.225h0a2.072,2.072,0,0,0-1.545-.213l-12.7,3.409a.941.941,0,0,1-1.146-.666.929.929,0,0,1,.665-1.145l12.7-3.409a3.9,3.9,0,0,1,2.956.4h0a3.947,3.947,0,0,1,1.838,2.37l2.5,9.375h.666A4.229,4.229,0,0,1,63,26.817V49.455a4.227,4.227,0,0,1-4.208,4.208H51.229a.946.946,0,0,1,0-1.891h7.563a2.434,2.434,0,0,0,1.651-.665,2.341,2.341,0,0,0,.692-1.652V26.817a2.235,2.235,0,0,0-.692-1.625,2.338,2.338,0,0,0-1.651-.692H22.386a2.335,2.335,0,0,0-1.651.692,2.207,2.207,0,0,0-.666,1.625H18.178a2.238,2.238,0,0,0-.691-1.625,2.28,2.28,0,0,0-1.626-.692H5.208a2.333,2.333,0,0,0-1.651.692,2.228,2.228,0,0,0-.692,1.625v3.968Zm9.88-8.176H15.2l-.054-.027h0A2.047,2.047,0,0,0,13.6,22.4ZM44.65,51.771a.946.946,0,0,1,0,1.891H22.386A4.182,4.182,0,0,1,19.4,52.411c-.106-.106-.187-.213-.294-.319a3.131,3.131,0,0,1-.292.319,4.127,4.127,0,0,1-2.956,1.251H5.208A4.227,4.227,0,0,1,1,49.455V37.336a.944.944,0,0,1,.933-.932.927.927,0,0,1,.932.932V49.454a2.345,2.345,0,0,0,.692,1.652,2.436,2.436,0,0,0,1.651.665H15.861a2.374,2.374,0,0,0,1.625-.665,2.344,2.344,0,0,0,.691-1.652h1.891a2.318,2.318,0,0,0,.666,1.652,2.438,2.438,0,0,0,1.651.665Zm-2.316-15.58,2.316.906,1.944.771a.922.922,0,0,1,.613.879h0v1.065a.944.944,0,0,1-.933.932h-.187l-1.918-.293-1.837-.266v2.451l.213.106.772.374a.894.894,0,0,1,.532.826h0V44.5a.933.933,0,0,1-.933.96.8.8,0,0,1-.239-.053l-.69-.107L40.6,45.034l-1.383.266-.8.132a.952.952,0,0,1-1.092-.772V44.5h0v-.558a.92.92,0,0,1,.613-.879l.692-.32.213-.106V40.185l-1.838.266-1.944.293a.937.937,0,0,1-1.065-.8.248.248,0,0,1-.026-.134h0V38.747a.943.943,0,0,1,.692-.906l1.865-.745,2.316-.906V33.527a1.945,1.945,0,0,1,.373-1.411.968.968,0,0,0,.16-.24,1,1,0,0,0,.159-.267h0c.293-.532.452-.772,1.064-.772.587,0,.747.24,1.04.772l.159.267c.026.054.106.16.16.24a1.951,1.951,0,0,1,.373,1.411v2.664Zm-4.4,6.872a1.267,1.267,0,0,1,.319-.053M40.6,26.923a11.226,11.226,0,1,1-7.936,19.15A11.213,11.213,0,0,1,40.6,26.923Zm6.606,4.608a9.325,9.325,0,1,0,2.742,6.605,9.277,9.277,0,0,0-2.742-6.605Zm-28.1,0c.054,0,.08,0,.08-.027.027-.026.054-.053.054-.08s-.026-.053-.054-.08h0c0-.026-.053-.026-.08-.026a.1.1,0,0,0-.079.026.1.1,0,0,0-.026.08.1.1,0,0,0,.026.08.1.1,0,0,0,.079.027Zm1.412,1.3a1.907,1.907,0,0,1-1.412.586,1.993,1.993,0,0,1-1.41-.586h0a2.056,2.056,0,0,1-.587-1.412,2,2,0,0,1,2-2,1.905,1.905,0,0,1,1.412.586h0a1.993,1.993,0,0,1,0,2.823ZM19.109,44.981c.054,0,.08-.027.08-.053.027,0,.054-.053.054-.081s-.026-.053-.054-.08h0a.1.1,0,0,0-.08-.026.1.1,0,0,0-.079.026h0a.1.1,0,0,0-.026.08c0,.027,0,.081.026.081l.026.026a.1.1,0,0,0,.053.027ZM20.5,43.408a2.024,2.024,0,0,1,.612,1.439,1.9,1.9,0,0,1-.586,1.411h0a1.907,1.907,0,0,1-1.412.586,1.969,1.969,0,0,1-1.331-.505c-.026-.027-.054-.053-.079-.081a2,2,0,0,1-.587-1.411,2.106,2.106,0,0,1,.587-1.411h0a2.109,2.109,0,0,1,1.41-.586,2.08,2.08,0,0,1,1.386.558Zm-1.386-5.139c.054,0,.08-.026.08-.053.027-.026.054-.053.054-.079s-.026-.053-.054-.08h0c0-.027-.053-.027-.08-.027a.1.1,0,0,0-.079.027.135.135,0,0,0,0,.159l.026.027a.1.1,0,0,0,.053.026Zm1.412,1.278a1.906,1.906,0,0,1-1.412.585,1.87,1.87,0,0,1-1.331-.532c-.026,0-.054-.027-.079-.053a2.007,2.007,0,0,1-.587-1.411,2.056,2.056,0,0,1,.587-1.412,1.992,1.992,0,0,1,1.41-.585,1.9,1.9,0,0,1,1.412.585h0a1.993,1.993,0,0,1,0,2.823Z" transform="translate(337 -77)" stroke="#f7f7f7" stroke-width="0.3"/>
  </g>
</svg>
