<svg width="65" height="55" viewBox="0 0 65 55" fill="none" xmlns="http://www.w3.org/2000/svg">
<g id="happy traveller">
<path id="Path 17743" d="M47.633 13.4283C49.3815 13.3648 51.0413 12.6423 52.2792 11.4058C53.5171 10.1693 54.2415 8.51036 54.307 6.76193C54.3191 5.87835 54.1556 5.00117 53.8259 4.18133C53.4962 3.36148 53.0068 2.61533 52.3863 1.9862C51.7658 1.35708 51.0264 0.85752 50.2112 0.516552C49.396 0.175583 48.5211 0 47.6374 0C46.7538 0 45.8789 0.175583 45.0637 0.516552C44.2485 0.85752 43.5091 1.35708 42.8886 1.9862C42.2681 2.61533 41.7787 3.36148 41.449 4.18133C41.1193 5.00117 40.9558 5.87835 40.9679 6.76193C41.0333 8.50889 41.7564 10.1666 42.9925 11.4029C44.2285 12.6392 45.8861 13.3626 47.633 13.4283Z" fill="black"/>
<g id="Path 17744">
<mask id="path-2-outside-1_3_145" maskUnits="userSpaceOnUse" x="30.2737" y="14.0728" width="35" height="41" fill="black">
<rect fill="white" x="30.2737" y="14.0728" width="35" height="41"/>
<path d="M53.4685 20.6175C56.517 28.6153 59.5687 36.6105 62.6239 44.6033C62.9616 45.5155 63.0743 46.4957 62.9525 47.4608C62.8307 48.4259 62.4781 49.3474 61.9244 50.1471C61.3707 50.9469 60.6324 51.6014 59.772 52.0551C58.9115 52.5088 57.9544 52.7484 56.9817 52.7535H38.2921C37.3194 52.7484 36.3623 52.5088 35.5018 52.0551C34.6414 51.6014 33.9031 50.9469 33.3494 50.1471C32.7957 49.3474 32.443 48.4259 32.3213 47.4608C32.1995 46.4957 32.3122 45.5155 32.6499 44.6033C35.7185 36.6148 38.7703 28.6195 41.8052 20.6175C42.1321 19.3188 42.8832 18.1665 43.9394 17.3432C44.9956 16.5199 46.2964 16.0728 47.6356 16.0728C48.9748 16.0728 50.2756 16.5199 51.3318 17.3432C52.388 18.1665 53.1391 19.3188 53.466 20.6175H53.4685Z"/>
</mask>
<path d="M53.4685 20.6175C56.517 28.6153 59.5687 36.6105 62.6239 44.6033C62.9616 45.5155 63.0743 46.4957 62.9525 47.4608C62.8307 48.4259 62.4781 49.3474 61.9244 50.1471C61.3707 50.9469 60.6324 51.6014 59.772 52.0551C58.9115 52.5088 57.9544 52.7484 56.9817 52.7535H38.2921C37.3194 52.7484 36.3623 52.5088 35.5018 52.0551C34.6414 51.6014 33.9031 50.9469 33.3494 50.1471C32.7957 49.3474 32.443 48.4259 32.3213 47.4608C32.1995 46.4957 32.3122 45.5155 32.6499 44.6033C35.7185 36.6148 38.7703 28.6195 41.8052 20.6175C42.1321 19.3188 42.8832 18.1665 43.9394 17.3432C44.9956 16.5199 46.2964 16.0728 47.6356 16.0728C48.9748 16.0728 50.2756 16.5199 51.3318 17.3432C52.388 18.1665 53.1391 19.3188 53.466 20.6175H53.4685Z" stroke="black" stroke-width="3.4" mask="url(#path-2-outside-1_3_145)"/>
</g>
<path id="Path 17745" d="M14.3516 13.4207C16.0999 13.3569 17.7593 12.6343 18.997 11.3978C20.2346 10.1613 20.9588 8.50256 21.0243 6.75434C20.9604 5.00543 20.2372 3.34544 19 2.10772C17.7627 0.869991 16.103 0.146191 14.3541 0.081665C12.6053 0.146484 10.9458 0.870377 9.70858 2.10804C8.47138 3.34571 7.74812 5.00553 7.68396 6.75434C7.74934 8.50172 8.47285 10.1598 9.70941 11.3961C10.946 12.6325 12.6042 13.3557 14.3516 13.4207Z" fill="black"/>
<g id="Path 17746">
<path d="M16.8621 52.7523C18.2058 52.7686 19.515 52.3275 20.5748 51.5014C21.6346 50.6752 22.3818 49.5132 22.6938 48.2061L27.6188 23.1874C27.6824 22.8246 27.7141 22.457 27.7135 22.0887C27.7135 20.4925 27.0794 18.9617 25.9507 17.833C24.822 16.7043 23.2911 16.0702 21.6949 16.0702H7.01855C5.42234 16.0702 3.8915 16.7043 2.7628 17.833C1.6341 18.9617 1.00001 20.4925 1.00001 22.0887C0.999405 22.4574 1.0311 22.8255 1.09472 23.1886L6.01967 48.2074C6.32617 49.5173 7.07196 50.6828 8.13297 51.5099C9.19397 52.337 10.5062 52.7759 11.8513 52.7535" fill="black"/>
<path d="M16.8621 52.7523C18.2058 52.7686 19.515 52.3275 20.5748 51.5014C21.6346 50.6752 22.3818 49.5132 22.6938 48.2061L27.6188 23.1874C27.6824 22.8246 27.7141 22.457 27.7135 22.0887C27.7135 20.4925 27.0794 18.9617 25.9507 17.833C24.822 16.7043 23.2911 16.0702 21.6949 16.0702H7.01855C5.42234 16.0702 3.8915 16.7043 2.7628 17.833C1.6341 18.9617 1.00001 20.4925 1.00001 22.0887C0.999405 22.4574 1.0311 22.8255 1.09472 23.1886L6.01967 48.2074C6.32617 49.5173 7.07196 50.6828 8.13297 51.5099C9.19397 52.337 10.5062 52.7759 11.8513 52.7535" stroke="black" stroke-width="1.5"/>
</g>
</g>
</svg>
