<svg width="11" height="15" viewBox="0 0 11 15" fill="none" xmlns="http://www.w3.org/2000/svg">
<path d="M5.625 0C2.7225 0 0.375 2.3475 0.375 5.25C0.375 9.1875 5.625 15 5.625 15C5.625 15 10.875 9.1875 10.875 5.25C10.875 2.3475 8.5275 0 5.625 0ZM1.875 5.25C1.875 3.18 3.555 1.5 5.625 1.5C7.695 1.5 9.375 3.18 9.375 5.25C9.375 7.41 7.215 10.6425 5.625 12.66C4.065 10.6575 1.875 7.3875 1.875 5.25Z" fill="black" fill-opacity="0.19"/>
<path d="M5.625 7.12497C6.66053 7.12497 7.5 6.2855 7.5 5.24997C7.5 4.21444 6.66053 3.37497 5.625 3.37497C4.58947 3.37497 3.75 4.21444 3.75 5.24997C3.75 6.2855 4.58947 7.12497 5.625 7.12497Z" fill="black" fill-opacity="0.19"/>
</svg>
