<svg width="141" height="149" viewBox="0 0 141 149" fill="none" xmlns="http://www.w3.org/2000/svg">
<g opacity="0.63">
<path d="M130.854 148.869C130.985 148.673 130.2 147.951 128.759 146.772C127.319 145.527 125.028 143.955 122.148 142.12C119.267 140.285 115.732 138.123 111.608 136.092C107.55 133.93 102.837 131.833 97.7968 129.933C96.749 129.54 95.7676 129.147 94.7855 128.819C93.7385 128.491 92.7564 128.098 91.7086 127.771C86.5377 126.067 81.6278 124.756 77.1116 123.773C74.8857 123.25 72.726 122.921 70.6961 122.528C68.6671 122.201 66.8343 121.939 65.1324 121.742C61.7285 121.349 58.9791 121.152 57.0808 121.152C55.1825 121.152 54.1351 121.218 54.1351 121.415C54.1351 121.611 55.117 121.874 57.0154 122.201C58.9137 122.528 61.5975 122.987 64.9359 123.511C66.5724 123.839 68.4053 124.167 70.3688 124.56C72.333 125.019 74.4278 125.412 76.653 126.001C81.1043 127.049 85.883 128.426 90.989 130.129C92.036 130.457 93.0181 130.785 94.0002 131.178C94.9816 131.571 95.9638 131.899 97.0115 132.292C101.986 134.192 106.634 136.157 110.692 138.189C114.816 140.154 118.351 142.12 121.297 143.758C124.243 145.462 126.599 146.838 128.235 147.755C129.807 148.607 130.723 149 130.854 148.869Z" fill="#CACEDB"/>
<path d="M9.36073 12.7115C9.55708 12.8426 9.75343 12.8426 10.0807 12.7771C10.3426 12.7115 10.7353 12.646 11.0626 12.646C11.3899 12.7115 11.5863 12.8426 11.7172 13.1047C11.7172 13.2357 11.7827 13.3012 11.7172 13.5633C11.6518 13.7599 11.5863 14.0875 11.4554 14.3496C11.3899 14.4806 11.3245 14.6117 11.259 14.6773C11.1936 14.8083 11.1281 14.8738 10.9972 15.0049L10.8008 15.2014L10.7353 15.267C10.7353 15.267 10.7353 15.267 10.6699 15.267L10.4735 15.1359C10.3426 15.0049 10.2772 14.8738 10.2117 14.8083C10.0807 14.6117 9.94985 14.4152 9.81891 14.2841C9.62255 13.9565 9.55708 13.6944 9.55708 13.4323C9.55708 13.1047 9.55708 12.8426 9.36073 12.7115C9.22978 12.5805 8.96795 12.646 8.64065 12.9081C8.31335 13.1702 7.98605 13.8254 8.05152 14.6773C8.11699 15.0704 8.1824 15.4635 8.37882 15.8567C8.5097 16.0532 8.57517 16.1843 8.64065 16.3808C8.70612 16.4464 8.77153 16.5774 8.837 16.6429C8.90248 16.774 9.03342 16.905 9.1643 17.0361C9.62255 17.5602 10.3426 18.0189 11.1281 17.8879C11.5209 17.8224 11.8482 17.6258 12.1755 17.3637C12.3064 17.2327 12.5027 17.0361 12.6337 16.905L12.8955 16.5774C13.0264 16.4464 13.1573 16.1843 13.2883 16.0532C13.4192 15.8567 13.5501 15.6601 13.6156 15.4635C13.8774 14.9393 14.0084 14.3496 14.0738 13.7599C14.1392 13.1047 13.9429 12.3839 13.5501 11.8597C12.7646 10.7458 11.4554 10.5493 10.6699 10.8769C9.88438 11.139 9.4916 11.5977 9.29525 11.9908C9.1643 12.3184 9.22978 12.5805 9.36073 12.7115Z" fill="#CACEDB"/>
<path d="M108.467 83.0832C108.663 83.2147 108.859 83.2147 109.186 83.149C109.448 83.0832 109.841 83.0182 110.169 83.0182C110.496 83.0832 110.692 83.2147 110.823 83.4763C110.823 83.6079 110.889 83.6729 110.823 83.9352C110.758 84.1318 110.692 84.4592 110.562 84.7215C110.496 84.8523 110.43 84.9838 110.365 85.0489C110.3 85.1804 110.234 85.2455 110.103 85.377L109.907 85.5735L109.841 85.6386C109.841 85.6386 109.841 85.6386 109.776 85.6386L109.645 85.442C109.514 85.3112 109.448 85.1804 109.383 85.1146C109.252 84.9181 109.121 84.7215 108.99 84.5907C108.794 84.2626 108.729 84.001 108.729 83.7387C108.663 83.4763 108.663 83.2147 108.467 83.0832C108.336 82.9524 108.074 83.0182 107.746 83.2798C107.419 83.5421 107.092 84.1976 107.157 85.0489C107.223 85.442 107.288 85.8352 107.485 86.2283C107.616 86.4249 107.681 86.5564 107.746 86.7529C107.812 86.818 107.878 86.9495 107.943 87.0146C108.008 87.1461 108.139 87.2769 108.27 87.4077C108.729 87.9324 109.448 88.3905 110.234 88.2597C110.627 88.194 110.954 87.9974 111.281 87.7358C111.412 87.6043 111.609 87.4077 111.74 87.2769L112.002 86.9495C112.132 86.818 112.263 86.5564 112.395 86.4249C112.525 86.2283 112.656 86.0317 112.721 85.8352C112.984 85.3112 113.114 84.7215 113.18 84.1318C113.245 83.4763 113.049 82.7558 112.656 82.2319C111.87 81.1175 110.562 80.921 109.776 81.249C108.99 81.5107 108.597 81.9696 108.401 82.3627C108.27 82.6901 108.336 82.9524 108.467 83.0832Z" fill="#A8A8A8"/>
<path d="M136.221 58.1848C136.417 58.3158 136.614 58.3158 136.942 58.2503C137.203 58.1848 137.596 58.1192 137.923 58.1192C138.25 58.1848 138.447 58.3158 138.578 58.5779C138.578 58.7089 138.643 58.7745 138.578 59.0366C138.512 59.2332 138.447 59.5608 138.316 59.8229C138.25 59.9539 138.185 60.085 138.12 60.1505C138.054 60.2816 137.989 60.347 137.858 60.4781L137.661 60.6747L137.596 60.7402C137.596 60.7402 137.596 60.7402 137.531 60.7402L137.4 60.5436C137.269 60.4126 137.203 60.2816 137.138 60.216C137.007 60.0194 136.876 59.8229 136.745 59.6918C136.549 59.3642 136.483 59.1021 136.483 58.84C136.417 58.5124 136.417 58.2503 136.221 58.1848C136.091 58.0538 135.828 58.1192 135.502 58.3814C135.174 58.6435 134.847 59.2986 134.913 60.1505C134.977 60.5436 135.043 60.9367 135.239 61.3299C135.37 61.5264 135.436 61.6575 135.502 61.8541C135.567 61.9196 135.632 62.0507 135.698 62.1162C135.763 62.2472 135.894 62.3783 136.025 62.5094C136.483 63.0335 137.203 63.4922 137.989 63.3611C138.382 63.2956 138.709 63.0991 139.036 62.8369C139.167 62.7059 139.364 62.5094 139.494 62.3783L139.756 62.0507C139.887 61.9196 140.018 61.6575 140.149 61.5264C140.28 61.3299 140.411 61.1333 140.476 60.9367C140.738 60.4126 140.869 59.8229 140.934 59.2332C141 58.5779 140.804 57.8572 140.411 57.333C139.626 56.2191 138.316 56.0225 137.531 56.3501C136.745 56.6122 136.353 57.0709 136.156 57.4641C136.025 57.7916 136.091 58.0538 136.221 58.1848Z" fill="#CACEDB"/>
<path d="M75.9983 83.5421C75.2131 83.2148 74.6896 83.4764 74.4278 84.001C74.4278 84.001 74.4278 84.0661 74.3622 84.0661C74.3622 84.0661 74.3622 84.1318 74.2966 84.1318C74.1004 84.7215 74.231 85.2455 75.0169 85.5736C75.7366 85.901 76.2608 85.6386 76.5875 85.1147V85.0489C76.5875 85.0489 76.5875 84.9839 76.6531 84.9839C76.9148 84.4592 76.7187 83.8695 75.9983 83.5421Z" fill="#A8A8A8"/>
<path d="M30.4387 64.6715C29.8496 65.2612 29.9151 65.8509 30.2424 66.244L30.3078 66.3096L30.3733 66.3751C30.766 66.7027 31.3552 66.7682 31.9443 66.1785C32.468 65.6543 32.468 65.0646 32.1407 64.6059L32.0752 64.5405L32.0098 64.4749C31.5516 64.0818 31.0279 64.0818 30.4387 64.6715Z" fill="#A8A8A8"/>
<path d="M45.1017 1.76913C44.7089 1.76913 44.3816 2.16228 44.2506 2.68646C44.1852 3.27618 44.2506 4.06245 44.5125 4.84873L44.5779 5.11083L44.7089 5.37292C45.1017 6.1592 45.5598 6.74891 46.0181 7.07651C46.4763 7.40417 46.9345 7.46964 47.2618 7.14205C47.851 6.61786 47.4582 5.56949 47 4.32455L46.9345 4.12797L46.869 3.9314C46.3454 2.75199 45.8871 1.76913 45.1017 1.76913Z" fill="#A8A8A8"/>
<path d="M77.7657 5.8315C77.1766 5.2418 76.3913 5.50389 75.6709 6.15912C75.606 6.22465 75.606 6.22465 75.5404 6.29017C75.4748 6.3557 75.4748 6.3557 75.4092 6.42122C74.7551 7.14199 74.4927 7.92826 75.0818 8.51797C75.606 9.04213 76.4569 8.84556 77.1766 8.19038C77.2422 8.12483 77.2422 8.12483 77.3078 8.05928C77.3734 7.99381 77.3734 7.99381 77.4383 7.92826C78.0931 7.20747 78.2899 6.42122 77.7657 5.8315Z" fill="#A8A8A8"/>
<path d="M121.428 14.2186C120.838 13.6289 120.511 13.4323 120.381 13.4323C120.315 13.5633 120.511 13.8254 121.166 14.4807C121.689 15.0049 122.082 15.267 122.213 15.2014C122.213 15.1359 121.951 14.8083 121.428 14.2186Z" fill="#A8A8A8"/>
<path d="M81.4973 137.468C81.8903 138.255 83.6577 137.73 85.883 136.944C86.0142 136.879 86.0791 136.879 86.2104 136.813C86.3409 136.747 86.4065 136.747 86.5377 136.682C88.6981 135.83 90.3999 135.109 90.203 134.257C90.0069 133.471 88.0434 133.536 85.6868 134.323C85.5556 134.388 85.4251 134.388 85.3595 134.454C85.2282 134.52 85.0977 134.52 85.0321 134.585C82.61 135.503 81.1043 136.747 81.4973 137.468Z" fill="#CACEDB"/>
<path d="M79.8604 136.879C80.1878 137.665 81.9552 137.272 84.1812 136.485C84.3117 136.42 84.3773 136.42 84.5085 136.354C84.6391 136.289 84.7047 136.289 84.8359 136.223C86.9956 135.371 88.5668 134.454 88.3051 133.668C88.0433 132.947 86.2103 133.078 83.9194 133.864C83.7882 133.93 83.7226 133.93 83.592 133.995C83.4608 134.061 83.3952 134.061 83.2647 134.127C81.0387 135.044 79.5338 136.157 79.8604 136.879Z" fill="#CACEDB"/>
<path d="M78.2243 136.55C78.6172 137.337 80.3846 136.813 82.6099 136.026C82.7411 135.961 82.8061 135.961 82.9373 135.896C83.0685 135.83 83.1334 135.83 83.2647 135.764C85.425 134.913 87.1268 134.192 86.9307 133.34C86.7338 132.554 84.7703 132.619 82.4138 133.405C82.2826 133.471 82.152 133.471 82.0864 133.537C81.9552 133.602 81.8246 133.602 81.759 133.668C79.4025 134.585 77.8969 135.896 78.2243 136.55Z" fill="#CACEDB"/>
<path d="M76.5874 135.961C76.9148 136.747 78.6821 136.354 80.9081 135.568C81.0387 135.502 81.1043 135.502 81.2355 135.437C81.366 135.371 81.4316 135.371 81.5629 135.305C83.7225 134.454 85.2938 133.536 85.032 132.75C84.7703 132.029 82.9373 132.16 80.6464 132.946C80.5151 133.012 80.4495 133.012 80.319 133.078C80.1878 133.143 80.1222 133.143 79.9916 133.209C77.7656 134.126 76.3256 135.24 76.5874 135.961Z" fill="#CACEDB"/>
<path d="M91.0546 74.3692C91.0546 74.3692 94.0002 74.6308 94.0002 79.2176C94.0002 83.8695 96.0293 118.859 94.1963 124.101C92.3633 129.343 92.5595 133.668 92.5595 133.668C96.4216 133.275 96.8802 132.553 96.8802 132.553L96.9458 72.5343L91.0546 74.3692Z" fill="#D3D3D3"/>
<path d="M88.5669 74.7623L89.2872 132.292C89.2872 133.602 90.5304 134.519 91.7743 134.126L94.9817 133.275C96.16 132.946 97.0115 131.899 97.0115 130.653V72.5343" fill="white"/>
<path d="M96.9459 72.5343C96.4873 72.5343 96.2255 78.8245 96.0294 89.3083C95.8326 99.7264 95.702 114.272 95.702 130.719C95.702 131.177 95.5059 131.57 95.1129 131.833C95.0473 131.899 94.9168 131.964 94.8511 132.029C94.7855 132.029 94.7199 132.095 94.7199 132.095H94.6543L94.5238 132.16L93.3455 132.488L92.1673 132.816L91.5781 132.946L91.4469 133.012H91.382C91.3164 133.012 91.3164 133.012 91.2508 133.012C90.989 133.012 90.6616 132.816 90.596 132.553C90.4655 124.494 90.3343 116.894 90.203 110.014C90.0725 103.002 89.9413 96.7779 89.7451 91.6014C89.4178 81.1833 89.0248 74.8931 88.6325 74.8931C88.2395 74.8931 88.0434 81.2491 87.9121 91.6672C87.8465 96.9087 87.8465 103.134 87.9121 110.145C87.9121 113.617 87.9777 117.353 87.9777 121.152C87.9777 123.053 87.9777 125.019 88.0434 127.049C88.0434 128.032 88.0434 129.081 88.0434 130.064C88.0434 130.588 88.0434 131.047 88.0434 131.57V132.357V132.553V132.881C88.0434 133.078 88.109 133.275 88.1739 133.471C88.6325 134.781 89.9413 135.698 91.3164 135.633C91.5125 135.633 91.6437 135.633 91.8399 135.568L92.1016 135.502L92.2329 135.437L92.822 135.305L94.0003 134.978L95.1785 134.651L95.309 134.585L95.5059 134.519C95.6364 134.454 95.7676 134.388 95.8982 134.388C96.1599 134.257 96.4217 134.126 96.6841 133.929C97.6006 133.209 98.2547 132.029 98.2547 130.784C98.2547 114.338 98.1242 99.7922 97.9273 89.3734C97.6656 78.8245 97.3382 72.5343 96.9459 72.5343Z" fill="#CACEDB"/>
<path d="M90.0725 135.437L84.8359 133.536C83.7226 133.209 82.9373 132.226 82.9373 131.047L82.4138 76.4657L88.5669 74.8274L90.0725 135.437Z" fill="#CACEDB"/>
<path d="M41.0431 69.0615V50.9771C41.0431 41.4762 45.2325 32.6306 52.1713 30.7304C62.5139 27.9129 74.6238 40.1657 74.6238 60.0193" fill="#E2E2E2"/>
<path d="M74.6895 78.4971C75.1474 78.4971 75.4091 73.3206 75.606 64.8026C75.606 62.6404 75.7365 60.347 75.6716 57.7261C75.606 55.1707 75.2786 52.3532 74.6239 49.4702C73.9691 46.5871 72.9221 43.6386 71.4165 40.7556C69.8452 37.8725 67.8161 35.055 65.0014 32.8272C63.8886 31.9099 62.6449 31.1237 61.3357 30.5339C60.0265 29.9442 58.6519 29.42 57.1462 29.2234C55.3134 28.9614 53.415 29.0269 51.7131 29.5511C49.9457 30.0097 48.3747 30.9926 47.0655 32.1065C44.4471 34.3343 42.876 37.2173 41.8287 40.0348C40.7814 42.8523 40.3231 45.6698 40.1268 48.2252C40.1268 48.5529 40.0613 48.8805 40.0613 49.2081C40.0613 49.5357 40.0613 49.8633 40.0613 50.1909C40.0613 50.8461 40.0613 51.4358 40.0613 52.0256C40.0613 53.205 40.1268 54.3189 40.1268 55.3673C40.3231 63.8853 40.6504 69.0616 41.0432 69.0616C41.436 69.0616 41.7633 63.8853 41.9596 55.3673C42.0251 53.2705 41.9596 50.8461 42.2214 48.4218C42.4833 45.9974 42.9415 43.3765 43.9889 40.8866C44.9707 38.3967 46.4764 35.8413 48.702 34.0067C49.8148 33.0893 51.0585 32.3686 52.4332 31.9755C53.8078 31.5823 55.3134 31.5168 56.819 31.7134C57.9972 31.9099 59.1755 32.3031 60.2883 32.8272C61.4011 33.3514 62.4485 34.0067 63.4304 34.793C65.9178 36.7586 67.8162 39.314 69.2563 41.935C70.6961 44.5559 71.6782 47.3734 72.3986 50.0599C73.0526 52.7463 73.4456 55.3673 73.5768 57.8571C73.7074 60.2815 73.7074 62.7058 73.773 64.8026C73.9691 73.3206 74.2965 78.4971 74.6895 78.4971Z" fill="#CACEDB"/>
<path d="M41.0432 69.0616C40.7814 69.9134 47.4582 72.1412 56.2298 74.6308C56.6881 74.7623 57.0808 74.8931 57.539 75.024C57.9972 75.1555 58.39 75.2863 58.8482 75.4171C67.6198 77.8417 74.4934 79.4142 74.6895 78.5622C74.8857 77.7759 68.2744 75.5486 59.5028 72.9932C59.0446 72.8617 58.6518 72.7309 58.1936 72.6001C57.7354 72.4686 57.3427 72.3378 56.8844 72.2069C48.1128 69.7823 41.2396 68.2753 41.0432 69.0616Z" fill="#CACEDB"/>
<path d="M74.6895 78.4971C74.8201 78.8903 80.4496 77.7109 89.8107 75.4171C94.4581 74.2377 100.088 72.8617 106.306 71.2241C112.852 69.5203 120.119 67.6201 127.842 65.5888C127.842 64.606 127.842 63.5576 127.842 62.5093C127.842 60.9367 127.842 59.3641 127.842 57.7916C127.842 56.219 127.842 54.6465 127.842 53.0739C127.842 50.3875 127.842 47.7665 127.777 45.1456C127.712 42.5247 127.45 39.9038 126.991 37.4794C126.01 32.5651 124.177 28.1095 121.755 24.5058C119.267 20.902 116.125 18.2155 112.852 16.774C111.216 16.0533 109.579 15.6601 108.074 15.5946C106.568 15.529 105.128 15.7256 103.95 16.1187C99.7603 17.4292 97.4038 18.2811 97.535 18.5431C97.6006 18.8052 100.022 18.3465 104.343 17.3637C105.39 17.1016 106.634 17.0361 108.008 17.1671C109.318 17.2982 110.758 17.6914 112.198 18.4121C115.078 19.7881 117.827 22.3435 120.053 25.6852C122.213 29.0924 123.915 33.2858 124.766 37.938C125.224 40.2969 125.421 42.7213 125.486 45.2111C125.486 47.7665 125.486 50.3875 125.486 53.0739C125.486 54.6465 125.486 56.219 125.486 57.7916C125.486 59.3641 125.486 60.9367 125.486 62.5093C125.486 62.8369 125.486 63.23 125.486 63.5576V63.6232C118.482 65.5234 111.87 67.358 105.913 68.996C99.6947 70.6995 94.1308 72.272 89.4834 73.648C80.1229 76.3349 74.5583 78.1691 74.6895 78.4971Z" fill="#CACEDB"/>
<path d="M41.305 69.0615C41.5013 69.9133 48.3092 68.4063 57.0153 66.113C57.4735 65.982 57.8662 65.8509 58.3244 65.7854C58.7827 65.6543 59.1755 65.5233 59.6336 65.4577C68.3398 63.0334 74.8856 60.8711 74.6895 60.0849C74.4927 59.2986 67.6852 60.7401 58.979 63.0334C58.5209 63.1645 58.1281 63.2955 57.6699 63.361C57.2116 63.4921 56.8189 63.6231 56.3607 63.6886C47.6546 66.113 41.1086 68.3408 41.305 69.0615Z" fill="#CACEDB"/>
<path d="M90.0725 20.5088C89.8764 19.657 82.2826 21.3607 72.4636 23.916C71.9401 24.0471 71.4822 24.1782 71.0236 24.3092C70.5657 24.4402 70.0421 24.5713 69.5836 24.7023C59.8301 27.3888 52.4332 29.7476 52.6296 30.5994C52.8259 31.3857 60.4192 29.7476 70.2383 27.1922C70.7618 27.0611 71.2204 26.9301 71.6783 26.7991C72.1362 26.668 72.6604 26.537 73.1183 26.406C82.8717 23.7195 90.2687 21.2951 90.0725 20.5088Z" fill="#CACEDB"/>
<path d="M74.6895 79.0869C74.6895 78.8903 74.2309 78.6937 73.5113 78.8245C72.7909 78.8903 71.7439 79.2177 70.6312 79.9382C69.5181 80.5936 68.3398 81.6422 67.227 82.9525C66.1142 84.2627 65.0668 85.7044 64.0195 87.4078C63.8231 87.7359 63.6267 88.0632 63.4303 88.4564C63.234 88.7837 63.0375 89.1769 62.9067 89.505C61.2047 93.0432 60.3537 96.3848 59.8301 98.7437C59.3718 101.102 59.3064 102.609 59.7646 102.741C60.1574 102.872 60.812 101.496 61.5975 99.2676C62.4484 97.0403 63.4958 93.8952 65.1323 90.6844C65.3287 90.3563 65.4596 90.0289 65.656 89.7015C65.8523 89.3735 65.9833 89.1118 66.1796 88.7837C67.096 87.2112 68.078 85.7044 68.9944 84.525C69.9109 83.2798 70.8274 82.297 71.6783 81.5765C73.38 79.8731 74.7551 79.48 74.6895 79.0869Z" fill="#CACEDB"/>
<path d="M40.7158 69.0616C40.7158 68.865 40.2576 68.6684 39.5376 68.7994C38.8176 68.865 37.7702 69.1926 36.6573 69.9134C35.5445 70.5686 34.3663 71.6172 33.2534 72.9274C32.1406 74.2377 31.0933 75.6794 30.046 77.3827C29.8495 77.7108 29.6532 78.0382 29.4568 78.4313C29.2604 78.7587 29.0641 79.1519 28.9331 79.4799C27.2312 83.0182 26.3802 86.3598 25.8565 88.7186C25.3983 91.0775 25.3329 92.5842 25.791 92.7158C26.1838 92.8466 26.8384 91.4706 27.6239 89.2426C28.4749 87.0153 29.5222 83.8695 31.1587 80.6593C31.3551 80.3313 31.486 80.0039 31.6824 79.6765C31.8788 79.3484 32.0097 79.021 32.2061 78.7587C33.1226 77.1862 34.1045 75.6794 35.0209 74.5C35.9373 73.2548 36.8537 72.272 37.7047 71.5515C39.4067 69.8478 40.7813 69.4547 40.7158 69.0616Z" fill="#CACEDB"/>
<path d="M59.4374 103.395C59.6992 102.544 53.0223 100.25 44.3162 97.695C43.858 97.5642 43.4652 97.4334 43.007 97.3019C42.5488 97.1711 42.156 97.0402 41.6978 96.9087C32.9262 94.4191 26.1184 92.7808 25.8566 93.6328C25.6602 94.3533 32.2716 96.7122 40.9778 99.3333C41.4359 99.4641 41.8287 99.5956 42.287 99.7264C42.7451 99.8573 43.1379 99.9888 43.5961 100.12C52.3677 102.609 59.241 104.117 59.4374 103.395Z" fill="#CACEDB"/>
<path d="M11.7174 17.6257C11.5209 17.5602 11.0627 18.8707 10.67 21.2295C10.4736 22.4089 10.2117 23.916 10.1463 25.6851C10.0808 27.4542 10.0808 29.4854 10.6045 31.7132C11.1282 33.941 12.241 36.4309 14.2702 38.3966C16.365 40.3623 19.1797 41.6728 22.3218 42.0004C23.8928 42.1314 25.5948 42.0004 27.1658 41.6072C28.8023 41.1486 30.4388 40.3623 31.7479 39.1173C33.1226 37.8724 34.1045 36.1688 34.4973 34.2031C34.8245 32.3029 34.6282 30.2717 33.7772 28.5026C33.1226 27.0611 32.0752 25.7506 30.7006 24.8333C29.9805 24.3746 29.1951 24.047 28.2786 23.916C27.3621 23.7849 26.3803 23.9815 25.5948 24.3746C23.6964 25.292 22.3872 26.93 21.6672 28.6992C20.9471 30.4683 20.7508 32.3685 20.9471 34.1376C21.0126 35.0549 21.209 35.9067 21.5363 36.7585C21.7981 37.6103 22.1909 38.3311 22.5836 39.0519C23.3691 40.4933 24.4165 41.7383 25.4638 42.8522C27.5586 45.08 29.8496 46.7181 32.0098 48.2906C34.17 49.7976 36.2647 51.0426 38.163 52.091C42.0251 54.1877 45.3636 55.4326 47.7201 56.1534C50.0767 56.8741 51.3858 57.0707 51.4513 56.8741C51.5168 56.6776 50.273 56.1534 48.1129 55.1706C45.9527 54.1877 42.8106 52.7462 39.0794 50.5184C37.2466 49.4045 35.2828 48.0941 33.2536 46.587C31.2243 45.08 29.0641 43.3764 27.1658 41.2797C26.2494 40.2313 25.3984 39.1173 24.6783 37.8724C24.0237 36.6275 23.5001 35.317 23.4346 33.8755C23.3036 32.4339 23.5001 30.9924 24.0237 29.682C24.5474 28.3715 25.5948 27.2576 26.773 26.6679C27.2313 26.4714 27.624 26.4058 28.0822 26.4058C28.5405 26.4714 28.9986 26.6679 29.4569 26.93C30.3733 27.5197 31.0933 28.437 31.6171 29.4854C32.2062 30.7959 32.4025 32.3029 32.1407 33.6789C31.8789 35.0549 31.2243 36.2998 30.1769 37.2172C29.1951 38.1345 27.8859 38.7897 26.5767 39.1829C25.2674 39.576 23.8928 39.707 22.5182 39.576C19.8997 39.3794 17.4123 38.2655 15.6449 36.7585C13.8775 35.186 12.8301 33.1547 12.3065 31.189C11.7174 29.2233 11.5864 27.2576 11.5209 25.6195C11.4555 23.9159 11.5864 22.4745 11.5864 21.295C11.8482 18.9362 11.9137 17.6257 11.7174 17.6257Z" fill="#CACEDB"/>
<path d="M97.6006 123.184C96.749 123.184 96.4223 124.756 96.3567 126.722C96.3567 126.853 96.3567 126.919 96.3567 127.049C96.3567 127.181 96.3567 127.246 96.3567 127.378C96.4223 129.408 96.749 130.916 97.6006 130.916C98.3858 130.916 98.7788 129.343 98.8437 127.378C98.8437 127.246 98.8437 127.181 98.8437 127.049C98.8437 126.919 98.8437 126.853 98.8437 126.722C98.7788 124.756 98.3858 123.184 97.6006 123.184Z" fill="#CACEDB"/>
<path d="M115.864 58.5124C115.602 57.6605 113.965 57.7916 111.936 58.3158C111.805 58.3158 111.74 58.3813 111.608 58.3813C111.478 58.3813 111.412 58.4468 111.281 58.4468C109.252 59.0365 107.812 59.8228 108.008 60.6746C108.205 61.4609 109.907 61.3953 111.936 60.8712C112.067 60.8712 112.132 60.8056 112.263 60.8056C112.394 60.8056 112.459 60.7401 112.591 60.7401C114.62 60.0849 116.06 59.2331 115.864 58.5124Z" fill="#CACEDB"/>
<path d="M116.321 61.2642C116.125 60.4125 115.274 60.2814 114.162 60.4125C114.096 60.4125 114.031 60.4125 114.031 60.478C113.965 60.478 113.899 60.478 113.899 60.478C112.852 60.7401 112.067 61.2642 112.263 62.1161C112.394 62.9023 113.31 63.0989 114.424 62.9679C114.489 62.9679 114.554 62.9679 114.554 62.9023C114.62 62.9023 114.685 62.9023 114.685 62.9023C115.732 62.5747 116.453 62.0505 116.321 61.2642Z" fill="#CACEDB"/>
<path d="M95.2434 43.442C94.9167 43.7041 94.7198 44.0317 94.4581 44.2283C94.3276 44.2939 94.1963 44.4249 94.0002 44.4904C93.9346 44.4904 93.869 44.5559 93.8033 44.4904C93.8033 44.5559 93.8034 44.6215 93.7384 44.687C93.7384 44.7525 93.6728 44.7525 93.6728 44.7525C93.6728 44.7525 93.6728 44.7525 93.7384 44.7525C93.869 44.687 94.0651 44.6215 94.0002 44.6215V44.5559C94.0002 44.4904 94.0002 44.3593 94.0002 44.2938C94.0002 44.0972 94.0651 43.9662 94.1307 43.8352C94.2619 43.7041 94.3276 43.5731 94.3925 43.442C94.5237 43.311 94.6542 43.1799 94.7855 42.9834C94.8511 42.7868 94.8511 42.5902 94.5893 42.3937C94.3276 42.1971 93.869 42.0661 93.3454 42.1971C92.8219 42.3281 92.2328 42.7212 91.8398 43.311C91.6437 43.6386 91.5124 43.9662 91.5124 44.4249C91.4468 44.818 91.5124 45.2767 91.7742 45.8664C91.9054 46.063 92.036 46.2595 92.2328 46.4561C92.4289 46.6527 92.6251 46.7837 92.8219 46.8492C93.9346 47.3079 94.9167 46.8492 95.3746 46.3906C95.8981 45.9319 96.1599 45.2767 96.2255 44.7525C96.2255 44.2283 96.0293 43.8352 95.8325 43.6386C95.6364 43.3765 95.4402 43.311 95.2434 43.442Z" fill="#CACEDB"/>
<path d="M95.9638 42.9178C95.5708 43.1144 95.6364 43.7696 95.2434 44.3593C95.0473 44.6215 94.7855 44.949 94.3925 45.2112C94.0002 45.4733 93.6072 45.4733 93.4111 45.3422C93.3455 45.3422 93.3455 45.3422 93.3455 45.2767C93.3455 45.2767 93.3455 45.2767 93.2799 45.2112C93.2143 45.1456 93.1493 44.949 93.1493 44.6869C93.1493 44.4904 93.2143 44.2283 93.2799 44.0318C93.4111 43.6386 93.6729 43.311 93.9346 43.0489C94.1964 42.7868 94.4581 42.6558 94.6543 42.5247C94.8511 42.3937 95.1129 42.3281 95.1785 42.1315C95.2434 41.935 95.1785 41.6729 94.8511 41.4763C94.5238 41.2143 93.869 41.1487 93.1493 41.3453C92.429 41.5418 91.6437 42.1315 91.1851 42.9834C90.9234 43.442 90.7928 43.9007 90.7272 44.4904C90.6616 45.0146 90.7272 45.6698 91.0546 46.325C91.1851 46.5871 91.382 46.8493 91.6437 47.0458C91.8399 47.2424 92.1016 47.439 92.3634 47.57C93.7385 48.1597 95.0473 47.57 95.7676 46.9803C96.4873 46.325 96.8803 45.4733 96.9459 44.7525C97.0115 44.0318 96.8147 43.442 96.5529 43.1799C96.3568 42.8523 96.095 42.7868 95.9638 42.9178Z" fill="#CACEDB"/>
<path d="M92.6907 39.183C92.6251 39.183 92.4945 39.8382 92.4289 40.9521C92.3633 41.5418 92.3633 42.2626 92.3633 43.1143C92.3633 43.5075 92.3633 43.9661 92.2977 44.4904C92.2977 44.818 92.2328 45.3421 92.3633 45.5387C92.3633 45.6042 92.4289 45.6698 92.4945 45.7352C92.5602 45.8008 92.6251 45.8663 92.6907 45.8663C92.8219 45.8663 92.9524 45.8663 93.1493 45.8008C93.5416 45.6042 94.0002 45.4077 94.3925 45.2111C94.5893 45.1455 94.7198 45.0145 94.9167 44.949C95.0472 44.8835 95.244 44.818 95.3746 44.6869C95.5058 44.5558 95.5707 44.4248 95.5707 44.2282C95.5707 42.6557 95.6363 40.8865 95.6363 38.9208C95.6363 37.0207 95.6363 34.9895 95.7019 32.8927C95.7019 28.5681 95.7019 23.785 95.7019 18.6741C95.7019 17.6913 95.7019 16.7084 95.7019 15.7256C95.7019 14.7428 95.7019 13.7599 95.7019 12.7771C95.7019 12.1873 95.7019 11.5321 95.7019 10.9424C95.7019 10.5493 95.7019 10.1561 95.7019 9.69747C95.7019 9.56637 95.6363 9.43535 95.6363 9.30433C95.5707 9.23878 95.5707 9.17324 95.4402 9.04222C95.309 8.97667 95.244 8.91119 95.1784 8.91119C95.0472 8.91119 94.9167 8.91119 94.7854 8.91119C94.0658 9.10776 93.411 9.30433 92.6907 9.5009C92.5602 9.56637 92.4289 9.63192 92.3633 9.69747C92.2977 9.76294 92.2328 9.89403 92.1672 9.95951C92.1016 10.0906 92.1016 10.2216 92.1016 10.3527V10.6803C92.1016 10.9424 92.1016 11.2045 92.1016 11.4666C92.1016 12.515 92.1016 13.5634 92.1016 14.6117C92.1016 16.6429 92.1016 18.6741 92.1672 20.5088C92.2328 24.2436 92.2328 27.5853 92.2977 30.3373C92.3633 35.8412 92.4945 39.183 92.6907 39.183C92.8875 39.183 93.0181 35.9068 93.1493 30.3373C93.2142 27.5853 93.2142 24.2436 93.2798 20.5088C93.2798 18.6086 93.2798 16.6429 93.3454 14.6117C93.3454 13.5634 93.3454 12.515 93.3454 11.4666C93.3454 11.2045 93.3454 10.9424 93.3454 10.6803V10.6148C93.7384 10.5493 94.0658 10.4182 94.4581 10.3527C94.4581 9.82849 94.4581 11.6631 94.4581 12.8426C94.4581 13.8254 94.4581 14.8082 94.4581 15.7911C94.4581 16.774 94.4581 17.7568 94.4581 18.7397C94.5237 23.8505 94.5237 28.6337 94.5237 32.9583C94.5237 35.1205 94.5893 37.1517 94.5893 38.9864C94.5893 40.821 94.6549 42.5246 94.6549 44.0317C94.6549 44.0972 94.5893 44.1627 94.5237 44.1627C94.3275 44.2282 94.1963 44.3593 94.0002 44.4248C93.8033 44.4904 93.6728 44.6214 93.4767 44.6869L93.2798 44.7524L93.2142 44.818L93.0837 44.8835C93.0181 44.949 92.9524 44.818 93.0181 44.818C93.0181 44.6869 93.0181 44.5558 93.0181 44.4904C93.0181 44.0317 93.0181 43.573 92.9524 43.1143C92.8868 42.2626 92.8868 41.5418 92.8868 40.9521C92.8868 39.7727 92.7563 39.183 92.6907 39.183Z" fill="#CACEDB"/>
<path d="M95.4402 15.9222L102.51 10.2872L95.4402 9.10776V15.9222Z" fill="#CACEDB"/>
<path d="M38.6211 91.5364C39.1448 90.8809 37.9665 89.5049 35.8718 88.6529C35.7409 88.5879 35.6754 88.5879 35.5445 88.5221C35.4136 88.4563 35.3481 88.4563 35.2172 88.3913C33.1225 87.7358 31.3551 87.9324 31.2896 88.7844C31.2241 89.5707 32.6643 90.0946 34.4317 90.7501L34.6935 90.8152L34.9553 90.9467C36.7883 91.6014 38.1629 92.1261 38.6211 91.5364Z" fill="#CACEDB"/>
<path d="M65.0668 96.1225C65.8523 96.4506 67.0961 94.091 68.667 91.2083C68.7325 91.0774 68.798 90.8809 68.9289 90.7494C68.9943 90.6186 69.0598 90.4878 69.1908 90.2912C69.9765 88.7837 70.6312 87.5392 71.1547 86.6872C71.6126 85.8352 72.0056 85.2455 71.7438 84.8523C71.547 84.525 70.7617 84.7215 69.7799 85.442C68.798 86.1632 67.8816 87.5392 67.0306 89.046C66.9651 89.1768 66.8997 89.3734 66.7688 89.5049C66.7033 89.6357 66.6378 89.8323 66.5069 89.9631C64.805 93.1739 64.2813 95.8608 65.0668 96.1225Z" fill="#CACEDB"/>
</g>
</svg>
