<svg width="42" height="56" viewBox="0 0 42 56" fill="none" xmlns="http://www.w3.org/2000/svg">
<g id="Partner">
<g id="Group 2">
<path id="Ellipse 60" d="M31.0529 21.3934C31.2613 21.3934 31.4302 21.2244 31.4302 21.016C31.4302 20.8076 31.2613 20.6387 31.0529 20.6387C30.8445 20.6387 30.6755 20.8076 30.6755 21.016C30.6755 21.2244 30.8445 21.3934 31.0529 21.3934Z" fill="black"/>
<path id="Ellipse 61" d="M30.0248 21.2108C30.2332 21.2108 30.4022 21.0418 30.4022 20.8334C30.4022 20.625 30.2332 20.4561 30.0248 20.4561C29.8164 20.4561 29.6475 20.625 29.6475 20.8334C29.6475 21.0418 29.8164 21.2108 30.0248 21.2108Z" fill="black"/>
<path id="Ellipse 62" d="M29.112 20.7132C29.3204 20.7132 29.4893 20.5443 29.4893 20.3358C29.4893 20.1274 29.3204 19.9585 29.112 19.9585C28.9036 19.9585 28.7346 20.1274 28.7346 20.3358C28.7346 20.5443 28.9036 20.7132 29.112 20.7132Z" fill="black"/>
<path id="Ellipse 63" d="M28.3991 19.9318C28.6075 19.9318 28.7764 19.7629 28.7764 19.5545C28.7764 19.3461 28.6075 19.1771 28.3991 19.1771C28.1907 19.1771 28.0217 19.3461 28.0217 19.5545C28.0217 19.7629 28.1907 19.9318 28.3991 19.9318Z" fill="black"/>
<path id="Ellipse 64" d="M27.9331 18.9905C28.1415 18.9905 28.3105 18.8216 28.3105 18.6132C28.3105 18.4048 28.1415 18.2358 27.9331 18.2358C27.7247 18.2358 27.5558 18.4048 27.5558 18.6132C27.5558 18.8216 27.7247 18.9905 27.9331 18.9905Z" fill="black"/>
<path id="Ellipse 65" d="M32.0941 21.2108C32.3026 21.2108 32.4715 21.0418 32.4715 20.8334C32.4715 20.625 32.3026 20.4561 32.0941 20.4561C31.8857 20.4561 31.7168 20.625 31.7168 20.8334C31.7168 21.0418 31.8857 21.2108 32.0941 21.2108Z" fill="black"/>
<path id="Ellipse 66" d="M33.0069 20.7132C33.2153 20.7132 33.3842 20.5443 33.3842 20.3358C33.3842 20.1274 33.2153 19.9585 33.0069 19.9585C32.7985 19.9585 32.6295 20.1274 32.6295 20.3358C32.6295 20.5443 32.7985 20.7132 33.0069 20.7132Z" fill="black"/>
<path id="Ellipse 67" d="M33.7198 19.9318C33.9282 19.9318 34.0971 19.7629 34.0971 19.5545C34.0971 19.3461 33.9282 19.1771 33.7198 19.1771C33.5114 19.1771 33.3424 19.3461 33.3424 19.5545C33.3424 19.7629 33.5114 19.9318 33.7198 19.9318Z" fill="black"/>
<path id="Ellipse 68" d="M34.1869 18.9905C34.3953 18.9905 34.5643 18.8216 34.5643 18.6132C34.5643 18.4048 34.3953 18.2358 34.1869 18.2358C33.9785 18.2358 33.8096 18.4048 33.8096 18.6132C33.8096 18.8216 33.9785 18.9905 34.1869 18.9905Z" fill="black"/>
</g>
<g id="Path 17737">
<mask id="path-10-outside-1_6_271" maskUnits="userSpaceOnUse" x="21.9955" y="15.8081" width="18" height="40" fill="black">
<rect fill="white" x="21.9955" y="15.8081" width="18" height="40"/>
<path d="M37.9604 27.1129C37.9604 27.0986 37.9523 27.0843 37.9492 27.07C38.1284 26.5127 38.1622 25.9189 38.0474 25.3449C37.9326 24.7709 37.6731 24.2357 37.2934 23.7901L37.0548 23.17C35.4822 19.0671 33.3119 16.8081 30.9417 16.8081C28.5715 16.8081 26.4002 19.0671 24.8286 23.17L24.5849 23.8054C24.2109 24.2509 23.956 24.7839 23.844 25.3547C23.732 25.9254 23.7665 26.5152 23.9444 27.069C23.9444 27.0833 23.9362 27.0976 23.9332 27.1118C23.2966 30.0434 22.9823 33.0358 22.9959 36.0357C22.9959 46.5036 26.5532 54.9879 30.9427 55.0001H30.9529C35.3384 54.9879 38.8997 46.5036 38.8997 36.0357C38.9129 33.0361 38.5979 30.044 37.9604 27.1129ZM30.9417 17.3313C32.9009 17.3313 34.8111 19.2313 36.245 22.5765C35.7021 22.2939 35.0989 22.1466 34.4868 22.1471C33.7379 22.144 33.0042 22.3579 32.3743 22.763C31.7445 23.168 31.2454 23.7469 30.9376 24.4296C30.6297 23.7467 30.1306 23.1678 29.5005 22.7627C28.8704 22.3576 28.1365 22.1438 27.3875 22.1471C26.775 22.1466 26.1715 22.2939 25.6282 22.5765C27.0723 19.2323 28.9825 17.3323 30.9417 17.3323V17.3313Z"/>
</mask>
<path d="M37.9604 27.1129C37.9604 27.0986 37.9523 27.0843 37.9492 27.07C38.1284 26.5127 38.1622 25.9189 38.0474 25.3449C37.9326 24.7709 37.6731 24.2357 37.2934 23.7901L37.0548 23.17C35.4822 19.0671 33.3119 16.8081 30.9417 16.8081C28.5715 16.8081 26.4002 19.0671 24.8286 23.17L24.5849 23.8054C24.2109 24.2509 23.956 24.7839 23.844 25.3547C23.732 25.9254 23.7665 26.5152 23.9444 27.069C23.9444 27.0833 23.9362 27.0976 23.9332 27.1118C23.2966 30.0434 22.9823 33.0358 22.9959 36.0357C22.9959 46.5036 26.5532 54.9879 30.9427 55.0001H30.9529C35.3384 54.9879 38.8997 46.5036 38.8997 36.0357C38.9129 33.0361 38.5979 30.044 37.9604 27.1129ZM30.9417 17.3313C32.9009 17.3313 34.8111 19.2313 36.245 22.5765C35.7021 22.2939 35.0989 22.1466 34.4868 22.1471C33.7379 22.144 33.0042 22.3579 32.3743 22.763C31.7445 23.168 31.2454 23.7469 30.9376 24.4296C30.6297 23.7467 30.1306 23.1678 29.5005 22.7627C28.8704 22.3576 28.1365 22.1438 27.3875 22.1471C26.775 22.1466 26.1715 22.2939 25.6282 22.5765C27.0723 19.2323 28.9825 17.3323 30.9417 17.3323V17.3313Z" fill="black"/>
<path d="M37.9604 27.1129C37.9604 27.0986 37.9523 27.0843 37.9492 27.07C38.1284 26.5127 38.1622 25.9189 38.0474 25.3449C37.9326 24.7709 37.6731 24.2357 37.2934 23.7901L37.0548 23.17C35.4822 19.0671 33.3119 16.8081 30.9417 16.8081C28.5715 16.8081 26.4002 19.0671 24.8286 23.17L24.5849 23.8054C24.2109 24.2509 23.956 24.7839 23.844 25.3547C23.732 25.9254 23.7665 26.5152 23.9444 27.069C23.9444 27.0833 23.9362 27.0976 23.9332 27.1118C23.2966 30.0434 22.9823 33.0358 22.9959 36.0357C22.9959 46.5036 26.5532 54.9879 30.9427 55.0001H30.9529C35.3384 54.9879 38.8997 46.5036 38.8997 36.0357C38.9129 33.0361 38.5979 30.044 37.9604 27.1129ZM30.9417 17.3313C32.9009 17.3313 34.8111 19.2313 36.245 22.5765C35.7021 22.2939 35.0989 22.1466 34.4868 22.1471C33.7379 22.144 33.0042 22.3579 32.3743 22.763C31.7445 23.168 31.2454 23.7469 30.9376 24.4296C30.6297 23.7467 30.1306 23.1678 29.5005 22.7627C28.8704 22.3576 28.1365 22.1438 27.3875 22.1471C26.775 22.1466 26.1715 22.2939 25.6282 22.5765C27.0723 19.2323 28.9825 17.3323 30.9417 17.3323V17.3313Z" stroke="black" mask="url(#path-10-outside-1_6_271)"/>
</g>
<g id="Path 17739">
<mask id="path-11-outside-2_6_271" maskUnits="userSpaceOnUse" x="19.743" y="0" width="22" height="18" fill="black">
<rect fill="white" x="19.743" width="22" height="18"/>
<path d="M30.9356 1.52625C32.0966 1.5255 33.2396 1.81361 34.2615 2.36463C35.2834 2.91564 36.1522 3.71225 36.7896 4.68267C37.427 5.65309 37.8129 6.76684 37.9126 7.92357C38.0123 9.08029 37.8227 10.2437 37.3608 11.3088L37.372 11.2966C36.1859 14.1369 36.8437 15.1374 37.8819 15.1374C38.3829 15.1115 38.8676 14.9512 39.2853 14.6734C38.9151 15.2166 38.4259 15.6682 37.8549 15.9939C37.2838 16.3196 36.6461 16.5108 35.9901 16.553C35.7471 16.5658 35.504 16.5293 35.2755 16.4455C35.047 16.3618 34.8378 16.2326 34.6606 16.0658C34.4835 15.899 34.3419 15.6981 34.2445 15.475C34.1472 15.252 34.096 15.0116 34.0941 14.7682C33.1172 15.2655 32.0364 15.5247 30.9402 15.5247C29.844 15.5247 28.7632 15.2655 27.7863 14.7682C27.7855 15.0124 27.7351 15.2539 27.6382 15.478C27.5413 15.7021 27.3998 15.9041 27.2224 16.0719C27.045 16.2397 26.8353 16.3696 26.6062 16.4539C26.377 16.5382 26.1331 16.575 25.8893 16.5622C25.2333 16.5196 24.5955 16.3282 24.0244 16.0025C23.4533 15.6769 22.9638 15.2255 22.5931 14.6826C23.0106 14.9608 23.4954 15.1211 23.9964 15.1466C25.0377 15.1466 25.6955 14.1461 24.5064 11.3058C24.0442 10.2405 23.8544 9.07686 23.9543 7.91991C24.0542 6.76296 24.4405 5.64908 25.0784 4.67874C25.7163 3.7084 26.5858 2.91213 27.6083 2.36177C28.6309 1.81141 29.7744 1.52427 30.9356 1.52625ZM30.9356 1.00204C29.8622 1.00237 28.8014 1.23231 27.8242 1.67642C26.847 2.12053 25.9761 2.76854 25.27 3.57694C24.5639 4.38535 24.0389 5.33545 23.7302 6.36347C23.4216 7.3915 23.3364 8.47366 23.4804 9.53732L24.0311 11.5128C24.8847 13.5576 24.5941 14.2552 24.4839 14.4184C24.4301 14.4941 24.3567 14.5537 24.2715 14.5908C24.1863 14.6278 24.0926 14.6408 24.0005 14.6285C23.599 14.6022 23.2118 14.4695 22.8786 14.244L20.743 12.908L22.1709 14.9834C22.5907 15.595 23.1447 16.1026 23.7905 16.4675C24.4363 16.8325 25.157 17.0452 25.8975 17.0894C26.3977 17.118 26.8932 16.9783 27.3048 16.6925C27.7164 16.4067 28.0206 15.9914 28.1687 15.5127C29.9535 16.2263 31.9448 16.2241 33.728 15.5066C33.8778 15.9827 34.1821 16.3952 34.5928 16.6789C35.0034 16.9627 35.4969 17.1014 35.9952 17.0731C36.7356 17.029 37.4561 16.8164 38.1018 16.4514C38.7474 16.0864 39.3012 15.5787 39.7208 14.9671L41.1486 12.8917L39.013 14.2257C38.6798 14.4512 38.2926 14.5839 37.8911 14.6101C37.799 14.6225 37.7054 14.6094 37.6202 14.5724C37.535 14.5354 37.4615 14.4758 37.4077 14.4001C37.2986 14.2369 37.0069 13.5393 37.8605 11.4944L38.4286 9.29663C38.5361 8.24838 38.4223 7.18923 38.0947 6.18771C37.767 5.1862 37.2328 4.26461 36.5265 3.48259C35.8202 2.70056 34.9576 2.0755 33.9946 1.64786C33.0315 1.22021 31.9894 0.9995 30.9356 1V1.00204Z"/>
</mask>
<path d="M30.9356 1.52625C32.0966 1.5255 33.2396 1.81361 34.2615 2.36463C35.2834 2.91564 36.1522 3.71225 36.7896 4.68267C37.427 5.65309 37.8129 6.76684 37.9126 7.92357C38.0123 9.08029 37.8227 10.2437 37.3608 11.3088L37.372 11.2966C36.1859 14.1369 36.8437 15.1374 37.8819 15.1374C38.3829 15.1115 38.8676 14.9512 39.2853 14.6734C38.9151 15.2166 38.4259 15.6682 37.8549 15.9939C37.2838 16.3196 36.6461 16.5108 35.9901 16.553C35.7471 16.5658 35.504 16.5293 35.2755 16.4455C35.047 16.3618 34.8378 16.2326 34.6606 16.0658C34.4835 15.899 34.3419 15.6981 34.2445 15.475C34.1472 15.252 34.096 15.0116 34.0941 14.7682C33.1172 15.2655 32.0364 15.5247 30.9402 15.5247C29.844 15.5247 28.7632 15.2655 27.7863 14.7682C27.7855 15.0124 27.7351 15.2539 27.6382 15.478C27.5413 15.7021 27.3998 15.9041 27.2224 16.0719C27.045 16.2397 26.8353 16.3696 26.6062 16.4539C26.377 16.5382 26.1331 16.575 25.8893 16.5622C25.2333 16.5196 24.5955 16.3282 24.0244 16.0025C23.4533 15.6769 22.9638 15.2255 22.5931 14.6826C23.0106 14.9608 23.4954 15.1211 23.9964 15.1466C25.0377 15.1466 25.6955 14.1461 24.5064 11.3058C24.0442 10.2405 23.8544 9.07686 23.9543 7.91991C24.0542 6.76296 24.4405 5.64908 25.0784 4.67874C25.7163 3.7084 26.5858 2.91213 27.6083 2.36177C28.6309 1.81141 29.7744 1.52427 30.9356 1.52625ZM30.9356 1.00204C29.8622 1.00237 28.8014 1.23231 27.8242 1.67642C26.847 2.12053 25.9761 2.76854 25.27 3.57694C24.5639 4.38535 24.0389 5.33545 23.7302 6.36347C23.4216 7.3915 23.3364 8.47366 23.4804 9.53732L24.0311 11.5128C24.8847 13.5576 24.5941 14.2552 24.4839 14.4184C24.4301 14.4941 24.3567 14.5537 24.2715 14.5908C24.1863 14.6278 24.0926 14.6408 24.0005 14.6285C23.599 14.6022 23.2118 14.4695 22.8786 14.244L20.743 12.908L22.1709 14.9834C22.5907 15.595 23.1447 16.1026 23.7905 16.4675C24.4363 16.8325 25.157 17.0452 25.8975 17.0894C26.3977 17.118 26.8932 16.9783 27.3048 16.6925C27.7164 16.4067 28.0206 15.9914 28.1687 15.5127C29.9535 16.2263 31.9448 16.2241 33.728 15.5066C33.8778 15.9827 34.1821 16.3952 34.5928 16.6789C35.0034 16.9627 35.4969 17.1014 35.9952 17.0731C36.7356 17.029 37.4561 16.8164 38.1018 16.4514C38.7474 16.0864 39.3012 15.5787 39.7208 14.9671L41.1486 12.8917L39.013 14.2257C38.6798 14.4512 38.2926 14.5839 37.8911 14.6101C37.799 14.6225 37.7054 14.6094 37.6202 14.5724C37.535 14.5354 37.4615 14.4758 37.4077 14.4001C37.2986 14.2369 37.0069 13.5393 37.8605 11.4944L38.4286 9.29663C38.5361 8.24838 38.4223 7.18923 38.0947 6.18771C37.767 5.1862 37.2328 4.26461 36.5265 3.48259C35.8202 2.70056 34.9576 2.0755 33.9946 1.64786C33.0315 1.22021 31.9894 0.9995 30.9356 1V1.00204Z" fill="black"/>
<path d="M30.9356 1.52625C32.0966 1.5255 33.2396 1.81361 34.2615 2.36463C35.2834 2.91564 36.1522 3.71225 36.7896 4.68267C37.427 5.65309 37.8129 6.76684 37.9126 7.92357C38.0123 9.08029 37.8227 10.2437 37.3608 11.3088L37.372 11.2966C36.1859 14.1369 36.8437 15.1374 37.8819 15.1374C38.3829 15.1115 38.8676 14.9512 39.2853 14.6734C38.9151 15.2166 38.4259 15.6682 37.8549 15.9939C37.2838 16.3196 36.6461 16.5108 35.9901 16.553C35.7471 16.5658 35.504 16.5293 35.2755 16.4455C35.047 16.3618 34.8378 16.2326 34.6606 16.0658C34.4835 15.899 34.3419 15.6981 34.2445 15.475C34.1472 15.252 34.096 15.0116 34.0941 14.7682C33.1172 15.2655 32.0364 15.5247 30.9402 15.5247C29.844 15.5247 28.7632 15.2655 27.7863 14.7682C27.7855 15.0124 27.7351 15.2539 27.6382 15.478C27.5413 15.7021 27.3998 15.9041 27.2224 16.0719C27.045 16.2397 26.8353 16.3696 26.6062 16.4539C26.377 16.5382 26.1331 16.575 25.8893 16.5622C25.2333 16.5196 24.5955 16.3282 24.0244 16.0025C23.4533 15.6769 22.9638 15.2255 22.5931 14.6826C23.0106 14.9608 23.4954 15.1211 23.9964 15.1466C25.0377 15.1466 25.6955 14.1461 24.5064 11.3058C24.0442 10.2405 23.8544 9.07686 23.9543 7.91991C24.0542 6.76296 24.4405 5.64908 25.0784 4.67874C25.7163 3.7084 26.5858 2.91213 27.6083 2.36177C28.6309 1.81141 29.7744 1.52427 30.9356 1.52625ZM30.9356 1.00204C29.8622 1.00237 28.8014 1.23231 27.8242 1.67642C26.847 2.12053 25.9761 2.76854 25.27 3.57694C24.5639 4.38535 24.0389 5.33545 23.7302 6.36347C23.4216 7.3915 23.3364 8.47366 23.4804 9.53732L24.0311 11.5128C24.8847 13.5576 24.5941 14.2552 24.4839 14.4184C24.4301 14.4941 24.3567 14.5537 24.2715 14.5908C24.1863 14.6278 24.0926 14.6408 24.0005 14.6285C23.599 14.6022 23.2118 14.4695 22.8786 14.244L20.743 12.908L22.1709 14.9834C22.5907 15.595 23.1447 16.1026 23.7905 16.4675C24.4363 16.8325 25.157 17.0452 25.8975 17.0894C26.3977 17.118 26.8932 16.9783 27.3048 16.6925C27.7164 16.4067 28.0206 15.9914 28.1687 15.5127C29.9535 16.2263 31.9448 16.2241 33.728 15.5066C33.8778 15.9827 34.1821 16.3952 34.5928 16.6789C35.0034 16.9627 35.4969 17.1014 35.9952 17.0731C36.7356 17.029 37.4561 16.8164 38.1018 16.4514C38.7474 16.0864 39.3012 15.5787 39.7208 14.9671L41.1486 12.8917L39.013 14.2257C38.6798 14.4512 38.2926 14.5839 37.8911 14.6101C37.799 14.6225 37.7054 14.6094 37.6202 14.5724C37.535 14.5354 37.4615 14.4758 37.4077 14.4001C37.2986 14.2369 37.0069 13.5393 37.8605 11.4944L38.4286 9.29663C38.5361 8.24838 38.4223 7.18923 38.0947 6.18771C37.767 5.1862 37.2328 4.26461 36.5265 3.48259C35.8202 2.70056 34.9576 2.0755 33.9946 1.64786C33.0315 1.22021 31.9894 0.9995 30.9356 1V1.00204Z" stroke="black" mask="url(#path-11-outside-2_6_271)"/>
</g>
<path id="Ellipse 69" d="M33.6025 9.27851C34.315 9.27851 34.8926 8.7009 34.8926 7.98838C34.8926 7.27585 34.315 6.69824 33.6025 6.69824C32.89 6.69824 32.3124 7.27585 32.3124 7.98838C32.3124 8.7009 32.89 9.27851 33.6025 9.27851Z" fill="black"/>
<path id="Ellipse 70" d="M28.5033 9.27851C29.2158 9.27851 29.7934 8.7009 29.7934 7.98838C29.7934 7.27585 29.2158 6.69824 28.5033 6.69824C27.7907 6.69824 27.2131 7.27585 27.2131 7.98838C27.2131 8.7009 27.7907 9.27851 28.5033 9.27851Z" fill="black"/>
<g id="Path 17738">
<mask id="path-14-outside-3_6_271" maskUnits="userSpaceOnUse" x="0" y="15.5" width="21" height="40" fill="black">
<rect fill="white" y="15.5" width="21" height="40"/>
<path d="M10.372 17.013C15.264 17.013 19.23 25.34 19.23 35.613C19.23 45.886 15.264 54.208 10.372 54.208C5.48 54.208 1.514 45.883 1.514 35.613C1.514 25.343 5.48 17.013 10.372 17.013ZM10.372 16.5C5.117 16.5 1 24.895 1 35.61C1 46.325 5.116 54.718 10.372 54.718C15.628 54.718 19.743 46.325 19.743 35.61C19.743 24.895 15.63 16.5 10.372 16.5Z"/>
</mask>
<path d="M10.372 17.013C15.264 17.013 19.23 25.34 19.23 35.613C19.23 45.886 15.264 54.208 10.372 54.208C5.48 54.208 1.514 45.883 1.514 35.613C1.514 25.343 5.48 17.013 10.372 17.013ZM10.372 16.5C5.117 16.5 1 24.895 1 35.61C1 46.325 5.116 54.718 10.372 54.718C15.628 54.718 19.743 46.325 19.743 35.61C19.743 24.895 15.63 16.5 10.372 16.5Z" fill="black"/>
<path d="M10.372 17.013C15.264 17.013 19.23 25.34 19.23 35.613C19.23 45.886 15.264 54.208 10.372 54.208C5.48 54.208 1.514 45.883 1.514 35.613C1.514 25.343 5.48 17.013 10.372 17.013ZM10.372 16.5C5.117 16.5 1 24.895 1 35.61C1 46.325 5.116 54.718 10.372 54.718C15.628 54.718 19.743 46.325 19.743 35.61C19.743 24.895 15.63 16.5 10.372 16.5Z" stroke="black" mask="url(#path-14-outside-3_6_271)"/>
</g>
<g id="Path 17740">
<mask id="path-15-outside-4_6_271" maskUnits="userSpaceOnUse" x="1.995" y="0.00195312" width="17" height="17" fill="black">
<rect fill="white" x="1.995" y="0.00195312" width="17" height="17"/>
<path d="M10.372 1.51595C11.7293 1.51615 13.0561 1.91883 14.1846 2.67306C15.3131 3.4273 16.1926 4.49922 16.7119 5.75329C17.2312 7.00736 17.3669 8.38725 17.102 9.71847C16.8371 11.0497 16.1834 12.2725 15.2235 13.2322C14.2637 14.1919 13.0408 14.8454 11.7095 15.1102C10.3783 15.3749 8.9984 15.2389 7.74441 14.7194C6.49042 14.2 5.41862 13.3203 4.66455 12.1917C3.91048 11.0631 3.508 9.73628 3.508 8.37895C3.508 7.47761 3.68555 6.58509 4.03051 5.75237C4.37547 4.91964 4.88108 4.16303 5.51848 3.52573C6.15587 2.88842 6.91256 2.38292 7.74533 2.03808C8.57811 1.69324 9.47065 1.51582 10.372 1.51595ZM10.372 1.00195C8.91297 1.00195 7.4867 1.43461 6.27356 2.2452C5.06042 3.0558 4.11489 4.20793 3.55654 5.5559C2.99819 6.90387 2.8521 8.38714 3.13675 9.81813C3.42139 11.2491 4.12398 12.5636 5.15567 13.5953C6.18736 14.627 7.50182 15.3296 8.93282 15.6142C10.3638 15.8988 11.8471 15.7528 13.1951 15.1944C14.543 14.6361 15.6952 13.6905 16.5058 12.4774C17.3163 11.2643 17.749 9.83799 17.749 8.37895C17.7469 6.4231 16.969 4.54796 15.586 3.16497C14.203 1.78197 12.3278 1.00407 10.372 1.00195Z"/>
</mask>
<path d="M10.372 1.51595C11.7293 1.51615 13.0561 1.91883 14.1846 2.67306C15.3131 3.4273 16.1926 4.49922 16.7119 5.75329C17.2312 7.00736 17.3669 8.38725 17.102 9.71847C16.8371 11.0497 16.1834 12.2725 15.2235 13.2322C14.2637 14.1919 13.0408 14.8454 11.7095 15.1102C10.3783 15.3749 8.9984 15.2389 7.74441 14.7194C6.49042 14.2 5.41862 13.3203 4.66455 12.1917C3.91048 11.0631 3.508 9.73628 3.508 8.37895C3.508 7.47761 3.68555 6.58509 4.03051 5.75237C4.37547 4.91964 4.88108 4.16303 5.51848 3.52573C6.15587 2.88842 6.91256 2.38292 7.74533 2.03808C8.57811 1.69324 9.47065 1.51582 10.372 1.51595ZM10.372 1.00195C8.91297 1.00195 7.4867 1.43461 6.27356 2.2452C5.06042 3.0558 4.11489 4.20793 3.55654 5.5559C2.99819 6.90387 2.8521 8.38714 3.13675 9.81813C3.42139 11.2491 4.12398 12.5636 5.15567 13.5953C6.18736 14.627 7.50182 15.3296 8.93282 15.6142C10.3638 15.8988 11.8471 15.7528 13.1951 15.1944C14.543 14.6361 15.6952 13.6905 16.5058 12.4774C17.3163 11.2643 17.749 9.83799 17.749 8.37895C17.7469 6.4231 16.969 4.54796 15.586 3.16497C14.203 1.78197 12.3278 1.00407 10.372 1.00195Z" fill="black"/>
<path d="M10.372 1.51595C11.7293 1.51615 13.0561 1.91883 14.1846 2.67306C15.3131 3.4273 16.1926 4.49922 16.7119 5.75329C17.2312 7.00736 17.3669 8.38725 17.102 9.71847C16.8371 11.0497 16.1834 12.2725 15.2235 13.2322C14.2637 14.1919 13.0408 14.8454 11.7095 15.1102C10.3783 15.3749 8.9984 15.2389 7.74441 14.7194C6.49042 14.2 5.41862 13.3203 4.66455 12.1917C3.91048 11.0631 3.508 9.73628 3.508 8.37895C3.508 7.47761 3.68555 6.58509 4.03051 5.75237C4.37547 4.91964 4.88108 4.16303 5.51848 3.52573C6.15587 2.88842 6.91256 2.38292 7.74533 2.03808C8.57811 1.69324 9.47065 1.51582 10.372 1.51595ZM10.372 1.00195C8.91297 1.00195 7.4867 1.43461 6.27356 2.2452C5.06042 3.0558 4.11489 4.20793 3.55654 5.5559C2.99819 6.90387 2.8521 8.38714 3.13675 9.81813C3.42139 11.2491 4.12398 12.5636 5.15567 13.5953C6.18736 14.627 7.50182 15.3296 8.93282 15.6142C10.3638 15.8988 11.8471 15.7528 13.1951 15.1944C14.543 14.6361 15.6952 13.6905 16.5058 12.4774C17.3163 11.2643 17.749 9.83799 17.749 8.37895C17.7469 6.4231 16.969 4.54796 15.586 3.16497C14.203 1.78197 12.3278 1.00407 10.372 1.00195Z" stroke="black" mask="url(#path-15-outside-4_6_271)"/>
</g>
<path id="Ellipse 71" d="M12.965 9.11691C13.6636 9.11691 14.23 8.55055 14.23 7.85191C14.23 7.15327 13.6636 6.58691 12.965 6.58691C12.2663 6.58691 11.7 7.15327 11.7 7.85191C11.7 8.55055 12.2663 9.11691 12.965 9.11691Z" fill="black"/>
<path id="Ellipse 72" d="M7.96495 9.11691C8.66359 9.11691 9.22995 8.55055 9.22995 7.85191C9.22995 7.15327 8.66359 6.58691 7.96495 6.58691C7.26631 6.58691 6.69995 7.15327 6.69995 7.85191C6.69995 8.55055 7.26631 9.11691 7.96495 9.11691Z" fill="black"/>
<g id="Group 3">
<path id="Ellipse 73" d="M10.371 34.7941C11.0802 34.7941 11.655 31.3744 11.655 27.1561C11.655 22.9377 11.0802 19.5181 10.371 19.5181C9.6619 19.5181 9.08704 22.9377 9.08704 27.1561C9.08704 31.3744 9.6619 34.7941 10.371 34.7941Z" fill="black"/>
<path id="Path 17741" d="M11.656 18.412C11.656 18.912 11.081 19.322 10.372 19.322C9.66301 19.322 9.08801 18.915 9.08801 18.412C9.08801 17.909 9.66201 17.5 10.372 17.5C11.082 17.5 11.656 17.907 11.656 18.412Z" fill="black"/>
</g>
</g>
</svg>
