<svg xmlns="http://www.w3.org/2000/svg" width="39.659" height="53" viewBox="0 0 39.659 53">
  <g id="Partner" transform="translate(-14.37 -2.384)">
    <g id="Group_14872" data-name="Group 14872" transform="translate(43.765 22.012)">
      <circle id="Ellipse_60" data-name="Ellipse 60" cx="0.27" cy="0.27" r="0.27"/>
    </g>
    <g id="Group_14873" data-name="Group 14873" transform="translate(42.757 21.833)">
      <circle id="Ellipse_61" data-name="Ellipse 61" cx="0.27" cy="0.27" r="0.27"/>
    </g>
    <g id="Group_14874" data-name="Group 14874" transform="translate(41.862 21.345)">
      <circle id="Ellipse_62" data-name="Ellipse 62" cx="0.27" cy="0.27" r="0.27"/>
    </g>
    <g id="Group_14875" data-name="Group 14875" transform="translate(41.163 20.579)">
      <circle id="Ellipse_63" data-name="Ellipse 63" cx="0.27" cy="0.27" r="0.27"/>
    </g>
    <g id="Group_14876" data-name="Group 14876" transform="translate(40.706 19.656)">
      <circle id="Ellipse_64" data-name="Ellipse 64" cx="0.27" cy="0.27" r="0.27"/>
    </g>
    <g id="Group_14877" data-name="Group 14877" transform="translate(44.786 21.833)">
      <circle id="Ellipse_65" data-name="Ellipse 65" cx="0.27" cy="0.27" r="0.27"/>
    </g>
    <g id="Group_14878" data-name="Group 14878" transform="translate(45.681 21.345)">
      <circle id="Ellipse_66" data-name="Ellipse 66" cx="0.27" cy="0.27" r="0.27"/>
    </g>
    <g id="Group_14879" data-name="Group 14879" transform="translate(46.38 20.579)">
      <circle id="Ellipse_67" data-name="Ellipse 67" cx="0.27" cy="0.27" r="0.27"/>
    </g>
    <g id="Group_14880" data-name="Group 14880" transform="translate(46.838 19.656)">
      <circle id="Ellipse_68" data-name="Ellipse 68" cx="0.27" cy="0.27" r="0.27"/>
    </g>
    <path id="Path_17737" data-name="Path 17737" d="M68.329,39.509c0-.014-.008-.028-.011-.042a3.369,3.369,0,0,0-.643-3.216l-.234-.608c-1.542-4.023-3.67-6.238-5.994-6.238s-4.453,2.215-5.994,6.238l-.239.623a3.373,3.373,0,0,0-.628,3.2c0,.014-.008.028-.011.042a40.372,40.372,0,0,0-.919,8.75c0,10.264,3.488,18.583,7.792,18.595h.01c4.3-.012,7.792-8.331,7.792-18.595A40.333,40.333,0,0,0,68.329,39.509Zm-6.882-9.591c1.921,0,3.794,1.863,5.2,5.143a3.727,3.727,0,0,0-1.724-.421,3.8,3.8,0,0,0-3.48,2.238,3.8,3.8,0,0,0-3.481-2.238,3.731,3.731,0,0,0-1.725.421C57.653,31.782,59.526,29.919,61.447,29.919Z" transform="translate(-17.421 -11.983)"/>
    <g id="Group_14881" data-name="Group 14881" transform="translate(14.37 17.166)">
      <path id="Path_17738" data-name="Path 17738" d="M23.742,29.457c4.892,0,8.858,8.327,8.858,18.6s-3.966,18.595-8.858,18.595-8.858-8.325-8.858-18.595,3.966-18.6,8.858-18.6m0-.513c-5.255,0-9.372,8.395-9.372,19.11s4.116,19.108,9.372,19.108,9.371-8.393,9.371-19.108S29,28.944,23.742,28.944Z" transform="translate(-14.37 -28.944)"/>
    </g>
    <g id="Group_14882" data-name="Group 14882" transform="translate(34.023 2.384)">
      <path id="Path_17739" data-name="Path 17739" d="M59.68,2.9a6.862,6.862,0,0,1,6.3,9.592l.011-.012c-1.163,2.785-.518,3.766.5,3.766a2.74,2.74,0,0,0,1.376-.455,4.239,4.239,0,0,1-3.231,1.843,1.766,1.766,0,0,1-1.859-1.75,6.818,6.818,0,0,1-6.185,0l0,0a1.767,1.767,0,0,1-1.86,1.759A4.247,4.247,0,0,1,51.5,15.8a2.732,2.732,0,0,0,1.376.455c1.021,0,1.666-.981.5-3.766l0,0A6.859,6.859,0,0,1,59.68,2.9m0-.514a7.379,7.379,0,0,0-7.31,8.369l.54,1.937c.837,2.005.552,2.689.444,2.849a.5.5,0,0,1-.474.206,2.221,2.221,0,0,1-1.1-.377l-2.094-1.31,1.4,2.035a4.778,4.778,0,0,0,3.654,2.065,2.2,2.2,0,0,0,2.227-1.546,7.322,7.322,0,0,0,5.451-.006,2.2,2.2,0,0,0,2.223,1.536,4.774,4.774,0,0,0,3.653-2.065l1.4-2.035L67.6,15.352a2.22,2.22,0,0,1-1.1.377.5.5,0,0,1-.474-.206c-.107-.16-.393-.844.444-2.849l.557-2.155A7.382,7.382,0,0,0,59.68,2.384Z" transform="translate(-49.683 -2.384)"/>
    </g>
    <g id="Group_14883" data-name="Group 14883" transform="translate(45.81 7.971)">
      <circle id="Ellipse_69" data-name="Ellipse 69" cx="0.763" cy="0.763" r="0.763"/>
    </g>
    <g id="Group_14884" data-name="Group 14884" transform="translate(40.672 7.971)">
      <circle id="Ellipse_70" data-name="Ellipse 70" cx="0.763" cy="0.763" r="0.763"/>
    </g>
    <g id="Group_14885" data-name="Group 14885" transform="translate(16.365 2.384)">
      <path id="Path_17740" data-name="Path 17740" d="M25.331,2.9a6.863,6.863,0,1,1-6.864,6.863A6.863,6.863,0,0,1,25.331,2.9m0-.514a7.377,7.377,0,1,0,7.377,7.377,7.385,7.385,0,0,0-7.377-7.377Z" transform="translate(-17.954 -2.384)"/>
    </g>
    <g id="Group_14886" data-name="Group 14886" transform="translate(25.548 7.971)">
      <circle id="Ellipse_71" data-name="Ellipse 71" cx="0.763" cy="0.763" r="0.763"/>
    </g>
    <g id="Group_14887" data-name="Group 14887" transform="translate(20.41 7.971)">
      <circle id="Ellipse_72" data-name="Ellipse 72" cx="0.763" cy="0.763" r="0.763" transform="translate(0)"/>
    </g>
    <g id="Group_14888" data-name="Group 14888" transform="translate(22.457 19.956)">
      <ellipse id="Ellipse_73" data-name="Ellipse 73" cx="1.284" cy="7.638" rx="1.284" ry="7.638" transform="translate(0)"/>
    </g>
    <g id="Group_14889" data-name="Group 14889" transform="translate(22.457 17.938)">
      <path id="Path_17741" data-name="Path 17741" d="M31.47,31.243c0,.5-.575.91-1.284.91s-1.284-.407-1.284-.91.574-.912,1.284-.912S31.47,30.738,31.47,31.243Z" transform="translate(-28.901 -30.331)"/>
    </g>
  </g>
</svg>
