<svg xmlns="http://www.w3.org/2000/svg" xmlns:xlink="http://www.w3.org/1999/xlink" width="285.594" height="214.977" viewBox="0 0 285.594 214.977">
  <defs>
    <clipPath id="clip-path">
      <rect id="Rectangle_6" data-name="Rectangle 6" width="209.785" height="214.477" transform="translate(0)" fill="#fff" stroke="#707070" stroke-width="1"/>
    </clipPath>
  </defs>
  <g id="Group_11" data-name="Group 11" transform="translate(-1811 -343)">
    <g id="Mask_Group_3" data-name="Mask Group 3" transform="translate(1849.114 343)" clip-path="url(#clip-path)">
      <g id="noun-travel-2668990" transform="translate(9.046 12.24)">
        <path id="Path_17611" data-name="Path 17611" d="M82.547,192.943V90.4A9.505,9.505,0,0,1,92.042,80.9H164.2A9.505,9.505,0,0,1,173.7,90.4v13.293h3.8V90.4A13.308,13.308,0,0,0,164.2,77.107H147.112V23.936h3.8a3.8,3.8,0,0,0,3.8-3.8v-3.8a7.595,7.595,0,0,0-7.6-7.6H109.133a7.595,7.595,0,0,0-7.6,7.6v3.8a3.8,3.8,0,0,0,3.8,3.8h3.8V77.107H92.042A13.308,13.308,0,0,0,78.749,90.4V192.943a13.289,13.289,0,0,0,7.61,12c.142,7.84,3.025,12.689,7.582,12.689,4.31,0,7.111-4.32,7.533-11.394h26.648v-3.8H92.042a9.505,9.505,0,0,1-9.495-9.495ZM143.314,77.1H112.931V23.934h30.383ZM105.335,20.136v-3.8a3.8,3.8,0,0,1,3.8-3.8h37.979a3.8,3.8,0,0,1,3.8,3.8v3.8ZM93.941,213.829c-1.992,0-3.44-3.108-3.735-7.738a13.31,13.31,0,0,0,1.836.142h5.629c-.312,4.557-1.757,7.6-3.73,7.6Z" transform="translate(-78.749 -8.744)" fill="#b2b2b2"/>
        <path id="Path_17612" data-name="Path 17612" d="M119.452,301.3h47.476v-3.8H119.452a5.7,5.7,0,0,0-5.7,5.7v45.575a5.7,5.7,0,0,0,5.7,5.7h11.394v-3.8H119.452a1.9,1.9,0,0,1-1.9-1.9V303.2A1.9,1.9,0,0,1,119.452,301.3Z" transform="translate(-98.561 -172.167)" fill="#b2b2b2"/>
        <g id="Group_9" data-name="Group 9" transform="translate(40.962 57.375)">
          <path id="Path_17613" data-name="Path 17613" d="M277.5,88.544a4.615,4.615,0,0,0-6.5.347l-24.635,27.4a1.538,1.538,0,0,0,.115,2.169,9.212,9.212,0,1,1-12.317,13.7,1.5,1.5,0,0,0-1.109-.392,1.538,1.538,0,0,0-1.06.507L173.48,197.363a4.607,4.607,0,0,0,.345,6.506l50.241,45.166a4.615,4.615,0,0,0,6.5-.347l58.509-65.083a1.536,1.536,0,0,0-.115-2.17,9.212,9.212,0,0,1,12.319-13.7,1.536,1.536,0,0,0,2.167-.115l24.635-27.4h0a4.607,4.607,0,0,0-.345-6.506Zm48.3,49.62-23.671,26.328a12.287,12.287,0,0,0-16.3,18.133l-57.548,64.009a1.537,1.537,0,0,1-2.169.115l-50.238-45.167a1.535,1.535,0,0,1-.115-2.166L233.309,135.4a12.285,12.285,0,0,0,16.3-18.127L273.28,90.945a1.522,1.522,0,0,1,1.06-.507,1.56,1.56,0,0,1,1.109.392L325.69,136h0a1.534,1.534,0,0,1,.115,2.166Z" transform="translate(-171.97 -87.04)" fill="#b2b2b2"/>
          <path id="Path_17613_-_Outline" data-name="Path 17613 - Outline" d="M274.249,86.868h0a4.935,4.935,0,0,1,3.3,1.26L327.787,133.3a4.935,4.935,0,0,1,.37,6.969l-.1.109-24.537,27.294a1.864,1.864,0,0,1-2.63.14,8.884,8.884,0,0,0-11.878,13.214,1.864,1.864,0,0,1,.137,2.631l-58.509,65.082a4.943,4.943,0,0,1-6.966.372l-50.242-45.167a4.935,4.935,0,0,1-.37-6.969l58.509-65.083a1.854,1.854,0,0,1,1.286-.615c.035,0,.075,0,.113,0a1.822,1.822,0,0,1,1.233.48,8.884,8.884,0,1,0,11.879-13.215,1.868,1.868,0,0,1-.14-2.632l24.635-27.4A4.949,4.949,0,0,1,274.249,86.868Zm53.483,52.889a4.279,4.279,0,0,0-.383-5.972L277.106,88.616a4.28,4.28,0,0,0-2.857-1.092h0a4.292,4.292,0,0,0-3.183,1.414l-24.634,27.4a1.212,1.212,0,0,0,.091,1.706,9.54,9.54,0,0,1-12.756,14.189l0,0a1.168,1.168,0,0,0-.792-.309l-.075,0a1.2,1.2,0,0,0-.837.4L173.551,197.41a4.279,4.279,0,0,0,.321,6.043l50.241,45.166a4.287,4.287,0,0,0,6.041-.323l58.509-65.082a1.208,1.208,0,0,0-.091-1.707,9.54,9.54,0,0,1,12.755-14.188,1.208,1.208,0,0,0,1.707-.089ZM274.241,89.936a1.887,1.887,0,0,1,1.253.476l50.879,45.739h-.207a1.864,1.864,0,0,1-.29,2.057l-.062.069h-.005l-23.8,26.474-.237-.165a11.96,11.96,0,0,0-15.863,17.648l.19.219-.194.216L228.354,246.68a1.864,1.864,0,0,1-2.631.14l-50.238-45.167a1.864,1.864,0,0,1-.14-2.629L233.086,134.8l.237.165a11.957,11.957,0,0,0,15.86-17.643L249,117.1l23.868-26.546a1.836,1.836,0,0,1,1.287-.615Zm50.422,45.56L275.057,90.9a1.232,1.232,0,0,0-.874-.308,1.186,1.186,0,0,0-.831.4l-23.485,26.12a12.611,12.611,0,0,1-16.677,18.551l-57.357,63.8a1.207,1.207,0,0,0,.091,1.7l50.238,45.166a1.209,1.209,0,0,0,1.706-.091l57.356-63.8A12.615,12.615,0,0,1,301.9,163.888l23.538-26.18a1.208,1.208,0,0,0-.144-1.64l-.635-.571Z" transform="translate(-171.798 -86.868)" fill="#b2b2b2"/>
        </g>
        <g id="Group_10" data-name="Group 10" transform="translate(124.658 108.209)">
          <path id="Path_17614" data-name="Path 17614" d="M405.48,232.287l1.814-2.019,4.035,3.627-1.814,2.019Z" transform="translate(-405.48 -230.268)" fill="#b2b2b2"/>
          <path id="Path_17615" data-name="Path 17615" d="M434.77,258.607l1.814-2.019,4.035,3.627-1.814,2.019Z" transform="translate(-425.69 -248.429)" fill="#b2b2b2"/>
          <path id="Path_17616" data-name="Path 17616" d="M467.3,287.857l1.814-2.019,4.035,3.627-1.814,2.019Z" transform="translate(-448.136 -268.612)" fill="#b2b2b2"/>
        </g>
        <path id="Path_17617" data-name="Path 17617" d="M170.952,218.75H110.186v2.789a1.157,1.157,0,0,0-.131.063c-6.98,4.548-10.065,8.183-9.159,10.8a7.272,7.272,0,0,0,3.755,4.032,7.834,7.834,0,0,0,3.4.805,6.433,6.433,0,0,0,2.089-.337c2.613-.9,3.567-5.57,2.848-13.863a1.914,1.914,0,0,0-.112-.487h58.075Zm-62.26,14.622a4,4,0,0,1-4.127-2.013,18.222,18.222,0,0,1,4.8-4.636,18.775,18.775,0,0,1-.678,6.648Z" transform="translate(-91.196 -127.598)" fill="#b2b2b2"/>
        <path id="Path_17618" data-name="Path 17618" d="M320.188,329.555c-1.056-2.618-4.2-3.741-6.99-3.54h0a11.847,11.847,0,0,0-10.32-1.125,32.45,32.45,0,0,0-4.316,2.341c-7.024-6.35-8.684-6.692-9.317-6.825a4.334,4.334,0,0,0-3.8.829,3.9,3.9,0,0,0-1.29,3.28c.032.5.11,1.793,3.987,9.617-3.1,2.142-6.55,4.587-10.293,7.286a62.028,62.028,0,0,0-5.963-3.584,3.237,3.237,0,0,0-3.558.573,3.129,3.129,0,0,0-.61,3.47c.319.788,1.121,3.3,1.7,5.117.535,1.669.82,2.553.942,2.859l1.243,3.081h0a3.21,3.21,0,0,0,4.126,1.774c2.208-.547,13.331-5.235,17.893-7.177,2.7,8.575,3.584,9.614,3.884,9.966h0a3.919,3.919,0,0,0,3.01,1.473h.2a4.3,4.3,0,0,0,3.311-2.034c.384-.561,1.533-2.243,2.173-14.5l5.938-2.393c9.186-3.7,8.99-8.148,8.054-10.471Zm-9.125,7.812-6.787,2.736a1.433,1.433,0,0,0-.9,1.261c-.43,9.066-1.2,13.174-1.72,13.94a1.573,1.573,0,0,1-1.1.788,1.168,1.168,0,0,1-.86-.461c-.095-.115-1-1.386-3.8-10.473a1.433,1.433,0,0,0-1.934-.9c-6.614,2.825-17.591,7.395-18.921,7.653a2.662,2.662,0,0,0-.36.114.318.318,0,0,1-.42-.178l-1.243-3.08c-.088-.223-.5-1.519-.87-2.663-.664-2.076-1.418-4.427-1.775-5.315-.084-.21-.064-.328-.041-.351a.52.52,0,0,1,.43.026,70.174,70.174,0,0,1,6.334,3.887,1.435,1.435,0,0,0,1.624-.036c4.459-3.221,8.518-6.092,12.065-8.534h0a1.432,1.432,0,0,0,.47-1.821c-4.013-8.01-4.232-9.483-4.244-9.624a1.129,1.129,0,0,1,.31-.934,1.572,1.572,0,0,1,1.336-.191c.275.056,1.988.655,8.771,6.861a1.432,1.432,0,0,0,1.729.157,37.062,37.062,0,0,1,4.792-2.682,8.808,8.808,0,0,1,7.861,1.03,1.435,1.435,0,0,0,1.147.346c1.8-.25,4.013.32,4.568,1.71,1.248,3.088-3.515,5.542-6.465,6.733Z" transform="translate(-195.288 -175.669)" fill="#ec5b24"/>
      </g>
    </g>
    <path id="Path_17619" data-name="Path 17619" d="M1598.512,644h285.594" transform="translate(212.488 -86.523)" fill="none" stroke="#b2b2b2" stroke-width="1"/>
  </g>
</svg>
